G04 #@! TF.GenerationSoftware,KiCad,Pcbnew,(5.1.6)-1*
G04 #@! TF.CreationDate,2021-01-22T14:13:29+00:00*
G04 #@! TF.ProjectId,NanoBLE_Compass,4e616e6f-424c-4455-9f43-6f6d70617373,rev?*
G04 #@! TF.SameCoordinates,Original*
G04 #@! TF.FileFunction,Paste,Top*
G04 #@! TF.FilePolarity,Positive*
%FSLAX46Y46*%
G04 Gerber Fmt 4.6, Leading zero omitted, Abs format (unit mm)*
G04 Created by KiCad (PCBNEW (5.1.6)-1) date 2021-01-22 14:13:29*
%MOMM*%
%LPD*%
G01*
G04 APERTURE LIST*
%ADD10R,2.500000X1.800000*%
%ADD11R,0.800000X2.700000*%
%ADD12R,1.300000X0.700000*%
%ADD13R,1.200000X0.400000*%
%ADD14R,0.900000X3.000000*%
%ADD15R,1.060000X0.650000*%
%ADD16R,0.650000X1.060000*%
G04 APERTURE END LIST*
D10*
X150836000Y-93472000D03*
X154836000Y-93472000D03*
D11*
X143158000Y-97282000D03*
X145458000Y-97282000D03*
G36*
G01*
X126743750Y-89453000D02*
X127256250Y-89453000D01*
G75*
G02*
X127475000Y-89671750I0J-218750D01*
G01*
X127475000Y-90109250D01*
G75*
G02*
X127256250Y-90328000I-218750J0D01*
G01*
X126743750Y-90328000D01*
G75*
G02*
X126525000Y-90109250I0J218750D01*
G01*
X126525000Y-89671750D01*
G75*
G02*
X126743750Y-89453000I218750J0D01*
G01*
G37*
G36*
G01*
X126743750Y-91028000D02*
X127256250Y-91028000D01*
G75*
G02*
X127475000Y-91246750I0J-218750D01*
G01*
X127475000Y-91684250D01*
G75*
G02*
X127256250Y-91903000I-218750J0D01*
G01*
X126743750Y-91903000D01*
G75*
G02*
X126525000Y-91684250I0J218750D01*
G01*
X126525000Y-91246750D01*
G75*
G02*
X126743750Y-91028000I218750J0D01*
G01*
G37*
G36*
G01*
X137572000Y-91437750D02*
X137572000Y-91950250D01*
G75*
G02*
X137353250Y-92169000I-218750J0D01*
G01*
X136915750Y-92169000D01*
G75*
G02*
X136697000Y-91950250I0J218750D01*
G01*
X136697000Y-91437750D01*
G75*
G02*
X136915750Y-91219000I218750J0D01*
G01*
X137353250Y-91219000D01*
G75*
G02*
X137572000Y-91437750I0J-218750D01*
G01*
G37*
G36*
G01*
X139147000Y-91437750D02*
X139147000Y-91950250D01*
G75*
G02*
X138928250Y-92169000I-218750J0D01*
G01*
X138490750Y-92169000D01*
G75*
G02*
X138272000Y-91950250I0J218750D01*
G01*
X138272000Y-91437750D01*
G75*
G02*
X138490750Y-91219000I218750J0D01*
G01*
X138928250Y-91219000D01*
G75*
G02*
X139147000Y-91437750I0J-218750D01*
G01*
G37*
G36*
G01*
X166367750Y-80106000D02*
X166880250Y-80106000D01*
G75*
G02*
X167099000Y-80324750I0J-218750D01*
G01*
X167099000Y-80762250D01*
G75*
G02*
X166880250Y-80981000I-218750J0D01*
G01*
X166367750Y-80981000D01*
G75*
G02*
X166149000Y-80762250I0J218750D01*
G01*
X166149000Y-80324750D01*
G75*
G02*
X166367750Y-80106000I218750J0D01*
G01*
G37*
G36*
G01*
X166367750Y-78531000D02*
X166880250Y-78531000D01*
G75*
G02*
X167099000Y-78749750I0J-218750D01*
G01*
X167099000Y-79187250D01*
G75*
G02*
X166880250Y-79406000I-218750J0D01*
G01*
X166367750Y-79406000D01*
G75*
G02*
X166149000Y-79187250I0J218750D01*
G01*
X166149000Y-78749750D01*
G75*
G02*
X166367750Y-78531000I218750J0D01*
G01*
G37*
G36*
G01*
X160276250Y-80981000D02*
X159763750Y-80981000D01*
G75*
G02*
X159545000Y-80762250I0J218750D01*
G01*
X159545000Y-80324750D01*
G75*
G02*
X159763750Y-80106000I218750J0D01*
G01*
X160276250Y-80106000D01*
G75*
G02*
X160495000Y-80324750I0J-218750D01*
G01*
X160495000Y-80762250D01*
G75*
G02*
X160276250Y-80981000I-218750J0D01*
G01*
G37*
G36*
G01*
X160276250Y-79406000D02*
X159763750Y-79406000D01*
G75*
G02*
X159545000Y-79187250I0J218750D01*
G01*
X159545000Y-78749750D01*
G75*
G02*
X159763750Y-78531000I218750J0D01*
G01*
X160276250Y-78531000D01*
G75*
G02*
X160495000Y-78749750I0J-218750D01*
G01*
X160495000Y-79187250D01*
G75*
G02*
X160276250Y-79406000I-218750J0D01*
G01*
G37*
G36*
G01*
X132379000Y-74170250D02*
X132379000Y-73657750D01*
G75*
G02*
X132597750Y-73439000I218750J0D01*
G01*
X133035250Y-73439000D01*
G75*
G02*
X133254000Y-73657750I0J-218750D01*
G01*
X133254000Y-74170250D01*
G75*
G02*
X133035250Y-74389000I-218750J0D01*
G01*
X132597750Y-74389000D01*
G75*
G02*
X132379000Y-74170250I0J218750D01*
G01*
G37*
G36*
G01*
X133954000Y-74170250D02*
X133954000Y-73657750D01*
G75*
G02*
X134172750Y-73439000I218750J0D01*
G01*
X134610250Y-73439000D01*
G75*
G02*
X134829000Y-73657750I0J-218750D01*
G01*
X134829000Y-74170250D01*
G75*
G02*
X134610250Y-74389000I-218750J0D01*
G01*
X134172750Y-74389000D01*
G75*
G02*
X133954000Y-74170250I0J218750D01*
G01*
G37*
G36*
G01*
X140366000Y-73657750D02*
X140366000Y-74170250D01*
G75*
G02*
X140147250Y-74389000I-218750J0D01*
G01*
X139709750Y-74389000D01*
G75*
G02*
X139491000Y-74170250I0J218750D01*
G01*
X139491000Y-73657750D01*
G75*
G02*
X139709750Y-73439000I218750J0D01*
G01*
X140147250Y-73439000D01*
G75*
G02*
X140366000Y-73657750I0J-218750D01*
G01*
G37*
G36*
G01*
X141941000Y-73657750D02*
X141941000Y-74170250D01*
G75*
G02*
X141722250Y-74389000I-218750J0D01*
G01*
X141284750Y-74389000D01*
G75*
G02*
X141066000Y-74170250I0J218750D01*
G01*
X141066000Y-73657750D01*
G75*
G02*
X141284750Y-73439000I218750J0D01*
G01*
X141722250Y-73439000D01*
G75*
G02*
X141941000Y-73657750I0J-218750D01*
G01*
G37*
D12*
X134830000Y-85725000D03*
X134830000Y-84455000D03*
X134830000Y-86995000D03*
X134830000Y-88265000D03*
X129330000Y-85725000D03*
X129330000Y-84455000D03*
X129330000Y-86995000D03*
X129330000Y-88265000D03*
D13*
X122682000Y-89565000D03*
X122682000Y-88915000D03*
X122682000Y-88265000D03*
X122682000Y-90215000D03*
X122682000Y-90865000D03*
D14*
X121132000Y-89565000D03*
G36*
G01*
X138297500Y-85092250D02*
X138297500Y-84579750D01*
G75*
G02*
X138516250Y-84361000I218750J0D01*
G01*
X138953750Y-84361000D01*
G75*
G02*
X139172500Y-84579750I0J-218750D01*
G01*
X139172500Y-85092250D01*
G75*
G02*
X138953750Y-85311000I-218750J0D01*
G01*
X138516250Y-85311000D01*
G75*
G02*
X138297500Y-85092250I0J218750D01*
G01*
G37*
G36*
G01*
X136722500Y-85092250D02*
X136722500Y-84579750D01*
G75*
G02*
X136941250Y-84361000I218750J0D01*
G01*
X137378750Y-84361000D01*
G75*
G02*
X137597500Y-84579750I0J-218750D01*
G01*
X137597500Y-85092250D01*
G75*
G02*
X137378750Y-85311000I-218750J0D01*
G01*
X136941250Y-85311000D01*
G75*
G02*
X136722500Y-85092250I0J218750D01*
G01*
G37*
G36*
G01*
X136722500Y-87378250D02*
X136722500Y-86865750D01*
G75*
G02*
X136941250Y-86647000I218750J0D01*
G01*
X137378750Y-86647000D01*
G75*
G02*
X137597500Y-86865750I0J-218750D01*
G01*
X137597500Y-87378250D01*
G75*
G02*
X137378750Y-87597000I-218750J0D01*
G01*
X136941250Y-87597000D01*
G75*
G02*
X136722500Y-87378250I0J218750D01*
G01*
G37*
G36*
G01*
X138297500Y-87378250D02*
X138297500Y-86865750D01*
G75*
G02*
X138516250Y-86647000I218750J0D01*
G01*
X138953750Y-86647000D01*
G75*
G02*
X139172500Y-86865750I0J-218750D01*
G01*
X139172500Y-87378250D01*
G75*
G02*
X138953750Y-87597000I-218750J0D01*
G01*
X138516250Y-87597000D01*
G75*
G02*
X138297500Y-87378250I0J218750D01*
G01*
G37*
G36*
G01*
X126743750Y-86684500D02*
X127256250Y-86684500D01*
G75*
G02*
X127475000Y-86903250I0J-218750D01*
G01*
X127475000Y-87340750D01*
G75*
G02*
X127256250Y-87559500I-218750J0D01*
G01*
X126743750Y-87559500D01*
G75*
G02*
X126525000Y-87340750I0J218750D01*
G01*
X126525000Y-86903250D01*
G75*
G02*
X126743750Y-86684500I218750J0D01*
G01*
G37*
G36*
G01*
X126743750Y-85109500D02*
X127256250Y-85109500D01*
G75*
G02*
X127475000Y-85328250I0J-218750D01*
G01*
X127475000Y-85765750D01*
G75*
G02*
X127256250Y-85984500I-218750J0D01*
G01*
X126743750Y-85984500D01*
G75*
G02*
X126525000Y-85765750I0J218750D01*
G01*
X126525000Y-85328250D01*
G75*
G02*
X126743750Y-85109500I218750J0D01*
G01*
G37*
G36*
G01*
X136722500Y-89664250D02*
X136722500Y-89151750D01*
G75*
G02*
X136941250Y-88933000I218750J0D01*
G01*
X137378750Y-88933000D01*
G75*
G02*
X137597500Y-89151750I0J-218750D01*
G01*
X137597500Y-89664250D01*
G75*
G02*
X137378750Y-89883000I-218750J0D01*
G01*
X136941250Y-89883000D01*
G75*
G02*
X136722500Y-89664250I0J218750D01*
G01*
G37*
G36*
G01*
X138297500Y-89664250D02*
X138297500Y-89151750D01*
G75*
G02*
X138516250Y-88933000I218750J0D01*
G01*
X138953750Y-88933000D01*
G75*
G02*
X139172500Y-89151750I0J-218750D01*
G01*
X139172500Y-89664250D01*
G75*
G02*
X138953750Y-89883000I-218750J0D01*
G01*
X138516250Y-89883000D01*
G75*
G02*
X138297500Y-89664250I0J218750D01*
G01*
G37*
G36*
G01*
X131019000Y-91183750D02*
X131019000Y-91696250D01*
G75*
G02*
X130800250Y-91915000I-218750J0D01*
G01*
X130362750Y-91915000D01*
G75*
G02*
X130144000Y-91696250I0J218750D01*
G01*
X130144000Y-91183750D01*
G75*
G02*
X130362750Y-90965000I218750J0D01*
G01*
X130800250Y-90965000D01*
G75*
G02*
X131019000Y-91183750I0J-218750D01*
G01*
G37*
G36*
G01*
X129444000Y-91183750D02*
X129444000Y-91696250D01*
G75*
G02*
X129225250Y-91915000I-218750J0D01*
G01*
X128787750Y-91915000D01*
G75*
G02*
X128569000Y-91696250I0J218750D01*
G01*
X128569000Y-91183750D01*
G75*
G02*
X128787750Y-90965000I218750J0D01*
G01*
X129225250Y-90965000D01*
G75*
G02*
X129444000Y-91183750I0J-218750D01*
G01*
G37*
G36*
G01*
X152609000Y-96263750D02*
X152609000Y-96776250D01*
G75*
G02*
X152390250Y-96995000I-218750J0D01*
G01*
X151952750Y-96995000D01*
G75*
G02*
X151734000Y-96776250I0J218750D01*
G01*
X151734000Y-96263750D01*
G75*
G02*
X151952750Y-96045000I218750J0D01*
G01*
X152390250Y-96045000D01*
G75*
G02*
X152609000Y-96263750I0J-218750D01*
G01*
G37*
G36*
G01*
X151034000Y-96263750D02*
X151034000Y-96776250D01*
G75*
G02*
X150815250Y-96995000I-218750J0D01*
G01*
X150377750Y-96995000D01*
G75*
G02*
X150159000Y-96776250I0J218750D01*
G01*
X150159000Y-96263750D01*
G75*
G02*
X150377750Y-96045000I218750J0D01*
G01*
X150815250Y-96045000D01*
G75*
G02*
X151034000Y-96263750I0J-218750D01*
G01*
G37*
G36*
G01*
X151708500Y-99316250D02*
X151708500Y-98803750D01*
G75*
G02*
X151927250Y-98585000I218750J0D01*
G01*
X152364750Y-98585000D01*
G75*
G02*
X152583500Y-98803750I0J-218750D01*
G01*
X152583500Y-99316250D01*
G75*
G02*
X152364750Y-99535000I-218750J0D01*
G01*
X151927250Y-99535000D01*
G75*
G02*
X151708500Y-99316250I0J218750D01*
G01*
G37*
G36*
G01*
X150133500Y-99316250D02*
X150133500Y-98803750D01*
G75*
G02*
X150352250Y-98585000I218750J0D01*
G01*
X150789750Y-98585000D01*
G75*
G02*
X151008500Y-98803750I0J-218750D01*
G01*
X151008500Y-99316250D01*
G75*
G02*
X150789750Y-99535000I-218750J0D01*
G01*
X150352250Y-99535000D01*
G75*
G02*
X150133500Y-99316250I0J218750D01*
G01*
G37*
G36*
G01*
X168653750Y-80106000D02*
X169166250Y-80106000D01*
G75*
G02*
X169385000Y-80324750I0J-218750D01*
G01*
X169385000Y-80762250D01*
G75*
G02*
X169166250Y-80981000I-218750J0D01*
G01*
X168653750Y-80981000D01*
G75*
G02*
X168435000Y-80762250I0J218750D01*
G01*
X168435000Y-80324750D01*
G75*
G02*
X168653750Y-80106000I218750J0D01*
G01*
G37*
G36*
G01*
X168653750Y-78531000D02*
X169166250Y-78531000D01*
G75*
G02*
X169385000Y-78749750I0J-218750D01*
G01*
X169385000Y-79187250D01*
G75*
G02*
X169166250Y-79406000I-218750J0D01*
G01*
X168653750Y-79406000D01*
G75*
G02*
X168435000Y-79187250I0J218750D01*
G01*
X168435000Y-78749750D01*
G75*
G02*
X168653750Y-78531000I218750J0D01*
G01*
G37*
G36*
G01*
X157477750Y-78531000D02*
X157990250Y-78531000D01*
G75*
G02*
X158209000Y-78749750I0J-218750D01*
G01*
X158209000Y-79187250D01*
G75*
G02*
X157990250Y-79406000I-218750J0D01*
G01*
X157477750Y-79406000D01*
G75*
G02*
X157259000Y-79187250I0J218750D01*
G01*
X157259000Y-78749750D01*
G75*
G02*
X157477750Y-78531000I218750J0D01*
G01*
G37*
G36*
G01*
X157477750Y-80106000D02*
X157990250Y-80106000D01*
G75*
G02*
X158209000Y-80324750I0J-218750D01*
G01*
X158209000Y-80762250D01*
G75*
G02*
X157990250Y-80981000I-218750J0D01*
G01*
X157477750Y-80981000D01*
G75*
G02*
X157259000Y-80762250I0J218750D01*
G01*
X157259000Y-80324750D01*
G75*
G02*
X157477750Y-80106000I218750J0D01*
G01*
G37*
D15*
X132674000Y-91506000D03*
X132674000Y-92456000D03*
X132674000Y-93406000D03*
X134874000Y-93406000D03*
X134874000Y-91506000D03*
X134874000Y-92456000D03*
X151722000Y-103886000D03*
X151722000Y-102936000D03*
X151722000Y-104836000D03*
X149522000Y-104836000D03*
X149522000Y-103886000D03*
X149522000Y-102936000D03*
G36*
G01*
X162397000Y-82681000D02*
X162247000Y-82681000D01*
G75*
G02*
X162172000Y-82606000I0J75000D01*
G01*
X162172000Y-81306000D01*
G75*
G02*
X162247000Y-81231000I75000J0D01*
G01*
X162397000Y-81231000D01*
G75*
G02*
X162472000Y-81306000I0J-75000D01*
G01*
X162472000Y-82606000D01*
G75*
G02*
X162397000Y-82681000I-75000J0D01*
G01*
G37*
G36*
G01*
X162897000Y-82681000D02*
X162747000Y-82681000D01*
G75*
G02*
X162672000Y-82606000I0J75000D01*
G01*
X162672000Y-81306000D01*
G75*
G02*
X162747000Y-81231000I75000J0D01*
G01*
X162897000Y-81231000D01*
G75*
G02*
X162972000Y-81306000I0J-75000D01*
G01*
X162972000Y-82606000D01*
G75*
G02*
X162897000Y-82681000I-75000J0D01*
G01*
G37*
G36*
G01*
X163397000Y-82681000D02*
X163247000Y-82681000D01*
G75*
G02*
X163172000Y-82606000I0J75000D01*
G01*
X163172000Y-81306000D01*
G75*
G02*
X163247000Y-81231000I75000J0D01*
G01*
X163397000Y-81231000D01*
G75*
G02*
X163472000Y-81306000I0J-75000D01*
G01*
X163472000Y-82606000D01*
G75*
G02*
X163397000Y-82681000I-75000J0D01*
G01*
G37*
G36*
G01*
X163897000Y-82681000D02*
X163747000Y-82681000D01*
G75*
G02*
X163672000Y-82606000I0J75000D01*
G01*
X163672000Y-81306000D01*
G75*
G02*
X163747000Y-81231000I75000J0D01*
G01*
X163897000Y-81231000D01*
G75*
G02*
X163972000Y-81306000I0J-75000D01*
G01*
X163972000Y-82606000D01*
G75*
G02*
X163897000Y-82681000I-75000J0D01*
G01*
G37*
G36*
G01*
X164397000Y-82681000D02*
X164247000Y-82681000D01*
G75*
G02*
X164172000Y-82606000I0J75000D01*
G01*
X164172000Y-81306000D01*
G75*
G02*
X164247000Y-81231000I75000J0D01*
G01*
X164397000Y-81231000D01*
G75*
G02*
X164472000Y-81306000I0J-75000D01*
G01*
X164472000Y-82606000D01*
G75*
G02*
X164397000Y-82681000I-75000J0D01*
G01*
G37*
G36*
G01*
X164397000Y-78281000D02*
X164247000Y-78281000D01*
G75*
G02*
X164172000Y-78206000I0J75000D01*
G01*
X164172000Y-76906000D01*
G75*
G02*
X164247000Y-76831000I75000J0D01*
G01*
X164397000Y-76831000D01*
G75*
G02*
X164472000Y-76906000I0J-75000D01*
G01*
X164472000Y-78206000D01*
G75*
G02*
X164397000Y-78281000I-75000J0D01*
G01*
G37*
G36*
G01*
X163897000Y-78281000D02*
X163747000Y-78281000D01*
G75*
G02*
X163672000Y-78206000I0J75000D01*
G01*
X163672000Y-76906000D01*
G75*
G02*
X163747000Y-76831000I75000J0D01*
G01*
X163897000Y-76831000D01*
G75*
G02*
X163972000Y-76906000I0J-75000D01*
G01*
X163972000Y-78206000D01*
G75*
G02*
X163897000Y-78281000I-75000J0D01*
G01*
G37*
G36*
G01*
X163397000Y-78281000D02*
X163247000Y-78281000D01*
G75*
G02*
X163172000Y-78206000I0J75000D01*
G01*
X163172000Y-76906000D01*
G75*
G02*
X163247000Y-76831000I75000J0D01*
G01*
X163397000Y-76831000D01*
G75*
G02*
X163472000Y-76906000I0J-75000D01*
G01*
X163472000Y-78206000D01*
G75*
G02*
X163397000Y-78281000I-75000J0D01*
G01*
G37*
G36*
G01*
X162897000Y-78281000D02*
X162747000Y-78281000D01*
G75*
G02*
X162672000Y-78206000I0J75000D01*
G01*
X162672000Y-76906000D01*
G75*
G02*
X162747000Y-76831000I75000J0D01*
G01*
X162897000Y-76831000D01*
G75*
G02*
X162972000Y-76906000I0J-75000D01*
G01*
X162972000Y-78206000D01*
G75*
G02*
X162897000Y-78281000I-75000J0D01*
G01*
G37*
G36*
G01*
X162397000Y-78281000D02*
X162247000Y-78281000D01*
G75*
G02*
X162172000Y-78206000I0J75000D01*
G01*
X162172000Y-76906000D01*
G75*
G02*
X162247000Y-76831000I75000J0D01*
G01*
X162397000Y-76831000D01*
G75*
G02*
X162472000Y-76906000I0J-75000D01*
G01*
X162472000Y-78206000D01*
G75*
G02*
X162397000Y-78281000I-75000J0D01*
G01*
G37*
D16*
X128844000Y-97366000D03*
X129794000Y-97366000D03*
X130744000Y-97366000D03*
X130744000Y-95166000D03*
X128844000Y-95166000D03*
X129794000Y-95166000D03*
G36*
G01*
X143637500Y-104342250D02*
X143637500Y-103429750D01*
G75*
G02*
X143881250Y-103186000I243750J0D01*
G01*
X144368750Y-103186000D01*
G75*
G02*
X144612500Y-103429750I0J-243750D01*
G01*
X144612500Y-104342250D01*
G75*
G02*
X144368750Y-104586000I-243750J0D01*
G01*
X143881250Y-104586000D01*
G75*
G02*
X143637500Y-104342250I0J243750D01*
G01*
G37*
G36*
G01*
X145512500Y-104342250D02*
X145512500Y-103429750D01*
G75*
G02*
X145756250Y-103186000I243750J0D01*
G01*
X146243750Y-103186000D01*
G75*
G02*
X146487500Y-103429750I0J-243750D01*
G01*
X146487500Y-104342250D01*
G75*
G02*
X146243750Y-104586000I-243750J0D01*
G01*
X145756250Y-104586000D01*
G75*
G02*
X145512500Y-104342250I0J243750D01*
G01*
G37*
G36*
G01*
X155372750Y-102558000D02*
X156285250Y-102558000D01*
G75*
G02*
X156529000Y-102801750I0J-243750D01*
G01*
X156529000Y-103289250D01*
G75*
G02*
X156285250Y-103533000I-243750J0D01*
G01*
X155372750Y-103533000D01*
G75*
G02*
X155129000Y-103289250I0J243750D01*
G01*
X155129000Y-102801750D01*
G75*
G02*
X155372750Y-102558000I243750J0D01*
G01*
G37*
G36*
G01*
X155372750Y-100683000D02*
X156285250Y-100683000D01*
G75*
G02*
X156529000Y-100926750I0J-243750D01*
G01*
X156529000Y-101414250D01*
G75*
G02*
X156285250Y-101658000I-243750J0D01*
G01*
X155372750Y-101658000D01*
G75*
G02*
X155129000Y-101414250I0J243750D01*
G01*
X155129000Y-100926750D01*
G75*
G02*
X155372750Y-100683000I243750J0D01*
G01*
G37*
M02*
