G04 #@! TF.GenerationSoftware,KiCad,Pcbnew,(5.1.6)-1*
G04 #@! TF.CreationDate,2021-01-22T14:13:30+00:00*
G04 #@! TF.ProjectId,NanoBLE_Compass,4e616e6f-424c-4455-9f43-6f6d70617373,rev?*
G04 #@! TF.SameCoordinates,Original*
G04 #@! TF.FileFunction,Soldermask,Bot*
G04 #@! TF.FilePolarity,Negative*
%FSLAX46Y46*%
G04 Gerber Fmt 4.6, Leading zero omitted, Abs format (unit mm)*
G04 Created by KiCad (PCBNEW (5.1.6)-1) date 2021-01-22 14:13:30*
%MOMM*%
%LPD*%
G01*
G04 APERTURE LIST*
%ADD10O,1.800000X3.100000*%
%ADD11C,6.500000*%
%ADD12O,2.500000X1.300000*%
%ADD13O,2.200000X1.150000*%
%ADD14R,1.800000X1.800000*%
%ADD15O,1.800000X1.800000*%
%ADD16R,2.100000X2.100000*%
G04 APERTURE END LIST*
D10*
X148590000Y-97663000D03*
X168910000Y-97663000D03*
X163830000Y-97663000D03*
X143510000Y-97663000D03*
X146050000Y-97663000D03*
X173990000Y-97663000D03*
X140970000Y-97663000D03*
X166370000Y-97663000D03*
X151130000Y-97663000D03*
X153670000Y-97663000D03*
X158750000Y-97663000D03*
X161290000Y-97663000D03*
X156210000Y-97663000D03*
X138430000Y-97663000D03*
X171450000Y-97663000D03*
X173990000Y-81153000D03*
X171450000Y-81153000D03*
X168910000Y-81153000D03*
X166370000Y-81153000D03*
X163830000Y-81153000D03*
X161290000Y-81153000D03*
X158750000Y-81153000D03*
X156210000Y-81153000D03*
X153670000Y-81153000D03*
X151130000Y-81153000D03*
X148590000Y-81153000D03*
X146050000Y-81153000D03*
X143510000Y-81153000D03*
X140970000Y-81153000D03*
X138430000Y-81153000D03*
D11*
X123330000Y-75430000D03*
X123330000Y-103430000D03*
X174330000Y-103430000D03*
X174330000Y-75430000D03*
D12*
X121132000Y-86065000D03*
X121132000Y-93065000D03*
D13*
X123232000Y-87340000D03*
X123232000Y-91790000D03*
D14*
X137668000Y-103886000D03*
D15*
X135128000Y-103886000D03*
X132588000Y-103886000D03*
D14*
X146050000Y-74422000D03*
D15*
X148590000Y-74422000D03*
X151130000Y-74422000D03*
X153670000Y-74422000D03*
D16*
X121412000Y-82550000D03*
X121412000Y-96520000D03*
X167894000Y-74422000D03*
X158750000Y-74422000D03*
M02*
