G04 #@! TF.GenerationSoftware,KiCad,Pcbnew,(5.1.6)-1*
G04 #@! TF.CreationDate,2021-01-22T14:13:29+00:00*
G04 #@! TF.ProjectId,NanoBLE_Compass,4e616e6f-424c-4455-9f43-6f6d70617373,rev?*
G04 #@! TF.SameCoordinates,Original*
G04 #@! TF.FileFunction,Copper,L2,Bot*
G04 #@! TF.FilePolarity,Positive*
%FSLAX46Y46*%
G04 Gerber Fmt 4.6, Leading zero omitted, Abs format (unit mm)*
G04 Created by KiCad (PCBNEW (5.1.6)-1) date 2021-01-22 14:13:29*
%MOMM*%
%LPD*%
G01*
G04 APERTURE LIST*
G04 #@! TA.AperFunction,SMDPad,CuDef*
%ADD10O,1.700000X3.000000*%
G04 #@! TD*
G04 #@! TA.AperFunction,ComponentPad*
%ADD11C,6.400000*%
G04 #@! TD*
G04 #@! TA.AperFunction,ComponentPad*
%ADD12O,2.400000X1.200000*%
G04 #@! TD*
G04 #@! TA.AperFunction,ComponentPad*
%ADD13O,2.100000X1.050000*%
G04 #@! TD*
G04 #@! TA.AperFunction,ComponentPad*
%ADD14R,1.700000X1.700000*%
G04 #@! TD*
G04 #@! TA.AperFunction,ComponentPad*
%ADD15O,1.700000X1.700000*%
G04 #@! TD*
G04 #@! TA.AperFunction,ComponentPad*
%ADD16R,2.000000X2.000000*%
G04 #@! TD*
G04 #@! TA.AperFunction,ViaPad*
%ADD17C,0.800000*%
G04 #@! TD*
G04 #@! TA.AperFunction,Conductor*
%ADD18C,0.250000*%
G04 #@! TD*
G04 #@! TA.AperFunction,Conductor*
%ADD19C,0.700000*%
G04 #@! TD*
G04 #@! TA.AperFunction,Conductor*
%ADD20C,0.254000*%
G04 #@! TD*
G04 APERTURE END LIST*
D10*
X148590000Y-97663000D03*
X168910000Y-97663000D03*
X163830000Y-97663000D03*
X143510000Y-97663000D03*
X146050000Y-97663000D03*
X173990000Y-97663000D03*
X140970000Y-97663000D03*
X166370000Y-97663000D03*
X151130000Y-97663000D03*
X153670000Y-97663000D03*
X158750000Y-97663000D03*
X161290000Y-97663000D03*
X156210000Y-97663000D03*
X138430000Y-97663000D03*
X171450000Y-97663000D03*
X173990000Y-81153000D03*
X171450000Y-81153000D03*
X168910000Y-81153000D03*
X166370000Y-81153000D03*
X163830000Y-81153000D03*
X161290000Y-81153000D03*
X158750000Y-81153000D03*
X156210000Y-81153000D03*
X153670000Y-81153000D03*
X151130000Y-81153000D03*
X148590000Y-81153000D03*
X146050000Y-81153000D03*
X143510000Y-81153000D03*
X140970000Y-81153000D03*
X138430000Y-81153000D03*
D11*
X123330000Y-75430000D03*
X123330000Y-103430000D03*
X174330000Y-103430000D03*
X174330000Y-75430000D03*
D12*
X121132000Y-86065000D03*
X121132000Y-93065000D03*
D13*
X123232000Y-87340000D03*
X123232000Y-91790000D03*
D14*
X137668000Y-103886000D03*
D15*
X135128000Y-103886000D03*
X132588000Y-103886000D03*
D14*
X146050000Y-74422000D03*
D15*
X148590000Y-74422000D03*
X151130000Y-74422000D03*
X153670000Y-74422000D03*
D16*
X121412000Y-82550000D03*
X121412000Y-96520000D03*
X167894000Y-74422000D03*
X158750000Y-74422000D03*
D17*
X163322000Y-74422000D03*
X128143000Y-87122000D03*
X132461000Y-83693000D03*
X120396000Y-100076000D03*
X126746000Y-106426000D03*
X171196000Y-106426000D03*
X177292000Y-100076000D03*
X177292000Y-78994000D03*
X170942000Y-72390000D03*
X126746000Y-72390000D03*
X120396000Y-78994000D03*
X128778000Y-72390000D03*
X168910000Y-106426000D03*
X128778000Y-106426000D03*
X177292000Y-98044000D03*
X168910000Y-72390000D03*
X177292000Y-81026000D03*
X123190000Y-93980000D03*
X124460000Y-93980000D03*
X123190000Y-85090000D03*
X124460000Y-85090000D03*
X147701000Y-103886000D03*
X129032000Y-89916000D03*
X127000000Y-84074000D03*
X143000000Y-84000000D03*
X146000000Y-84000000D03*
X149000000Y-84000000D03*
X152000000Y-84000000D03*
X152000000Y-87000000D03*
X149000000Y-87000000D03*
X146000000Y-87000000D03*
X143000000Y-87000000D03*
X143000000Y-90000000D03*
X143000000Y-93000000D03*
X146000000Y-90000000D03*
X146000000Y-93000000D03*
X149000000Y-90000000D03*
X152000000Y-90000000D03*
X155000000Y-90000000D03*
X158000000Y-90000000D03*
X158000000Y-93000000D03*
X161000000Y-93000000D03*
X164000000Y-90000000D03*
X164000000Y-87000000D03*
X167000000Y-87000000D03*
X167000000Y-90000000D03*
X167000000Y-93000000D03*
X170000000Y-93000000D03*
X170000000Y-90000000D03*
X157353000Y-100203000D03*
X158242000Y-100203000D03*
X158242000Y-101092000D03*
X153543000Y-100203000D03*
X153543000Y-101092000D03*
X154432000Y-101092000D03*
X157353000Y-101092000D03*
X154432000Y-100203000D03*
X157734000Y-77724000D03*
X167386000Y-83566000D03*
X171450000Y-95250000D03*
X134874000Y-89662000D03*
X163830000Y-85852000D03*
X158242000Y-83566000D03*
X131826000Y-90170000D03*
X132080000Y-94996000D03*
X166116000Y-83566000D03*
D18*
X166660999Y-84291001D02*
X167386000Y-83566000D01*
X160114990Y-82289705D02*
X162116286Y-84291001D01*
X160114990Y-80104990D02*
X160114990Y-82289705D01*
X162116286Y-84291001D02*
X166660999Y-84291001D01*
X157734000Y-77724000D02*
X160114990Y-80104990D01*
D19*
X167386000Y-83566000D02*
X171450000Y-87630000D01*
X171450000Y-95250000D02*
X171450000Y-97663000D01*
X171450000Y-87630000D02*
X171450000Y-95250000D01*
X121412000Y-82550000D02*
X127762000Y-82550000D01*
X127762000Y-82550000D02*
X134874000Y-89662000D01*
X134416499Y-90119501D02*
X134874000Y-89662000D01*
X134416499Y-100634499D02*
X134416499Y-90119501D01*
X137668000Y-103886000D02*
X134416499Y-100634499D01*
D18*
X156112000Y-98508000D02*
X156112000Y-93570000D01*
X156112000Y-93570000D02*
X163830000Y-85852000D01*
X153572000Y-98508000D02*
X153572000Y-87401020D01*
X157407020Y-83566000D02*
X153572000Y-87401020D01*
X158242000Y-83566000D02*
X157407020Y-83566000D01*
X131826000Y-90170000D02*
X131826000Y-94742000D01*
X131826000Y-94742000D02*
X132080000Y-94996000D01*
X166116000Y-80464000D02*
X166272000Y-80308000D01*
X166116000Y-83566000D02*
X166116000Y-80464000D01*
D20*
G36*
X172209330Y-72212445D02*
G01*
X172168912Y-72239452D01*
X171808724Y-72729119D01*
X174330000Y-75250395D01*
X174344143Y-75236253D01*
X174523748Y-75415858D01*
X174509605Y-75430000D01*
X177030881Y-77951276D01*
X177520548Y-77591088D01*
X177670001Y-77315673D01*
X177670000Y-101541926D01*
X177547555Y-101309330D01*
X177520548Y-101268912D01*
X177030881Y-100908724D01*
X174509605Y-103430000D01*
X174523748Y-103444143D01*
X174344143Y-103623748D01*
X174330000Y-103609605D01*
X171808724Y-106130881D01*
X172168912Y-106620548D01*
X172444325Y-106770000D01*
X125218074Y-106770000D01*
X125450670Y-106647555D01*
X125491088Y-106620548D01*
X125851276Y-106130881D01*
X123330000Y-103609605D01*
X123315858Y-103623748D01*
X123136253Y-103444143D01*
X123150395Y-103430000D01*
X123509605Y-103430000D01*
X126030881Y-105951276D01*
X126520548Y-105591088D01*
X126880849Y-104927118D01*
X127104694Y-104205615D01*
X127183480Y-103454305D01*
X127114178Y-102702062D01*
X126899452Y-101977792D01*
X126547555Y-101309330D01*
X126520548Y-101268912D01*
X126030881Y-100908724D01*
X123509605Y-103430000D01*
X123150395Y-103430000D01*
X120629119Y-100908724D01*
X120139452Y-101268912D01*
X119990000Y-101544325D01*
X119990000Y-100729119D01*
X120808724Y-100729119D01*
X123330000Y-103250395D01*
X125851276Y-100729119D01*
X125491088Y-100239452D01*
X124827118Y-99879151D01*
X124105615Y-99655306D01*
X123354305Y-99576520D01*
X122602062Y-99645822D01*
X121877792Y-99860548D01*
X121209330Y-100212445D01*
X121168912Y-100239452D01*
X120808724Y-100729119D01*
X119990000Y-100729119D01*
X119990000Y-97995136D01*
X120057506Y-98050537D01*
X120167820Y-98109502D01*
X120287518Y-98145812D01*
X120412000Y-98158072D01*
X122412000Y-98158072D01*
X122536482Y-98145812D01*
X122656180Y-98109502D01*
X122766494Y-98050537D01*
X122863185Y-97971185D01*
X122942537Y-97874494D01*
X123001502Y-97764180D01*
X123037812Y-97644482D01*
X123050072Y-97520000D01*
X123050072Y-95520000D01*
X123037812Y-95395518D01*
X123001502Y-95275820D01*
X122942537Y-95165506D01*
X122863185Y-95068815D01*
X122766494Y-94989463D01*
X122656180Y-94930498D01*
X122536482Y-94894188D01*
X122412000Y-94881928D01*
X120412000Y-94881928D01*
X120287518Y-94894188D01*
X120167820Y-94930498D01*
X120057506Y-94989463D01*
X119990000Y-95044864D01*
X119990000Y-94177492D01*
X120166504Y-94251493D01*
X120405000Y-94300000D01*
X121005000Y-94300000D01*
X121005000Y-93192000D01*
X121259000Y-93192000D01*
X121259000Y-94300000D01*
X121859000Y-94300000D01*
X122097496Y-94251493D01*
X122321946Y-94157390D01*
X122523725Y-94021307D01*
X122695078Y-93848474D01*
X122829421Y-93645533D01*
X122921591Y-93420282D01*
X122925462Y-93382609D01*
X122800731Y-93192000D01*
X121259000Y-93192000D01*
X121005000Y-93192000D01*
X120985000Y-93192000D01*
X120985000Y-92938000D01*
X121005000Y-92938000D01*
X121005000Y-91830000D01*
X121259000Y-91830000D01*
X121259000Y-92938000D01*
X122522923Y-92938000D01*
X122580000Y-92950000D01*
X123105000Y-92950000D01*
X123105000Y-92748452D01*
X123125789Y-92750500D01*
X123195712Y-92750500D01*
X123200789Y-92751000D01*
X123337711Y-92751000D01*
X123359000Y-92748903D01*
X123359000Y-92950000D01*
X123884000Y-92950000D01*
X124107865Y-92902934D01*
X124318246Y-92813099D01*
X124507059Y-92683947D01*
X124667047Y-92520441D01*
X124792063Y-92328864D01*
X124875964Y-92095810D01*
X124750163Y-91917000D01*
X124258083Y-91917000D01*
X124258268Y-91915236D01*
X124264467Y-91852013D01*
X124264467Y-91824240D01*
X124267465Y-91796633D01*
X124267496Y-91787759D01*
X124267488Y-91785490D01*
X124264683Y-91757887D01*
X124264877Y-91730134D01*
X124264011Y-91721304D01*
X124257883Y-91663000D01*
X124750163Y-91663000D01*
X124875964Y-91484190D01*
X124792063Y-91251136D01*
X124667047Y-91059559D01*
X124507059Y-90896053D01*
X124318246Y-90766901D01*
X124107865Y-90677066D01*
X123884000Y-90630000D01*
X123359000Y-90630000D01*
X123359000Y-90831548D01*
X123338211Y-90829500D01*
X123268288Y-90829500D01*
X123263211Y-90829000D01*
X123126289Y-90829000D01*
X123105000Y-90831097D01*
X123105000Y-90630000D01*
X122580000Y-90630000D01*
X122356135Y-90677066D01*
X122145754Y-90766901D01*
X121956941Y-90896053D01*
X121796953Y-91059559D01*
X121671937Y-91251136D01*
X121588036Y-91484190D01*
X121713837Y-91663000D01*
X122205917Y-91663000D01*
X122205732Y-91664764D01*
X122199533Y-91727987D01*
X122199533Y-91755760D01*
X122196535Y-91783367D01*
X122196504Y-91792241D01*
X122196512Y-91794510D01*
X122199317Y-91822113D01*
X122199123Y-91849865D01*
X122199989Y-91858696D01*
X122206117Y-91917000D01*
X122189308Y-91917000D01*
X122097496Y-91878507D01*
X121859000Y-91830000D01*
X121259000Y-91830000D01*
X121005000Y-91830000D01*
X120405000Y-91830000D01*
X120166504Y-91878507D01*
X119990000Y-91952508D01*
X119990000Y-90068061D01*
X130791000Y-90068061D01*
X130791000Y-90271939D01*
X130830774Y-90471898D01*
X130908795Y-90660256D01*
X131022063Y-90829774D01*
X131066000Y-90873711D01*
X131066001Y-94704668D01*
X131062324Y-94742000D01*
X131066001Y-94779333D01*
X131066604Y-94785451D01*
X131045000Y-94894061D01*
X131045000Y-95097939D01*
X131084774Y-95297898D01*
X131162795Y-95486256D01*
X131276063Y-95655774D01*
X131420226Y-95799937D01*
X131589744Y-95913205D01*
X131778102Y-95991226D01*
X131978061Y-96031000D01*
X132181939Y-96031000D01*
X132381898Y-95991226D01*
X132570256Y-95913205D01*
X132739774Y-95799937D01*
X132883937Y-95655774D01*
X132997205Y-95486256D01*
X133075226Y-95297898D01*
X133115000Y-95097939D01*
X133115000Y-94894061D01*
X133075226Y-94694102D01*
X132997205Y-94505744D01*
X132883937Y-94336226D01*
X132739774Y-94192063D01*
X132586000Y-94089315D01*
X132586000Y-90873711D01*
X132629937Y-90829774D01*
X132743205Y-90660256D01*
X132821226Y-90471898D01*
X132861000Y-90271939D01*
X132861000Y-90068061D01*
X132821226Y-89868102D01*
X132743205Y-89679744D01*
X132629937Y-89510226D01*
X132485774Y-89366063D01*
X132316256Y-89252795D01*
X132127898Y-89174774D01*
X131927939Y-89135000D01*
X131724061Y-89135000D01*
X131524102Y-89174774D01*
X131335744Y-89252795D01*
X131166226Y-89366063D01*
X131022063Y-89510226D01*
X130908795Y-89679744D01*
X130830774Y-89868102D01*
X130791000Y-90068061D01*
X119990000Y-90068061D01*
X119990000Y-87177492D01*
X120166504Y-87251493D01*
X120405000Y-87300000D01*
X121005000Y-87300000D01*
X121005000Y-86192000D01*
X121259000Y-86192000D01*
X121259000Y-87300000D01*
X121859000Y-87300000D01*
X122097496Y-87251493D01*
X122189308Y-87213000D01*
X122205917Y-87213000D01*
X122205732Y-87214764D01*
X122199533Y-87277987D01*
X122199533Y-87305760D01*
X122196535Y-87333367D01*
X122196504Y-87342241D01*
X122196512Y-87344510D01*
X122199317Y-87372113D01*
X122199123Y-87399865D01*
X122199989Y-87408696D01*
X122206117Y-87467000D01*
X121713837Y-87467000D01*
X121588036Y-87645810D01*
X121671937Y-87878864D01*
X121796953Y-88070441D01*
X121956941Y-88233947D01*
X122145754Y-88363099D01*
X122356135Y-88452934D01*
X122580000Y-88500000D01*
X123105000Y-88500000D01*
X123105000Y-88298452D01*
X123125789Y-88300500D01*
X123195712Y-88300500D01*
X123200789Y-88301000D01*
X123337711Y-88301000D01*
X123359000Y-88298903D01*
X123359000Y-88500000D01*
X123884000Y-88500000D01*
X124107865Y-88452934D01*
X124318246Y-88363099D01*
X124507059Y-88233947D01*
X124667047Y-88070441D01*
X124792063Y-87878864D01*
X124875964Y-87645810D01*
X124750163Y-87467000D01*
X124258083Y-87467000D01*
X124258268Y-87465236D01*
X124264467Y-87402013D01*
X124264467Y-87374240D01*
X124267465Y-87346633D01*
X124267496Y-87337759D01*
X124267488Y-87335490D01*
X124264683Y-87307887D01*
X124264877Y-87280134D01*
X124264011Y-87271304D01*
X124257883Y-87213000D01*
X124750163Y-87213000D01*
X124875964Y-87034190D01*
X124792063Y-86801136D01*
X124667047Y-86609559D01*
X124507059Y-86446053D01*
X124318246Y-86316901D01*
X124107865Y-86227066D01*
X123884000Y-86180000D01*
X123359000Y-86180000D01*
X123359000Y-86381548D01*
X123338211Y-86379500D01*
X123268288Y-86379500D01*
X123263211Y-86379000D01*
X123126289Y-86379000D01*
X123105000Y-86381097D01*
X123105000Y-86180000D01*
X122580000Y-86180000D01*
X122522923Y-86192000D01*
X121259000Y-86192000D01*
X121005000Y-86192000D01*
X120985000Y-86192000D01*
X120985000Y-85938000D01*
X121005000Y-85938000D01*
X121005000Y-84830000D01*
X121259000Y-84830000D01*
X121259000Y-85938000D01*
X122800731Y-85938000D01*
X122925462Y-85747391D01*
X122921591Y-85709718D01*
X122829421Y-85484467D01*
X122695078Y-85281526D01*
X122523725Y-85108693D01*
X122321946Y-84972610D01*
X122097496Y-84878507D01*
X121859000Y-84830000D01*
X121259000Y-84830000D01*
X121005000Y-84830000D01*
X120405000Y-84830000D01*
X120166504Y-84878507D01*
X119990000Y-84952508D01*
X119990000Y-84025136D01*
X120057506Y-84080537D01*
X120167820Y-84139502D01*
X120287518Y-84175812D01*
X120412000Y-84188072D01*
X122412000Y-84188072D01*
X122536482Y-84175812D01*
X122656180Y-84139502D01*
X122766494Y-84080537D01*
X122863185Y-84001185D01*
X122942537Y-83904494D01*
X123001502Y-83794180D01*
X123037812Y-83674482D01*
X123050072Y-83550000D01*
X123050072Y-83535000D01*
X127354000Y-83535000D01*
X133522159Y-89703160D01*
X133502075Y-89740735D01*
X133445752Y-89926408D01*
X133426734Y-90119501D01*
X133431500Y-90167891D01*
X133431499Y-100586119D01*
X133426734Y-100634499D01*
X133431499Y-100682878D01*
X133445752Y-100827592D01*
X133502075Y-101013265D01*
X133593539Y-101184383D01*
X133716629Y-101334369D01*
X133754215Y-101365215D01*
X134821812Y-102432812D01*
X134694842Y-102458068D01*
X134424589Y-102570010D01*
X134181368Y-102732525D01*
X133974525Y-102939368D01*
X133858000Y-103113760D01*
X133741475Y-102939368D01*
X133534632Y-102732525D01*
X133291411Y-102570010D01*
X133021158Y-102458068D01*
X132734260Y-102401000D01*
X132441740Y-102401000D01*
X132154842Y-102458068D01*
X131884589Y-102570010D01*
X131641368Y-102732525D01*
X131434525Y-102939368D01*
X131272010Y-103182589D01*
X131160068Y-103452842D01*
X131103000Y-103739740D01*
X131103000Y-104032260D01*
X131160068Y-104319158D01*
X131272010Y-104589411D01*
X131434525Y-104832632D01*
X131641368Y-105039475D01*
X131884589Y-105201990D01*
X132154842Y-105313932D01*
X132441740Y-105371000D01*
X132734260Y-105371000D01*
X133021158Y-105313932D01*
X133291411Y-105201990D01*
X133534632Y-105039475D01*
X133741475Y-104832632D01*
X133858000Y-104658240D01*
X133974525Y-104832632D01*
X134181368Y-105039475D01*
X134424589Y-105201990D01*
X134694842Y-105313932D01*
X134981740Y-105371000D01*
X135274260Y-105371000D01*
X135561158Y-105313932D01*
X135831411Y-105201990D01*
X136074632Y-105039475D01*
X136206487Y-104907620D01*
X136228498Y-104980180D01*
X136287463Y-105090494D01*
X136366815Y-105187185D01*
X136463506Y-105266537D01*
X136573820Y-105325502D01*
X136693518Y-105361812D01*
X136818000Y-105374072D01*
X138518000Y-105374072D01*
X138642482Y-105361812D01*
X138762180Y-105325502D01*
X138872494Y-105266537D01*
X138969185Y-105187185D01*
X139048537Y-105090494D01*
X139107502Y-104980180D01*
X139143812Y-104860482D01*
X139156072Y-104736000D01*
X139156072Y-103405695D01*
X170476520Y-103405695D01*
X170545822Y-104157938D01*
X170760548Y-104882208D01*
X171112445Y-105550670D01*
X171139452Y-105591088D01*
X171629119Y-105951276D01*
X174150395Y-103430000D01*
X171629119Y-100908724D01*
X171139452Y-101268912D01*
X170779151Y-101932882D01*
X170555306Y-102654385D01*
X170476520Y-103405695D01*
X139156072Y-103405695D01*
X139156072Y-103036000D01*
X139143812Y-102911518D01*
X139107502Y-102791820D01*
X139048537Y-102681506D01*
X138969185Y-102584815D01*
X138872494Y-102505463D01*
X138762180Y-102446498D01*
X138642482Y-102410188D01*
X138518000Y-102397928D01*
X137572929Y-102397928D01*
X137283593Y-102108593D01*
X137338988Y-102131538D01*
X137526581Y-102188443D01*
X137648668Y-102212727D01*
X137843758Y-102231942D01*
X137906000Y-102235000D01*
X158004000Y-102235000D01*
X158066242Y-102231942D01*
X158261332Y-102212727D01*
X158383419Y-102188443D01*
X158571012Y-102131538D01*
X158686020Y-102083900D01*
X158858907Y-101991490D01*
X158962409Y-101922332D01*
X159113946Y-101797969D01*
X159201969Y-101709946D01*
X159326332Y-101558409D01*
X159395490Y-101454907D01*
X159487900Y-101282020D01*
X159535538Y-101167012D01*
X159592443Y-100979419D01*
X159616727Y-100857332D01*
X159635942Y-100662242D01*
X159639000Y-100600000D01*
X159639000Y-100568000D01*
X159635942Y-100505758D01*
X159616727Y-100310668D01*
X159592443Y-100188581D01*
X159535538Y-100000988D01*
X159487900Y-99885980D01*
X159395490Y-99713093D01*
X159365314Y-99667931D01*
X159579014Y-99553706D01*
X159805134Y-99368134D01*
X159990706Y-99142014D01*
X160020000Y-99087208D01*
X160049295Y-99142014D01*
X160234867Y-99368134D01*
X160460987Y-99553706D01*
X160718967Y-99691599D01*
X160998890Y-99776513D01*
X161290000Y-99805185D01*
X161581111Y-99776513D01*
X161861034Y-99691599D01*
X162119014Y-99553706D01*
X162345134Y-99368134D01*
X162530706Y-99142014D01*
X162560000Y-99087208D01*
X162589295Y-99142014D01*
X162774867Y-99368134D01*
X163000987Y-99553706D01*
X163258967Y-99691599D01*
X163538890Y-99776513D01*
X163830000Y-99805185D01*
X164121111Y-99776513D01*
X164401034Y-99691599D01*
X164659014Y-99553706D01*
X164885134Y-99368134D01*
X165070706Y-99142014D01*
X165100000Y-99087208D01*
X165129295Y-99142014D01*
X165314867Y-99368134D01*
X165540987Y-99553706D01*
X165798967Y-99691599D01*
X166078890Y-99776513D01*
X166370000Y-99805185D01*
X166661111Y-99776513D01*
X166941034Y-99691599D01*
X167199014Y-99553706D01*
X167425134Y-99368134D01*
X167610706Y-99142014D01*
X167640000Y-99087208D01*
X167669295Y-99142014D01*
X167854867Y-99368134D01*
X168080987Y-99553706D01*
X168338967Y-99691599D01*
X168618890Y-99776513D01*
X168910000Y-99805185D01*
X169201111Y-99776513D01*
X169481034Y-99691599D01*
X169739014Y-99553706D01*
X169965134Y-99368134D01*
X170150706Y-99142014D01*
X170180000Y-99087208D01*
X170209295Y-99142014D01*
X170394867Y-99368134D01*
X170620987Y-99553706D01*
X170878967Y-99691599D01*
X171158890Y-99776513D01*
X171450000Y-99805185D01*
X171741111Y-99776513D01*
X172021034Y-99691599D01*
X172279014Y-99553706D01*
X172505134Y-99368134D01*
X172690706Y-99142014D01*
X172720000Y-99087208D01*
X172749295Y-99142014D01*
X172934867Y-99368134D01*
X173160987Y-99553706D01*
X173418967Y-99691599D01*
X173433147Y-99695901D01*
X172877792Y-99860548D01*
X172209330Y-100212445D01*
X172168912Y-100239452D01*
X171808724Y-100729119D01*
X174330000Y-103250395D01*
X176851276Y-100729119D01*
X176491088Y-100239452D01*
X175827118Y-99879151D01*
X175105615Y-99655306D01*
X174707115Y-99613517D01*
X174819014Y-99553706D01*
X175045134Y-99368134D01*
X175230706Y-99142014D01*
X175368599Y-98884034D01*
X175453513Y-98604111D01*
X175475000Y-98385950D01*
X175475000Y-96940050D01*
X175453513Y-96721889D01*
X175368599Y-96441966D01*
X175230706Y-96183986D01*
X175045134Y-95957866D01*
X174819013Y-95772294D01*
X174561033Y-95634401D01*
X174281110Y-95549487D01*
X173990000Y-95520815D01*
X173698889Y-95549487D01*
X173418966Y-95634401D01*
X173160986Y-95772294D01*
X172934866Y-95957866D01*
X172749294Y-96183987D01*
X172720000Y-96238792D01*
X172690706Y-96183986D01*
X172505134Y-95957866D01*
X172435000Y-95900309D01*
X172435000Y-95576586D01*
X172445226Y-95551898D01*
X172485000Y-95351939D01*
X172485000Y-95148061D01*
X172445226Y-94948102D01*
X172435000Y-94923414D01*
X172435000Y-87678380D01*
X172439765Y-87630000D01*
X172420747Y-87436906D01*
X172364424Y-87251233D01*
X172349665Y-87223621D01*
X172272960Y-87080116D01*
X172149870Y-86930130D01*
X172112290Y-86899289D01*
X168418824Y-83205824D01*
X168618889Y-83266513D01*
X168910000Y-83295185D01*
X169201110Y-83266513D01*
X169481033Y-83181599D01*
X169739013Y-83043706D01*
X169965134Y-82858134D01*
X170150706Y-82632014D01*
X170180000Y-82577208D01*
X170209294Y-82632013D01*
X170394866Y-82858134D01*
X170620986Y-83043706D01*
X170878966Y-83181599D01*
X171158889Y-83266513D01*
X171450000Y-83295185D01*
X171741110Y-83266513D01*
X172021033Y-83181599D01*
X172279013Y-83043706D01*
X172505134Y-82858134D01*
X172690706Y-82632014D01*
X172720000Y-82577208D01*
X172749294Y-82632013D01*
X172934866Y-82858134D01*
X173160986Y-83043706D01*
X173418966Y-83181599D01*
X173698889Y-83266513D01*
X173990000Y-83295185D01*
X174281110Y-83266513D01*
X174561033Y-83181599D01*
X174819013Y-83043706D01*
X175045134Y-82858134D01*
X175230706Y-82632014D01*
X175368599Y-82374034D01*
X175453513Y-82094111D01*
X175475000Y-81875950D01*
X175475000Y-80430050D01*
X175453513Y-80211889D01*
X175368599Y-79931966D01*
X175230706Y-79673986D01*
X175045134Y-79447866D01*
X174819014Y-79262294D01*
X174777356Y-79240027D01*
X175057938Y-79214178D01*
X175782208Y-78999452D01*
X176450670Y-78647555D01*
X176491088Y-78620548D01*
X176851276Y-78130881D01*
X174330000Y-75609605D01*
X171808724Y-78130881D01*
X172168912Y-78620548D01*
X172832882Y-78980849D01*
X173373653Y-79148622D01*
X173160987Y-79262294D01*
X172934867Y-79447866D01*
X172749295Y-79673986D01*
X172720000Y-79728792D01*
X172690706Y-79673986D01*
X172505134Y-79447866D01*
X172279014Y-79262294D01*
X172021034Y-79124401D01*
X171741111Y-79039487D01*
X171450000Y-79010815D01*
X171158890Y-79039487D01*
X170878967Y-79124401D01*
X170620987Y-79262294D01*
X170394867Y-79447866D01*
X170209295Y-79673986D01*
X170180000Y-79728792D01*
X170150706Y-79673986D01*
X169965134Y-79447866D01*
X169739014Y-79262294D01*
X169481034Y-79124401D01*
X169201111Y-79039487D01*
X168910000Y-79010815D01*
X168618890Y-79039487D01*
X168338967Y-79124401D01*
X168080987Y-79262294D01*
X167854867Y-79447866D01*
X167669295Y-79673986D01*
X167640000Y-79728792D01*
X167610706Y-79673986D01*
X167425134Y-79447866D01*
X167199014Y-79262294D01*
X166941034Y-79124401D01*
X166661111Y-79039487D01*
X166370000Y-79010815D01*
X166078890Y-79039487D01*
X165798967Y-79124401D01*
X165540987Y-79262294D01*
X165314867Y-79447866D01*
X165129295Y-79673986D01*
X165100000Y-79728792D01*
X165070706Y-79673986D01*
X164885134Y-79447866D01*
X164659014Y-79262294D01*
X164401034Y-79124401D01*
X164121111Y-79039487D01*
X163830000Y-79010815D01*
X163538890Y-79039487D01*
X163258967Y-79124401D01*
X163000987Y-79262294D01*
X162774867Y-79447866D01*
X162589295Y-79673986D01*
X162560000Y-79728792D01*
X162530706Y-79673986D01*
X162345134Y-79447866D01*
X162119014Y-79262294D01*
X161861034Y-79124401D01*
X161581111Y-79039487D01*
X161290000Y-79010815D01*
X160998890Y-79039487D01*
X160718967Y-79124401D01*
X160460987Y-79262294D01*
X160398433Y-79313631D01*
X158769000Y-77684199D01*
X158769000Y-77622061D01*
X158729226Y-77422102D01*
X158651205Y-77233744D01*
X158537937Y-77064226D01*
X158393774Y-76920063D01*
X158224256Y-76806795D01*
X158035898Y-76728774D01*
X157835939Y-76689000D01*
X157632061Y-76689000D01*
X157432102Y-76728774D01*
X157243744Y-76806795D01*
X157074226Y-76920063D01*
X156930063Y-77064226D01*
X156816795Y-77233744D01*
X156738774Y-77422102D01*
X156699000Y-77622061D01*
X156699000Y-77825939D01*
X156738774Y-78025898D01*
X156816795Y-78214256D01*
X156930063Y-78383774D01*
X157074226Y-78527937D01*
X157243744Y-78641205D01*
X157432102Y-78719226D01*
X157632061Y-78759000D01*
X157694199Y-78759000D01*
X158101178Y-79165980D01*
X157920987Y-79262294D01*
X157694867Y-79447866D01*
X157509295Y-79673986D01*
X157480000Y-79728792D01*
X157450706Y-79673986D01*
X157265134Y-79447866D01*
X157039014Y-79262294D01*
X156781034Y-79124401D01*
X156501111Y-79039487D01*
X156210000Y-79010815D01*
X155918890Y-79039487D01*
X155638967Y-79124401D01*
X155380987Y-79262294D01*
X155154867Y-79447866D01*
X154969295Y-79673986D01*
X154940000Y-79728792D01*
X154910706Y-79673986D01*
X154725134Y-79447866D01*
X154499014Y-79262294D01*
X154241034Y-79124401D01*
X153961111Y-79039487D01*
X153670000Y-79010815D01*
X153378890Y-79039487D01*
X153098967Y-79124401D01*
X152840987Y-79262294D01*
X152614867Y-79447866D01*
X152429295Y-79673986D01*
X152400000Y-79728792D01*
X152370706Y-79673986D01*
X152185134Y-79447866D01*
X151959014Y-79262294D01*
X151701034Y-79124401D01*
X151421111Y-79039487D01*
X151130000Y-79010815D01*
X150838890Y-79039487D01*
X150558967Y-79124401D01*
X150300987Y-79262294D01*
X150074867Y-79447866D01*
X149889295Y-79673986D01*
X149860000Y-79728792D01*
X149830706Y-79673986D01*
X149645134Y-79447866D01*
X149419014Y-79262294D01*
X149161034Y-79124401D01*
X148881111Y-79039487D01*
X148590000Y-79010815D01*
X148298890Y-79039487D01*
X148018967Y-79124401D01*
X147760987Y-79262294D01*
X147534867Y-79447866D01*
X147349295Y-79673986D01*
X147318105Y-79732338D01*
X147214176Y-79572381D01*
X147010252Y-79363143D01*
X146769426Y-79197709D01*
X146500953Y-79082437D01*
X146406890Y-79061524D01*
X146177000Y-79182845D01*
X146177000Y-81026000D01*
X146197000Y-81026000D01*
X146197000Y-81280000D01*
X146177000Y-81280000D01*
X146177000Y-83123155D01*
X146406890Y-83244476D01*
X146500953Y-83223563D01*
X146769426Y-83108291D01*
X147010252Y-82942857D01*
X147214176Y-82733619D01*
X147318105Y-82573662D01*
X147349294Y-82632013D01*
X147534866Y-82858134D01*
X147760986Y-83043706D01*
X148018966Y-83181599D01*
X148298889Y-83266513D01*
X148590000Y-83295185D01*
X148881110Y-83266513D01*
X149161033Y-83181599D01*
X149419013Y-83043706D01*
X149645134Y-82858134D01*
X149830706Y-82632014D01*
X149860000Y-82577208D01*
X149889294Y-82632013D01*
X150074866Y-82858134D01*
X150300986Y-83043706D01*
X150558966Y-83181599D01*
X150838889Y-83266513D01*
X151130000Y-83295185D01*
X151421110Y-83266513D01*
X151701033Y-83181599D01*
X151959013Y-83043706D01*
X152185134Y-82858134D01*
X152370706Y-82632014D01*
X152400000Y-82577208D01*
X152429294Y-82632013D01*
X152614866Y-82858134D01*
X152840986Y-83043706D01*
X153098966Y-83181599D01*
X153378889Y-83266513D01*
X153670000Y-83295185D01*
X153961110Y-83266513D01*
X154241033Y-83181599D01*
X154499013Y-83043706D01*
X154725134Y-82858134D01*
X154910706Y-82632014D01*
X154940000Y-82577208D01*
X154969294Y-82632013D01*
X155154866Y-82858134D01*
X155380986Y-83043706D01*
X155638966Y-83181599D01*
X155918889Y-83266513D01*
X156210000Y-83295185D01*
X156501110Y-83266513D01*
X156688571Y-83209647D01*
X153060998Y-86837221D01*
X153032000Y-86861019D01*
X153008202Y-86890017D01*
X153008201Y-86890018D01*
X152937026Y-86976744D01*
X152866454Y-87108774D01*
X152840474Y-87194423D01*
X152822998Y-87252034D01*
X152814113Y-87342241D01*
X152808324Y-87401020D01*
X152812001Y-87438352D01*
X152812000Y-95796082D01*
X152614866Y-95957866D01*
X152429294Y-96183987D01*
X152400000Y-96238792D01*
X152370706Y-96183986D01*
X152185134Y-95957866D01*
X151959013Y-95772294D01*
X151701033Y-95634401D01*
X151421110Y-95549487D01*
X151130000Y-95520815D01*
X150838889Y-95549487D01*
X150558966Y-95634401D01*
X150300986Y-95772294D01*
X150074866Y-95957866D01*
X149889294Y-96183987D01*
X149860000Y-96238792D01*
X149830706Y-96183986D01*
X149645134Y-95957866D01*
X149419013Y-95772294D01*
X149161033Y-95634401D01*
X148881110Y-95549487D01*
X148590000Y-95520815D01*
X148298889Y-95549487D01*
X148018966Y-95634401D01*
X147760986Y-95772294D01*
X147534866Y-95957866D01*
X147349294Y-96183987D01*
X147320000Y-96238792D01*
X147290706Y-96183986D01*
X147105134Y-95957866D01*
X146879013Y-95772294D01*
X146621033Y-95634401D01*
X146341110Y-95549487D01*
X146050000Y-95520815D01*
X145758889Y-95549487D01*
X145478966Y-95634401D01*
X145220986Y-95772294D01*
X144994866Y-95957866D01*
X144809294Y-96183987D01*
X144780000Y-96238792D01*
X144750706Y-96183986D01*
X144565134Y-95957866D01*
X144339013Y-95772294D01*
X144081033Y-95634401D01*
X143801110Y-95549487D01*
X143510000Y-95520815D01*
X143218889Y-95549487D01*
X142938966Y-95634401D01*
X142680986Y-95772294D01*
X142454866Y-95957866D01*
X142269294Y-96183987D01*
X142238105Y-96242338D01*
X142134176Y-96082381D01*
X141930252Y-95873143D01*
X141689426Y-95707709D01*
X141420953Y-95592437D01*
X141326890Y-95571524D01*
X141097000Y-95692845D01*
X141097000Y-97536000D01*
X141117000Y-97536000D01*
X141117000Y-97790000D01*
X141097000Y-97790000D01*
X141097000Y-97810000D01*
X140843000Y-97810000D01*
X140843000Y-97790000D01*
X140823000Y-97790000D01*
X140823000Y-97536000D01*
X140843000Y-97536000D01*
X140843000Y-95692845D01*
X140613110Y-95571524D01*
X140519047Y-95592437D01*
X140250574Y-95707709D01*
X140157131Y-95771899D01*
X140091490Y-95649093D01*
X140022332Y-95545591D01*
X139897969Y-95394054D01*
X139809946Y-95306031D01*
X139658409Y-95181668D01*
X139554907Y-95112510D01*
X139382020Y-95020100D01*
X139267012Y-94972462D01*
X139079419Y-94915557D01*
X138957332Y-94891273D01*
X138762242Y-94872058D01*
X138700000Y-94869000D01*
X137906000Y-94869000D01*
X137843758Y-94872058D01*
X137648668Y-94891273D01*
X137526581Y-94915557D01*
X137338988Y-94972462D01*
X137223980Y-95020100D01*
X137051093Y-95112510D01*
X136947591Y-95181668D01*
X136796054Y-95306031D01*
X136708031Y-95394054D01*
X136583668Y-95545591D01*
X136514510Y-95649093D01*
X136422100Y-95821980D01*
X136374462Y-95936988D01*
X136317557Y-96124581D01*
X136293273Y-96246668D01*
X136274058Y-96441758D01*
X136271000Y-96504000D01*
X136271000Y-100600000D01*
X136274058Y-100662242D01*
X136293273Y-100857332D01*
X136317557Y-100979419D01*
X136374462Y-101167012D01*
X136397407Y-101222407D01*
X135401499Y-100226499D01*
X135401499Y-90554320D01*
X135533774Y-90465937D01*
X135677937Y-90321774D01*
X135791205Y-90152256D01*
X135869226Y-89963898D01*
X135909000Y-89763939D01*
X135909000Y-89560061D01*
X135869226Y-89360102D01*
X135791205Y-89171744D01*
X135677937Y-89002226D01*
X135533774Y-88858063D01*
X135364256Y-88744795D01*
X135339571Y-88734570D01*
X128492716Y-81887716D01*
X128461870Y-81850130D01*
X128311884Y-81727040D01*
X128140767Y-81635576D01*
X127955094Y-81579253D01*
X127810380Y-81565000D01*
X127762000Y-81560235D01*
X127713620Y-81565000D01*
X123050072Y-81565000D01*
X123050072Y-81550000D01*
X123037812Y-81425518D01*
X123001502Y-81305820D01*
X122942537Y-81195506D01*
X122863185Y-81098815D01*
X122766494Y-81019463D01*
X122656180Y-80960498D01*
X122536482Y-80924188D01*
X122412000Y-80911928D01*
X120412000Y-80911928D01*
X120287518Y-80924188D01*
X120167820Y-80960498D01*
X120057506Y-81019463D01*
X119990000Y-81074864D01*
X119990000Y-80430050D01*
X136945000Y-80430050D01*
X136945000Y-81875949D01*
X136966487Y-82094110D01*
X137051401Y-82374033D01*
X137189294Y-82632013D01*
X137374866Y-82858134D01*
X137600986Y-83043706D01*
X137858966Y-83181599D01*
X138138889Y-83266513D01*
X138430000Y-83295185D01*
X138721110Y-83266513D01*
X139001033Y-83181599D01*
X139259013Y-83043706D01*
X139485134Y-82858134D01*
X139670706Y-82632014D01*
X139700000Y-82577208D01*
X139729294Y-82632013D01*
X139914866Y-82858134D01*
X140140986Y-83043706D01*
X140398966Y-83181599D01*
X140678889Y-83266513D01*
X140970000Y-83295185D01*
X141261110Y-83266513D01*
X141541033Y-83181599D01*
X141799013Y-83043706D01*
X142025134Y-82858134D01*
X142210706Y-82632014D01*
X142240000Y-82577208D01*
X142269294Y-82632013D01*
X142454866Y-82858134D01*
X142680986Y-83043706D01*
X142938966Y-83181599D01*
X143218889Y-83266513D01*
X143510000Y-83295185D01*
X143801110Y-83266513D01*
X144081033Y-83181599D01*
X144339013Y-83043706D01*
X144565134Y-82858134D01*
X144750706Y-82632014D01*
X144781895Y-82573663D01*
X144885824Y-82733619D01*
X145089748Y-82942857D01*
X145330574Y-83108291D01*
X145599047Y-83223563D01*
X145693110Y-83244476D01*
X145923000Y-83123155D01*
X145923000Y-81280000D01*
X145903000Y-81280000D01*
X145903000Y-81026000D01*
X145923000Y-81026000D01*
X145923000Y-79182845D01*
X145693110Y-79061524D01*
X145599047Y-79082437D01*
X145330574Y-79197709D01*
X145089748Y-79363143D01*
X144885824Y-79572381D01*
X144781895Y-79732337D01*
X144750706Y-79673986D01*
X144565134Y-79447866D01*
X144339014Y-79262294D01*
X144081034Y-79124401D01*
X143801111Y-79039487D01*
X143510000Y-79010815D01*
X143218890Y-79039487D01*
X142938967Y-79124401D01*
X142680987Y-79262294D01*
X142454867Y-79447866D01*
X142269295Y-79673986D01*
X142240000Y-79728792D01*
X142210706Y-79673986D01*
X142025134Y-79447866D01*
X141799014Y-79262294D01*
X141541034Y-79124401D01*
X141261111Y-79039487D01*
X140970000Y-79010815D01*
X140678890Y-79039487D01*
X140398967Y-79124401D01*
X140140987Y-79262294D01*
X139914867Y-79447866D01*
X139729295Y-79673986D01*
X139700000Y-79728792D01*
X139670706Y-79673986D01*
X139485134Y-79447866D01*
X139259014Y-79262294D01*
X139001034Y-79124401D01*
X138721111Y-79039487D01*
X138430000Y-79010815D01*
X138138890Y-79039487D01*
X137858967Y-79124401D01*
X137600987Y-79262294D01*
X137374867Y-79447866D01*
X137189295Y-79673986D01*
X137051401Y-79931966D01*
X136966487Y-80211889D01*
X136945000Y-80430050D01*
X119990000Y-80430050D01*
X119990000Y-78130881D01*
X120808724Y-78130881D01*
X121168912Y-78620548D01*
X121832882Y-78980849D01*
X122554385Y-79204694D01*
X123305695Y-79283480D01*
X124057938Y-79214178D01*
X124782208Y-78999452D01*
X125450670Y-78647555D01*
X125491088Y-78620548D01*
X125851276Y-78130881D01*
X123330000Y-75609605D01*
X120808724Y-78130881D01*
X119990000Y-78130881D01*
X119990000Y-77318074D01*
X120112445Y-77550670D01*
X120139452Y-77591088D01*
X120629119Y-77951276D01*
X123150395Y-75430000D01*
X123509605Y-75430000D01*
X126030881Y-77951276D01*
X126520548Y-77591088D01*
X126880849Y-76927118D01*
X127104694Y-76205615D01*
X127183480Y-75454305D01*
X127166685Y-75272000D01*
X144561928Y-75272000D01*
X144574188Y-75396482D01*
X144610498Y-75516180D01*
X144669463Y-75626494D01*
X144748815Y-75723185D01*
X144845506Y-75802537D01*
X144955820Y-75861502D01*
X145075518Y-75897812D01*
X145200000Y-75910072D01*
X145764250Y-75907000D01*
X145923000Y-75748250D01*
X145923000Y-74549000D01*
X144723750Y-74549000D01*
X144565000Y-74707750D01*
X144561928Y-75272000D01*
X127166685Y-75272000D01*
X127114178Y-74702062D01*
X126899452Y-73977792D01*
X126685832Y-73572000D01*
X144561928Y-73572000D01*
X144565000Y-74136250D01*
X144723750Y-74295000D01*
X145923000Y-74295000D01*
X145923000Y-73095750D01*
X146177000Y-73095750D01*
X146177000Y-74295000D01*
X146197000Y-74295000D01*
X146197000Y-74549000D01*
X146177000Y-74549000D01*
X146177000Y-75748250D01*
X146335750Y-75907000D01*
X146900000Y-75910072D01*
X147024482Y-75897812D01*
X147144180Y-75861502D01*
X147254494Y-75802537D01*
X147351185Y-75723185D01*
X147430537Y-75626494D01*
X147489502Y-75516180D01*
X147511513Y-75443620D01*
X147643368Y-75575475D01*
X147886589Y-75737990D01*
X148156842Y-75849932D01*
X148443740Y-75907000D01*
X148736260Y-75907000D01*
X149023158Y-75849932D01*
X149293411Y-75737990D01*
X149536632Y-75575475D01*
X149743475Y-75368632D01*
X149860000Y-75194240D01*
X149976525Y-75368632D01*
X150183368Y-75575475D01*
X150426589Y-75737990D01*
X150696842Y-75849932D01*
X150983740Y-75907000D01*
X151276260Y-75907000D01*
X151563158Y-75849932D01*
X151833411Y-75737990D01*
X152076632Y-75575475D01*
X152283475Y-75368632D01*
X152400000Y-75194240D01*
X152516525Y-75368632D01*
X152723368Y-75575475D01*
X152966589Y-75737990D01*
X153236842Y-75849932D01*
X153523740Y-75907000D01*
X153816260Y-75907000D01*
X154103158Y-75849932D01*
X154373411Y-75737990D01*
X154616632Y-75575475D01*
X154823475Y-75368632D01*
X154985990Y-75125411D01*
X155097932Y-74855158D01*
X155155000Y-74568260D01*
X155155000Y-74275740D01*
X155097932Y-73988842D01*
X154985990Y-73718589D01*
X154823475Y-73475368D01*
X154770107Y-73422000D01*
X157111928Y-73422000D01*
X157111928Y-75422000D01*
X157124188Y-75546482D01*
X157160498Y-75666180D01*
X157219463Y-75776494D01*
X157298815Y-75873185D01*
X157395506Y-75952537D01*
X157505820Y-76011502D01*
X157625518Y-76047812D01*
X157750000Y-76060072D01*
X159750000Y-76060072D01*
X159874482Y-76047812D01*
X159994180Y-76011502D01*
X160104494Y-75952537D01*
X160201185Y-75873185D01*
X160280537Y-75776494D01*
X160339502Y-75666180D01*
X160375812Y-75546482D01*
X160388072Y-75422000D01*
X160388072Y-73422000D01*
X166255928Y-73422000D01*
X166255928Y-75422000D01*
X166268188Y-75546482D01*
X166304498Y-75666180D01*
X166363463Y-75776494D01*
X166442815Y-75873185D01*
X166539506Y-75952537D01*
X166649820Y-76011502D01*
X166769518Y-76047812D01*
X166894000Y-76060072D01*
X168894000Y-76060072D01*
X169018482Y-76047812D01*
X169138180Y-76011502D01*
X169248494Y-75952537D01*
X169345185Y-75873185D01*
X169424537Y-75776494D01*
X169483502Y-75666180D01*
X169519812Y-75546482D01*
X169532072Y-75422000D01*
X169532072Y-75405695D01*
X170476520Y-75405695D01*
X170545822Y-76157938D01*
X170760548Y-76882208D01*
X171112445Y-77550670D01*
X171139452Y-77591088D01*
X171629119Y-77951276D01*
X174150395Y-75430000D01*
X171629119Y-72908724D01*
X171139452Y-73268912D01*
X170779151Y-73932882D01*
X170555306Y-74654385D01*
X170476520Y-75405695D01*
X169532072Y-75405695D01*
X169532072Y-73422000D01*
X169519812Y-73297518D01*
X169483502Y-73177820D01*
X169424537Y-73067506D01*
X169345185Y-72970815D01*
X169248494Y-72891463D01*
X169138180Y-72832498D01*
X169018482Y-72796188D01*
X168894000Y-72783928D01*
X166894000Y-72783928D01*
X166769518Y-72796188D01*
X166649820Y-72832498D01*
X166539506Y-72891463D01*
X166442815Y-72970815D01*
X166363463Y-73067506D01*
X166304498Y-73177820D01*
X166268188Y-73297518D01*
X166255928Y-73422000D01*
X160388072Y-73422000D01*
X160375812Y-73297518D01*
X160339502Y-73177820D01*
X160280537Y-73067506D01*
X160201185Y-72970815D01*
X160104494Y-72891463D01*
X159994180Y-72832498D01*
X159874482Y-72796188D01*
X159750000Y-72783928D01*
X157750000Y-72783928D01*
X157625518Y-72796188D01*
X157505820Y-72832498D01*
X157395506Y-72891463D01*
X157298815Y-72970815D01*
X157219463Y-73067506D01*
X157160498Y-73177820D01*
X157124188Y-73297518D01*
X157111928Y-73422000D01*
X154770107Y-73422000D01*
X154616632Y-73268525D01*
X154373411Y-73106010D01*
X154103158Y-72994068D01*
X153816260Y-72937000D01*
X153523740Y-72937000D01*
X153236842Y-72994068D01*
X152966589Y-73106010D01*
X152723368Y-73268525D01*
X152516525Y-73475368D01*
X152400000Y-73649760D01*
X152283475Y-73475368D01*
X152076632Y-73268525D01*
X151833411Y-73106010D01*
X151563158Y-72994068D01*
X151276260Y-72937000D01*
X150983740Y-72937000D01*
X150696842Y-72994068D01*
X150426589Y-73106010D01*
X150183368Y-73268525D01*
X149976525Y-73475368D01*
X149860000Y-73649760D01*
X149743475Y-73475368D01*
X149536632Y-73268525D01*
X149293411Y-73106010D01*
X149023158Y-72994068D01*
X148736260Y-72937000D01*
X148443740Y-72937000D01*
X148156842Y-72994068D01*
X147886589Y-73106010D01*
X147643368Y-73268525D01*
X147511513Y-73400380D01*
X147489502Y-73327820D01*
X147430537Y-73217506D01*
X147351185Y-73120815D01*
X147254494Y-73041463D01*
X147144180Y-72982498D01*
X147024482Y-72946188D01*
X146900000Y-72933928D01*
X146335750Y-72937000D01*
X146177000Y-73095750D01*
X145923000Y-73095750D01*
X145764250Y-72937000D01*
X145200000Y-72933928D01*
X145075518Y-72946188D01*
X144955820Y-72982498D01*
X144845506Y-73041463D01*
X144748815Y-73120815D01*
X144669463Y-73217506D01*
X144610498Y-73327820D01*
X144574188Y-73447518D01*
X144561928Y-73572000D01*
X126685832Y-73572000D01*
X126547555Y-73309330D01*
X126520548Y-73268912D01*
X126030881Y-72908724D01*
X123509605Y-75430000D01*
X123150395Y-75430000D01*
X123136253Y-75415858D01*
X123315858Y-75236253D01*
X123330000Y-75250395D01*
X125851276Y-72729119D01*
X125491088Y-72239452D01*
X125215675Y-72090000D01*
X172441926Y-72090000D01*
X172209330Y-72212445D01*
G37*
X172209330Y-72212445D02*
X172168912Y-72239452D01*
X171808724Y-72729119D01*
X174330000Y-75250395D01*
X174344143Y-75236253D01*
X174523748Y-75415858D01*
X174509605Y-75430000D01*
X177030881Y-77951276D01*
X177520548Y-77591088D01*
X177670001Y-77315673D01*
X177670000Y-101541926D01*
X177547555Y-101309330D01*
X177520548Y-101268912D01*
X177030881Y-100908724D01*
X174509605Y-103430000D01*
X174523748Y-103444143D01*
X174344143Y-103623748D01*
X174330000Y-103609605D01*
X171808724Y-106130881D01*
X172168912Y-106620548D01*
X172444325Y-106770000D01*
X125218074Y-106770000D01*
X125450670Y-106647555D01*
X125491088Y-106620548D01*
X125851276Y-106130881D01*
X123330000Y-103609605D01*
X123315858Y-103623748D01*
X123136253Y-103444143D01*
X123150395Y-103430000D01*
X123509605Y-103430000D01*
X126030881Y-105951276D01*
X126520548Y-105591088D01*
X126880849Y-104927118D01*
X127104694Y-104205615D01*
X127183480Y-103454305D01*
X127114178Y-102702062D01*
X126899452Y-101977792D01*
X126547555Y-101309330D01*
X126520548Y-101268912D01*
X126030881Y-100908724D01*
X123509605Y-103430000D01*
X123150395Y-103430000D01*
X120629119Y-100908724D01*
X120139452Y-101268912D01*
X119990000Y-101544325D01*
X119990000Y-100729119D01*
X120808724Y-100729119D01*
X123330000Y-103250395D01*
X125851276Y-100729119D01*
X125491088Y-100239452D01*
X124827118Y-99879151D01*
X124105615Y-99655306D01*
X123354305Y-99576520D01*
X122602062Y-99645822D01*
X121877792Y-99860548D01*
X121209330Y-100212445D01*
X121168912Y-100239452D01*
X120808724Y-100729119D01*
X119990000Y-100729119D01*
X119990000Y-97995136D01*
X120057506Y-98050537D01*
X120167820Y-98109502D01*
X120287518Y-98145812D01*
X120412000Y-98158072D01*
X122412000Y-98158072D01*
X122536482Y-98145812D01*
X122656180Y-98109502D01*
X122766494Y-98050537D01*
X122863185Y-97971185D01*
X122942537Y-97874494D01*
X123001502Y-97764180D01*
X123037812Y-97644482D01*
X123050072Y-97520000D01*
X123050072Y-95520000D01*
X123037812Y-95395518D01*
X123001502Y-95275820D01*
X122942537Y-95165506D01*
X122863185Y-95068815D01*
X122766494Y-94989463D01*
X122656180Y-94930498D01*
X122536482Y-94894188D01*
X122412000Y-94881928D01*
X120412000Y-94881928D01*
X120287518Y-94894188D01*
X120167820Y-94930498D01*
X120057506Y-94989463D01*
X119990000Y-95044864D01*
X119990000Y-94177492D01*
X120166504Y-94251493D01*
X120405000Y-94300000D01*
X121005000Y-94300000D01*
X121005000Y-93192000D01*
X121259000Y-93192000D01*
X121259000Y-94300000D01*
X121859000Y-94300000D01*
X122097496Y-94251493D01*
X122321946Y-94157390D01*
X122523725Y-94021307D01*
X122695078Y-93848474D01*
X122829421Y-93645533D01*
X122921591Y-93420282D01*
X122925462Y-93382609D01*
X122800731Y-93192000D01*
X121259000Y-93192000D01*
X121005000Y-93192000D01*
X120985000Y-93192000D01*
X120985000Y-92938000D01*
X121005000Y-92938000D01*
X121005000Y-91830000D01*
X121259000Y-91830000D01*
X121259000Y-92938000D01*
X122522923Y-92938000D01*
X122580000Y-92950000D01*
X123105000Y-92950000D01*
X123105000Y-92748452D01*
X123125789Y-92750500D01*
X123195712Y-92750500D01*
X123200789Y-92751000D01*
X123337711Y-92751000D01*
X123359000Y-92748903D01*
X123359000Y-92950000D01*
X123884000Y-92950000D01*
X124107865Y-92902934D01*
X124318246Y-92813099D01*
X124507059Y-92683947D01*
X124667047Y-92520441D01*
X124792063Y-92328864D01*
X124875964Y-92095810D01*
X124750163Y-91917000D01*
X124258083Y-91917000D01*
X124258268Y-91915236D01*
X124264467Y-91852013D01*
X124264467Y-91824240D01*
X124267465Y-91796633D01*
X124267496Y-91787759D01*
X124267488Y-91785490D01*
X124264683Y-91757887D01*
X124264877Y-91730134D01*
X124264011Y-91721304D01*
X124257883Y-91663000D01*
X124750163Y-91663000D01*
X124875964Y-91484190D01*
X124792063Y-91251136D01*
X124667047Y-91059559D01*
X124507059Y-90896053D01*
X124318246Y-90766901D01*
X124107865Y-90677066D01*
X123884000Y-90630000D01*
X123359000Y-90630000D01*
X123359000Y-90831548D01*
X123338211Y-90829500D01*
X123268288Y-90829500D01*
X123263211Y-90829000D01*
X123126289Y-90829000D01*
X123105000Y-90831097D01*
X123105000Y-90630000D01*
X122580000Y-90630000D01*
X122356135Y-90677066D01*
X122145754Y-90766901D01*
X121956941Y-90896053D01*
X121796953Y-91059559D01*
X121671937Y-91251136D01*
X121588036Y-91484190D01*
X121713837Y-91663000D01*
X122205917Y-91663000D01*
X122205732Y-91664764D01*
X122199533Y-91727987D01*
X122199533Y-91755760D01*
X122196535Y-91783367D01*
X122196504Y-91792241D01*
X122196512Y-91794510D01*
X122199317Y-91822113D01*
X122199123Y-91849865D01*
X122199989Y-91858696D01*
X122206117Y-91917000D01*
X122189308Y-91917000D01*
X122097496Y-91878507D01*
X121859000Y-91830000D01*
X121259000Y-91830000D01*
X121005000Y-91830000D01*
X120405000Y-91830000D01*
X120166504Y-91878507D01*
X119990000Y-91952508D01*
X119990000Y-90068061D01*
X130791000Y-90068061D01*
X130791000Y-90271939D01*
X130830774Y-90471898D01*
X130908795Y-90660256D01*
X131022063Y-90829774D01*
X131066000Y-90873711D01*
X131066001Y-94704668D01*
X131062324Y-94742000D01*
X131066001Y-94779333D01*
X131066604Y-94785451D01*
X131045000Y-94894061D01*
X131045000Y-95097939D01*
X131084774Y-95297898D01*
X131162795Y-95486256D01*
X131276063Y-95655774D01*
X131420226Y-95799937D01*
X131589744Y-95913205D01*
X131778102Y-95991226D01*
X131978061Y-96031000D01*
X132181939Y-96031000D01*
X132381898Y-95991226D01*
X132570256Y-95913205D01*
X132739774Y-95799937D01*
X132883937Y-95655774D01*
X132997205Y-95486256D01*
X133075226Y-95297898D01*
X133115000Y-95097939D01*
X133115000Y-94894061D01*
X133075226Y-94694102D01*
X132997205Y-94505744D01*
X132883937Y-94336226D01*
X132739774Y-94192063D01*
X132586000Y-94089315D01*
X132586000Y-90873711D01*
X132629937Y-90829774D01*
X132743205Y-90660256D01*
X132821226Y-90471898D01*
X132861000Y-90271939D01*
X132861000Y-90068061D01*
X132821226Y-89868102D01*
X132743205Y-89679744D01*
X132629937Y-89510226D01*
X132485774Y-89366063D01*
X132316256Y-89252795D01*
X132127898Y-89174774D01*
X131927939Y-89135000D01*
X131724061Y-89135000D01*
X131524102Y-89174774D01*
X131335744Y-89252795D01*
X131166226Y-89366063D01*
X131022063Y-89510226D01*
X130908795Y-89679744D01*
X130830774Y-89868102D01*
X130791000Y-90068061D01*
X119990000Y-90068061D01*
X119990000Y-87177492D01*
X120166504Y-87251493D01*
X120405000Y-87300000D01*
X121005000Y-87300000D01*
X121005000Y-86192000D01*
X121259000Y-86192000D01*
X121259000Y-87300000D01*
X121859000Y-87300000D01*
X122097496Y-87251493D01*
X122189308Y-87213000D01*
X122205917Y-87213000D01*
X122205732Y-87214764D01*
X122199533Y-87277987D01*
X122199533Y-87305760D01*
X122196535Y-87333367D01*
X122196504Y-87342241D01*
X122196512Y-87344510D01*
X122199317Y-87372113D01*
X122199123Y-87399865D01*
X122199989Y-87408696D01*
X122206117Y-87467000D01*
X121713837Y-87467000D01*
X121588036Y-87645810D01*
X121671937Y-87878864D01*
X121796953Y-88070441D01*
X121956941Y-88233947D01*
X122145754Y-88363099D01*
X122356135Y-88452934D01*
X122580000Y-88500000D01*
X123105000Y-88500000D01*
X123105000Y-88298452D01*
X123125789Y-88300500D01*
X123195712Y-88300500D01*
X123200789Y-88301000D01*
X123337711Y-88301000D01*
X123359000Y-88298903D01*
X123359000Y-88500000D01*
X123884000Y-88500000D01*
X124107865Y-88452934D01*
X124318246Y-88363099D01*
X124507059Y-88233947D01*
X124667047Y-88070441D01*
X124792063Y-87878864D01*
X124875964Y-87645810D01*
X124750163Y-87467000D01*
X124258083Y-87467000D01*
X124258268Y-87465236D01*
X124264467Y-87402013D01*
X124264467Y-87374240D01*
X124267465Y-87346633D01*
X124267496Y-87337759D01*
X124267488Y-87335490D01*
X124264683Y-87307887D01*
X124264877Y-87280134D01*
X124264011Y-87271304D01*
X124257883Y-87213000D01*
X124750163Y-87213000D01*
X124875964Y-87034190D01*
X124792063Y-86801136D01*
X124667047Y-86609559D01*
X124507059Y-86446053D01*
X124318246Y-86316901D01*
X124107865Y-86227066D01*
X123884000Y-86180000D01*
X123359000Y-86180000D01*
X123359000Y-86381548D01*
X123338211Y-86379500D01*
X123268288Y-86379500D01*
X123263211Y-86379000D01*
X123126289Y-86379000D01*
X123105000Y-86381097D01*
X123105000Y-86180000D01*
X122580000Y-86180000D01*
X122522923Y-86192000D01*
X121259000Y-86192000D01*
X121005000Y-86192000D01*
X120985000Y-86192000D01*
X120985000Y-85938000D01*
X121005000Y-85938000D01*
X121005000Y-84830000D01*
X121259000Y-84830000D01*
X121259000Y-85938000D01*
X122800731Y-85938000D01*
X122925462Y-85747391D01*
X122921591Y-85709718D01*
X122829421Y-85484467D01*
X122695078Y-85281526D01*
X122523725Y-85108693D01*
X122321946Y-84972610D01*
X122097496Y-84878507D01*
X121859000Y-84830000D01*
X121259000Y-84830000D01*
X121005000Y-84830000D01*
X120405000Y-84830000D01*
X120166504Y-84878507D01*
X119990000Y-84952508D01*
X119990000Y-84025136D01*
X120057506Y-84080537D01*
X120167820Y-84139502D01*
X120287518Y-84175812D01*
X120412000Y-84188072D01*
X122412000Y-84188072D01*
X122536482Y-84175812D01*
X122656180Y-84139502D01*
X122766494Y-84080537D01*
X122863185Y-84001185D01*
X122942537Y-83904494D01*
X123001502Y-83794180D01*
X123037812Y-83674482D01*
X123050072Y-83550000D01*
X123050072Y-83535000D01*
X127354000Y-83535000D01*
X133522159Y-89703160D01*
X133502075Y-89740735D01*
X133445752Y-89926408D01*
X133426734Y-90119501D01*
X133431500Y-90167891D01*
X133431499Y-100586119D01*
X133426734Y-100634499D01*
X133431499Y-100682878D01*
X133445752Y-100827592D01*
X133502075Y-101013265D01*
X133593539Y-101184383D01*
X133716629Y-101334369D01*
X133754215Y-101365215D01*
X134821812Y-102432812D01*
X134694842Y-102458068D01*
X134424589Y-102570010D01*
X134181368Y-102732525D01*
X133974525Y-102939368D01*
X133858000Y-103113760D01*
X133741475Y-102939368D01*
X133534632Y-102732525D01*
X133291411Y-102570010D01*
X133021158Y-102458068D01*
X132734260Y-102401000D01*
X132441740Y-102401000D01*
X132154842Y-102458068D01*
X131884589Y-102570010D01*
X131641368Y-102732525D01*
X131434525Y-102939368D01*
X131272010Y-103182589D01*
X131160068Y-103452842D01*
X131103000Y-103739740D01*
X131103000Y-104032260D01*
X131160068Y-104319158D01*
X131272010Y-104589411D01*
X131434525Y-104832632D01*
X131641368Y-105039475D01*
X131884589Y-105201990D01*
X132154842Y-105313932D01*
X132441740Y-105371000D01*
X132734260Y-105371000D01*
X133021158Y-105313932D01*
X133291411Y-105201990D01*
X133534632Y-105039475D01*
X133741475Y-104832632D01*
X133858000Y-104658240D01*
X133974525Y-104832632D01*
X134181368Y-105039475D01*
X134424589Y-105201990D01*
X134694842Y-105313932D01*
X134981740Y-105371000D01*
X135274260Y-105371000D01*
X135561158Y-105313932D01*
X135831411Y-105201990D01*
X136074632Y-105039475D01*
X136206487Y-104907620D01*
X136228498Y-104980180D01*
X136287463Y-105090494D01*
X136366815Y-105187185D01*
X136463506Y-105266537D01*
X136573820Y-105325502D01*
X136693518Y-105361812D01*
X136818000Y-105374072D01*
X138518000Y-105374072D01*
X138642482Y-105361812D01*
X138762180Y-105325502D01*
X138872494Y-105266537D01*
X138969185Y-105187185D01*
X139048537Y-105090494D01*
X139107502Y-104980180D01*
X139143812Y-104860482D01*
X139156072Y-104736000D01*
X139156072Y-103405695D01*
X170476520Y-103405695D01*
X170545822Y-104157938D01*
X170760548Y-104882208D01*
X171112445Y-105550670D01*
X171139452Y-105591088D01*
X171629119Y-105951276D01*
X174150395Y-103430000D01*
X171629119Y-100908724D01*
X171139452Y-101268912D01*
X170779151Y-101932882D01*
X170555306Y-102654385D01*
X170476520Y-103405695D01*
X139156072Y-103405695D01*
X139156072Y-103036000D01*
X139143812Y-102911518D01*
X139107502Y-102791820D01*
X139048537Y-102681506D01*
X138969185Y-102584815D01*
X138872494Y-102505463D01*
X138762180Y-102446498D01*
X138642482Y-102410188D01*
X138518000Y-102397928D01*
X137572929Y-102397928D01*
X137283593Y-102108593D01*
X137338988Y-102131538D01*
X137526581Y-102188443D01*
X137648668Y-102212727D01*
X137843758Y-102231942D01*
X137906000Y-102235000D01*
X158004000Y-102235000D01*
X158066242Y-102231942D01*
X158261332Y-102212727D01*
X158383419Y-102188443D01*
X158571012Y-102131538D01*
X158686020Y-102083900D01*
X158858907Y-101991490D01*
X158962409Y-101922332D01*
X159113946Y-101797969D01*
X159201969Y-101709946D01*
X159326332Y-101558409D01*
X159395490Y-101454907D01*
X159487900Y-101282020D01*
X159535538Y-101167012D01*
X159592443Y-100979419D01*
X159616727Y-100857332D01*
X159635942Y-100662242D01*
X159639000Y-100600000D01*
X159639000Y-100568000D01*
X159635942Y-100505758D01*
X159616727Y-100310668D01*
X159592443Y-100188581D01*
X159535538Y-100000988D01*
X159487900Y-99885980D01*
X159395490Y-99713093D01*
X159365314Y-99667931D01*
X159579014Y-99553706D01*
X159805134Y-99368134D01*
X159990706Y-99142014D01*
X160020000Y-99087208D01*
X160049295Y-99142014D01*
X160234867Y-99368134D01*
X160460987Y-99553706D01*
X160718967Y-99691599D01*
X160998890Y-99776513D01*
X161290000Y-99805185D01*
X161581111Y-99776513D01*
X161861034Y-99691599D01*
X162119014Y-99553706D01*
X162345134Y-99368134D01*
X162530706Y-99142014D01*
X162560000Y-99087208D01*
X162589295Y-99142014D01*
X162774867Y-99368134D01*
X163000987Y-99553706D01*
X163258967Y-99691599D01*
X163538890Y-99776513D01*
X163830000Y-99805185D01*
X164121111Y-99776513D01*
X164401034Y-99691599D01*
X164659014Y-99553706D01*
X164885134Y-99368134D01*
X165070706Y-99142014D01*
X165100000Y-99087208D01*
X165129295Y-99142014D01*
X165314867Y-99368134D01*
X165540987Y-99553706D01*
X165798967Y-99691599D01*
X166078890Y-99776513D01*
X166370000Y-99805185D01*
X166661111Y-99776513D01*
X166941034Y-99691599D01*
X167199014Y-99553706D01*
X167425134Y-99368134D01*
X167610706Y-99142014D01*
X167640000Y-99087208D01*
X167669295Y-99142014D01*
X167854867Y-99368134D01*
X168080987Y-99553706D01*
X168338967Y-99691599D01*
X168618890Y-99776513D01*
X168910000Y-99805185D01*
X169201111Y-99776513D01*
X169481034Y-99691599D01*
X169739014Y-99553706D01*
X169965134Y-99368134D01*
X170150706Y-99142014D01*
X170180000Y-99087208D01*
X170209295Y-99142014D01*
X170394867Y-99368134D01*
X170620987Y-99553706D01*
X170878967Y-99691599D01*
X171158890Y-99776513D01*
X171450000Y-99805185D01*
X171741111Y-99776513D01*
X172021034Y-99691599D01*
X172279014Y-99553706D01*
X172505134Y-99368134D01*
X172690706Y-99142014D01*
X172720000Y-99087208D01*
X172749295Y-99142014D01*
X172934867Y-99368134D01*
X173160987Y-99553706D01*
X173418967Y-99691599D01*
X173433147Y-99695901D01*
X172877792Y-99860548D01*
X172209330Y-100212445D01*
X172168912Y-100239452D01*
X171808724Y-100729119D01*
X174330000Y-103250395D01*
X176851276Y-100729119D01*
X176491088Y-100239452D01*
X175827118Y-99879151D01*
X175105615Y-99655306D01*
X174707115Y-99613517D01*
X174819014Y-99553706D01*
X175045134Y-99368134D01*
X175230706Y-99142014D01*
X175368599Y-98884034D01*
X175453513Y-98604111D01*
X175475000Y-98385950D01*
X175475000Y-96940050D01*
X175453513Y-96721889D01*
X175368599Y-96441966D01*
X175230706Y-96183986D01*
X175045134Y-95957866D01*
X174819013Y-95772294D01*
X174561033Y-95634401D01*
X174281110Y-95549487D01*
X173990000Y-95520815D01*
X173698889Y-95549487D01*
X173418966Y-95634401D01*
X173160986Y-95772294D01*
X172934866Y-95957866D01*
X172749294Y-96183987D01*
X172720000Y-96238792D01*
X172690706Y-96183986D01*
X172505134Y-95957866D01*
X172435000Y-95900309D01*
X172435000Y-95576586D01*
X172445226Y-95551898D01*
X172485000Y-95351939D01*
X172485000Y-95148061D01*
X172445226Y-94948102D01*
X172435000Y-94923414D01*
X172435000Y-87678380D01*
X172439765Y-87630000D01*
X172420747Y-87436906D01*
X172364424Y-87251233D01*
X172349665Y-87223621D01*
X172272960Y-87080116D01*
X172149870Y-86930130D01*
X172112290Y-86899289D01*
X168418824Y-83205824D01*
X168618889Y-83266513D01*
X168910000Y-83295185D01*
X169201110Y-83266513D01*
X169481033Y-83181599D01*
X169739013Y-83043706D01*
X169965134Y-82858134D01*
X170150706Y-82632014D01*
X170180000Y-82577208D01*
X170209294Y-82632013D01*
X170394866Y-82858134D01*
X170620986Y-83043706D01*
X170878966Y-83181599D01*
X171158889Y-83266513D01*
X171450000Y-83295185D01*
X171741110Y-83266513D01*
X172021033Y-83181599D01*
X172279013Y-83043706D01*
X172505134Y-82858134D01*
X172690706Y-82632014D01*
X172720000Y-82577208D01*
X172749294Y-82632013D01*
X172934866Y-82858134D01*
X173160986Y-83043706D01*
X173418966Y-83181599D01*
X173698889Y-83266513D01*
X173990000Y-83295185D01*
X174281110Y-83266513D01*
X174561033Y-83181599D01*
X174819013Y-83043706D01*
X175045134Y-82858134D01*
X175230706Y-82632014D01*
X175368599Y-82374034D01*
X175453513Y-82094111D01*
X175475000Y-81875950D01*
X175475000Y-80430050D01*
X175453513Y-80211889D01*
X175368599Y-79931966D01*
X175230706Y-79673986D01*
X175045134Y-79447866D01*
X174819014Y-79262294D01*
X174777356Y-79240027D01*
X175057938Y-79214178D01*
X175782208Y-78999452D01*
X176450670Y-78647555D01*
X176491088Y-78620548D01*
X176851276Y-78130881D01*
X174330000Y-75609605D01*
X171808724Y-78130881D01*
X172168912Y-78620548D01*
X172832882Y-78980849D01*
X173373653Y-79148622D01*
X173160987Y-79262294D01*
X172934867Y-79447866D01*
X172749295Y-79673986D01*
X172720000Y-79728792D01*
X172690706Y-79673986D01*
X172505134Y-79447866D01*
X172279014Y-79262294D01*
X172021034Y-79124401D01*
X171741111Y-79039487D01*
X171450000Y-79010815D01*
X171158890Y-79039487D01*
X170878967Y-79124401D01*
X170620987Y-79262294D01*
X170394867Y-79447866D01*
X170209295Y-79673986D01*
X170180000Y-79728792D01*
X170150706Y-79673986D01*
X169965134Y-79447866D01*
X169739014Y-79262294D01*
X169481034Y-79124401D01*
X169201111Y-79039487D01*
X168910000Y-79010815D01*
X168618890Y-79039487D01*
X168338967Y-79124401D01*
X168080987Y-79262294D01*
X167854867Y-79447866D01*
X167669295Y-79673986D01*
X167640000Y-79728792D01*
X167610706Y-79673986D01*
X167425134Y-79447866D01*
X167199014Y-79262294D01*
X166941034Y-79124401D01*
X166661111Y-79039487D01*
X166370000Y-79010815D01*
X166078890Y-79039487D01*
X165798967Y-79124401D01*
X165540987Y-79262294D01*
X165314867Y-79447866D01*
X165129295Y-79673986D01*
X165100000Y-79728792D01*
X165070706Y-79673986D01*
X164885134Y-79447866D01*
X164659014Y-79262294D01*
X164401034Y-79124401D01*
X164121111Y-79039487D01*
X163830000Y-79010815D01*
X163538890Y-79039487D01*
X163258967Y-79124401D01*
X163000987Y-79262294D01*
X162774867Y-79447866D01*
X162589295Y-79673986D01*
X162560000Y-79728792D01*
X162530706Y-79673986D01*
X162345134Y-79447866D01*
X162119014Y-79262294D01*
X161861034Y-79124401D01*
X161581111Y-79039487D01*
X161290000Y-79010815D01*
X160998890Y-79039487D01*
X160718967Y-79124401D01*
X160460987Y-79262294D01*
X160398433Y-79313631D01*
X158769000Y-77684199D01*
X158769000Y-77622061D01*
X158729226Y-77422102D01*
X158651205Y-77233744D01*
X158537937Y-77064226D01*
X158393774Y-76920063D01*
X158224256Y-76806795D01*
X158035898Y-76728774D01*
X157835939Y-76689000D01*
X157632061Y-76689000D01*
X157432102Y-76728774D01*
X157243744Y-76806795D01*
X157074226Y-76920063D01*
X156930063Y-77064226D01*
X156816795Y-77233744D01*
X156738774Y-77422102D01*
X156699000Y-77622061D01*
X156699000Y-77825939D01*
X156738774Y-78025898D01*
X156816795Y-78214256D01*
X156930063Y-78383774D01*
X157074226Y-78527937D01*
X157243744Y-78641205D01*
X157432102Y-78719226D01*
X157632061Y-78759000D01*
X157694199Y-78759000D01*
X158101178Y-79165980D01*
X157920987Y-79262294D01*
X157694867Y-79447866D01*
X157509295Y-79673986D01*
X157480000Y-79728792D01*
X157450706Y-79673986D01*
X157265134Y-79447866D01*
X157039014Y-79262294D01*
X156781034Y-79124401D01*
X156501111Y-79039487D01*
X156210000Y-79010815D01*
X155918890Y-79039487D01*
X155638967Y-79124401D01*
X155380987Y-79262294D01*
X155154867Y-79447866D01*
X154969295Y-79673986D01*
X154940000Y-79728792D01*
X154910706Y-79673986D01*
X154725134Y-79447866D01*
X154499014Y-79262294D01*
X154241034Y-79124401D01*
X153961111Y-79039487D01*
X153670000Y-79010815D01*
X153378890Y-79039487D01*
X153098967Y-79124401D01*
X152840987Y-79262294D01*
X152614867Y-79447866D01*
X152429295Y-79673986D01*
X152400000Y-79728792D01*
X152370706Y-79673986D01*
X152185134Y-79447866D01*
X151959014Y-79262294D01*
X151701034Y-79124401D01*
X151421111Y-79039487D01*
X151130000Y-79010815D01*
X150838890Y-79039487D01*
X150558967Y-79124401D01*
X150300987Y-79262294D01*
X150074867Y-79447866D01*
X149889295Y-79673986D01*
X149860000Y-79728792D01*
X149830706Y-79673986D01*
X149645134Y-79447866D01*
X149419014Y-79262294D01*
X149161034Y-79124401D01*
X148881111Y-79039487D01*
X148590000Y-79010815D01*
X148298890Y-79039487D01*
X148018967Y-79124401D01*
X147760987Y-79262294D01*
X147534867Y-79447866D01*
X147349295Y-79673986D01*
X147318105Y-79732338D01*
X147214176Y-79572381D01*
X147010252Y-79363143D01*
X146769426Y-79197709D01*
X146500953Y-79082437D01*
X146406890Y-79061524D01*
X146177000Y-79182845D01*
X146177000Y-81026000D01*
X146197000Y-81026000D01*
X146197000Y-81280000D01*
X146177000Y-81280000D01*
X146177000Y-83123155D01*
X146406890Y-83244476D01*
X146500953Y-83223563D01*
X146769426Y-83108291D01*
X147010252Y-82942857D01*
X147214176Y-82733619D01*
X147318105Y-82573662D01*
X147349294Y-82632013D01*
X147534866Y-82858134D01*
X147760986Y-83043706D01*
X148018966Y-83181599D01*
X148298889Y-83266513D01*
X148590000Y-83295185D01*
X148881110Y-83266513D01*
X149161033Y-83181599D01*
X149419013Y-83043706D01*
X149645134Y-82858134D01*
X149830706Y-82632014D01*
X149860000Y-82577208D01*
X149889294Y-82632013D01*
X150074866Y-82858134D01*
X150300986Y-83043706D01*
X150558966Y-83181599D01*
X150838889Y-83266513D01*
X151130000Y-83295185D01*
X151421110Y-83266513D01*
X151701033Y-83181599D01*
X151959013Y-83043706D01*
X152185134Y-82858134D01*
X152370706Y-82632014D01*
X152400000Y-82577208D01*
X152429294Y-82632013D01*
X152614866Y-82858134D01*
X152840986Y-83043706D01*
X153098966Y-83181599D01*
X153378889Y-83266513D01*
X153670000Y-83295185D01*
X153961110Y-83266513D01*
X154241033Y-83181599D01*
X154499013Y-83043706D01*
X154725134Y-82858134D01*
X154910706Y-82632014D01*
X154940000Y-82577208D01*
X154969294Y-82632013D01*
X155154866Y-82858134D01*
X155380986Y-83043706D01*
X155638966Y-83181599D01*
X155918889Y-83266513D01*
X156210000Y-83295185D01*
X156501110Y-83266513D01*
X156688571Y-83209647D01*
X153060998Y-86837221D01*
X153032000Y-86861019D01*
X153008202Y-86890017D01*
X153008201Y-86890018D01*
X152937026Y-86976744D01*
X152866454Y-87108774D01*
X152840474Y-87194423D01*
X152822998Y-87252034D01*
X152814113Y-87342241D01*
X152808324Y-87401020D01*
X152812001Y-87438352D01*
X152812000Y-95796082D01*
X152614866Y-95957866D01*
X152429294Y-96183987D01*
X152400000Y-96238792D01*
X152370706Y-96183986D01*
X152185134Y-95957866D01*
X151959013Y-95772294D01*
X151701033Y-95634401D01*
X151421110Y-95549487D01*
X151130000Y-95520815D01*
X150838889Y-95549487D01*
X150558966Y-95634401D01*
X150300986Y-95772294D01*
X150074866Y-95957866D01*
X149889294Y-96183987D01*
X149860000Y-96238792D01*
X149830706Y-96183986D01*
X149645134Y-95957866D01*
X149419013Y-95772294D01*
X149161033Y-95634401D01*
X148881110Y-95549487D01*
X148590000Y-95520815D01*
X148298889Y-95549487D01*
X148018966Y-95634401D01*
X147760986Y-95772294D01*
X147534866Y-95957866D01*
X147349294Y-96183987D01*
X147320000Y-96238792D01*
X147290706Y-96183986D01*
X147105134Y-95957866D01*
X146879013Y-95772294D01*
X146621033Y-95634401D01*
X146341110Y-95549487D01*
X146050000Y-95520815D01*
X145758889Y-95549487D01*
X145478966Y-95634401D01*
X145220986Y-95772294D01*
X144994866Y-95957866D01*
X144809294Y-96183987D01*
X144780000Y-96238792D01*
X144750706Y-96183986D01*
X144565134Y-95957866D01*
X144339013Y-95772294D01*
X144081033Y-95634401D01*
X143801110Y-95549487D01*
X143510000Y-95520815D01*
X143218889Y-95549487D01*
X142938966Y-95634401D01*
X142680986Y-95772294D01*
X142454866Y-95957866D01*
X142269294Y-96183987D01*
X142238105Y-96242338D01*
X142134176Y-96082381D01*
X141930252Y-95873143D01*
X141689426Y-95707709D01*
X141420953Y-95592437D01*
X141326890Y-95571524D01*
X141097000Y-95692845D01*
X141097000Y-97536000D01*
X141117000Y-97536000D01*
X141117000Y-97790000D01*
X141097000Y-97790000D01*
X141097000Y-97810000D01*
X140843000Y-97810000D01*
X140843000Y-97790000D01*
X140823000Y-97790000D01*
X140823000Y-97536000D01*
X140843000Y-97536000D01*
X140843000Y-95692845D01*
X140613110Y-95571524D01*
X140519047Y-95592437D01*
X140250574Y-95707709D01*
X140157131Y-95771899D01*
X140091490Y-95649093D01*
X140022332Y-95545591D01*
X139897969Y-95394054D01*
X139809946Y-95306031D01*
X139658409Y-95181668D01*
X139554907Y-95112510D01*
X139382020Y-95020100D01*
X139267012Y-94972462D01*
X139079419Y-94915557D01*
X138957332Y-94891273D01*
X138762242Y-94872058D01*
X138700000Y-94869000D01*
X137906000Y-94869000D01*
X137843758Y-94872058D01*
X137648668Y-94891273D01*
X137526581Y-94915557D01*
X137338988Y-94972462D01*
X137223980Y-95020100D01*
X137051093Y-95112510D01*
X136947591Y-95181668D01*
X136796054Y-95306031D01*
X136708031Y-95394054D01*
X136583668Y-95545591D01*
X136514510Y-95649093D01*
X136422100Y-95821980D01*
X136374462Y-95936988D01*
X136317557Y-96124581D01*
X136293273Y-96246668D01*
X136274058Y-96441758D01*
X136271000Y-96504000D01*
X136271000Y-100600000D01*
X136274058Y-100662242D01*
X136293273Y-100857332D01*
X136317557Y-100979419D01*
X136374462Y-101167012D01*
X136397407Y-101222407D01*
X135401499Y-100226499D01*
X135401499Y-90554320D01*
X135533774Y-90465937D01*
X135677937Y-90321774D01*
X135791205Y-90152256D01*
X135869226Y-89963898D01*
X135909000Y-89763939D01*
X135909000Y-89560061D01*
X135869226Y-89360102D01*
X135791205Y-89171744D01*
X135677937Y-89002226D01*
X135533774Y-88858063D01*
X135364256Y-88744795D01*
X135339571Y-88734570D01*
X128492716Y-81887716D01*
X128461870Y-81850130D01*
X128311884Y-81727040D01*
X128140767Y-81635576D01*
X127955094Y-81579253D01*
X127810380Y-81565000D01*
X127762000Y-81560235D01*
X127713620Y-81565000D01*
X123050072Y-81565000D01*
X123050072Y-81550000D01*
X123037812Y-81425518D01*
X123001502Y-81305820D01*
X122942537Y-81195506D01*
X122863185Y-81098815D01*
X122766494Y-81019463D01*
X122656180Y-80960498D01*
X122536482Y-80924188D01*
X122412000Y-80911928D01*
X120412000Y-80911928D01*
X120287518Y-80924188D01*
X120167820Y-80960498D01*
X120057506Y-81019463D01*
X119990000Y-81074864D01*
X119990000Y-80430050D01*
X136945000Y-80430050D01*
X136945000Y-81875949D01*
X136966487Y-82094110D01*
X137051401Y-82374033D01*
X137189294Y-82632013D01*
X137374866Y-82858134D01*
X137600986Y-83043706D01*
X137858966Y-83181599D01*
X138138889Y-83266513D01*
X138430000Y-83295185D01*
X138721110Y-83266513D01*
X139001033Y-83181599D01*
X139259013Y-83043706D01*
X139485134Y-82858134D01*
X139670706Y-82632014D01*
X139700000Y-82577208D01*
X139729294Y-82632013D01*
X139914866Y-82858134D01*
X140140986Y-83043706D01*
X140398966Y-83181599D01*
X140678889Y-83266513D01*
X140970000Y-83295185D01*
X141261110Y-83266513D01*
X141541033Y-83181599D01*
X141799013Y-83043706D01*
X142025134Y-82858134D01*
X142210706Y-82632014D01*
X142240000Y-82577208D01*
X142269294Y-82632013D01*
X142454866Y-82858134D01*
X142680986Y-83043706D01*
X142938966Y-83181599D01*
X143218889Y-83266513D01*
X143510000Y-83295185D01*
X143801110Y-83266513D01*
X144081033Y-83181599D01*
X144339013Y-83043706D01*
X144565134Y-82858134D01*
X144750706Y-82632014D01*
X144781895Y-82573663D01*
X144885824Y-82733619D01*
X145089748Y-82942857D01*
X145330574Y-83108291D01*
X145599047Y-83223563D01*
X145693110Y-83244476D01*
X145923000Y-83123155D01*
X145923000Y-81280000D01*
X145903000Y-81280000D01*
X145903000Y-81026000D01*
X145923000Y-81026000D01*
X145923000Y-79182845D01*
X145693110Y-79061524D01*
X145599047Y-79082437D01*
X145330574Y-79197709D01*
X145089748Y-79363143D01*
X144885824Y-79572381D01*
X144781895Y-79732337D01*
X144750706Y-79673986D01*
X144565134Y-79447866D01*
X144339014Y-79262294D01*
X144081034Y-79124401D01*
X143801111Y-79039487D01*
X143510000Y-79010815D01*
X143218890Y-79039487D01*
X142938967Y-79124401D01*
X142680987Y-79262294D01*
X142454867Y-79447866D01*
X142269295Y-79673986D01*
X142240000Y-79728792D01*
X142210706Y-79673986D01*
X142025134Y-79447866D01*
X141799014Y-79262294D01*
X141541034Y-79124401D01*
X141261111Y-79039487D01*
X140970000Y-79010815D01*
X140678890Y-79039487D01*
X140398967Y-79124401D01*
X140140987Y-79262294D01*
X139914867Y-79447866D01*
X139729295Y-79673986D01*
X139700000Y-79728792D01*
X139670706Y-79673986D01*
X139485134Y-79447866D01*
X139259014Y-79262294D01*
X139001034Y-79124401D01*
X138721111Y-79039487D01*
X138430000Y-79010815D01*
X138138890Y-79039487D01*
X137858967Y-79124401D01*
X137600987Y-79262294D01*
X137374867Y-79447866D01*
X137189295Y-79673986D01*
X137051401Y-79931966D01*
X136966487Y-80211889D01*
X136945000Y-80430050D01*
X119990000Y-80430050D01*
X119990000Y-78130881D01*
X120808724Y-78130881D01*
X121168912Y-78620548D01*
X121832882Y-78980849D01*
X122554385Y-79204694D01*
X123305695Y-79283480D01*
X124057938Y-79214178D01*
X124782208Y-78999452D01*
X125450670Y-78647555D01*
X125491088Y-78620548D01*
X125851276Y-78130881D01*
X123330000Y-75609605D01*
X120808724Y-78130881D01*
X119990000Y-78130881D01*
X119990000Y-77318074D01*
X120112445Y-77550670D01*
X120139452Y-77591088D01*
X120629119Y-77951276D01*
X123150395Y-75430000D01*
X123509605Y-75430000D01*
X126030881Y-77951276D01*
X126520548Y-77591088D01*
X126880849Y-76927118D01*
X127104694Y-76205615D01*
X127183480Y-75454305D01*
X127166685Y-75272000D01*
X144561928Y-75272000D01*
X144574188Y-75396482D01*
X144610498Y-75516180D01*
X144669463Y-75626494D01*
X144748815Y-75723185D01*
X144845506Y-75802537D01*
X144955820Y-75861502D01*
X145075518Y-75897812D01*
X145200000Y-75910072D01*
X145764250Y-75907000D01*
X145923000Y-75748250D01*
X145923000Y-74549000D01*
X144723750Y-74549000D01*
X144565000Y-74707750D01*
X144561928Y-75272000D01*
X127166685Y-75272000D01*
X127114178Y-74702062D01*
X126899452Y-73977792D01*
X126685832Y-73572000D01*
X144561928Y-73572000D01*
X144565000Y-74136250D01*
X144723750Y-74295000D01*
X145923000Y-74295000D01*
X145923000Y-73095750D01*
X146177000Y-73095750D01*
X146177000Y-74295000D01*
X146197000Y-74295000D01*
X146197000Y-74549000D01*
X146177000Y-74549000D01*
X146177000Y-75748250D01*
X146335750Y-75907000D01*
X146900000Y-75910072D01*
X147024482Y-75897812D01*
X147144180Y-75861502D01*
X147254494Y-75802537D01*
X147351185Y-75723185D01*
X147430537Y-75626494D01*
X147489502Y-75516180D01*
X147511513Y-75443620D01*
X147643368Y-75575475D01*
X147886589Y-75737990D01*
X148156842Y-75849932D01*
X148443740Y-75907000D01*
X148736260Y-75907000D01*
X149023158Y-75849932D01*
X149293411Y-75737990D01*
X149536632Y-75575475D01*
X149743475Y-75368632D01*
X149860000Y-75194240D01*
X149976525Y-75368632D01*
X150183368Y-75575475D01*
X150426589Y-75737990D01*
X150696842Y-75849932D01*
X150983740Y-75907000D01*
X151276260Y-75907000D01*
X151563158Y-75849932D01*
X151833411Y-75737990D01*
X152076632Y-75575475D01*
X152283475Y-75368632D01*
X152400000Y-75194240D01*
X152516525Y-75368632D01*
X152723368Y-75575475D01*
X152966589Y-75737990D01*
X153236842Y-75849932D01*
X153523740Y-75907000D01*
X153816260Y-75907000D01*
X154103158Y-75849932D01*
X154373411Y-75737990D01*
X154616632Y-75575475D01*
X154823475Y-75368632D01*
X154985990Y-75125411D01*
X155097932Y-74855158D01*
X155155000Y-74568260D01*
X155155000Y-74275740D01*
X155097932Y-73988842D01*
X154985990Y-73718589D01*
X154823475Y-73475368D01*
X154770107Y-73422000D01*
X157111928Y-73422000D01*
X157111928Y-75422000D01*
X157124188Y-75546482D01*
X157160498Y-75666180D01*
X157219463Y-75776494D01*
X157298815Y-75873185D01*
X157395506Y-75952537D01*
X157505820Y-76011502D01*
X157625518Y-76047812D01*
X157750000Y-76060072D01*
X159750000Y-76060072D01*
X159874482Y-76047812D01*
X159994180Y-76011502D01*
X160104494Y-75952537D01*
X160201185Y-75873185D01*
X160280537Y-75776494D01*
X160339502Y-75666180D01*
X160375812Y-75546482D01*
X160388072Y-75422000D01*
X160388072Y-73422000D01*
X166255928Y-73422000D01*
X166255928Y-75422000D01*
X166268188Y-75546482D01*
X166304498Y-75666180D01*
X166363463Y-75776494D01*
X166442815Y-75873185D01*
X166539506Y-75952537D01*
X166649820Y-76011502D01*
X166769518Y-76047812D01*
X166894000Y-76060072D01*
X168894000Y-76060072D01*
X169018482Y-76047812D01*
X169138180Y-76011502D01*
X169248494Y-75952537D01*
X169345185Y-75873185D01*
X169424537Y-75776494D01*
X169483502Y-75666180D01*
X169519812Y-75546482D01*
X169532072Y-75422000D01*
X169532072Y-75405695D01*
X170476520Y-75405695D01*
X170545822Y-76157938D01*
X170760548Y-76882208D01*
X171112445Y-77550670D01*
X171139452Y-77591088D01*
X171629119Y-77951276D01*
X174150395Y-75430000D01*
X171629119Y-72908724D01*
X171139452Y-73268912D01*
X170779151Y-73932882D01*
X170555306Y-74654385D01*
X170476520Y-75405695D01*
X169532072Y-75405695D01*
X169532072Y-73422000D01*
X169519812Y-73297518D01*
X169483502Y-73177820D01*
X169424537Y-73067506D01*
X169345185Y-72970815D01*
X169248494Y-72891463D01*
X169138180Y-72832498D01*
X169018482Y-72796188D01*
X168894000Y-72783928D01*
X166894000Y-72783928D01*
X166769518Y-72796188D01*
X166649820Y-72832498D01*
X166539506Y-72891463D01*
X166442815Y-72970815D01*
X166363463Y-73067506D01*
X166304498Y-73177820D01*
X166268188Y-73297518D01*
X166255928Y-73422000D01*
X160388072Y-73422000D01*
X160375812Y-73297518D01*
X160339502Y-73177820D01*
X160280537Y-73067506D01*
X160201185Y-72970815D01*
X160104494Y-72891463D01*
X159994180Y-72832498D01*
X159874482Y-72796188D01*
X159750000Y-72783928D01*
X157750000Y-72783928D01*
X157625518Y-72796188D01*
X157505820Y-72832498D01*
X157395506Y-72891463D01*
X157298815Y-72970815D01*
X157219463Y-73067506D01*
X157160498Y-73177820D01*
X157124188Y-73297518D01*
X157111928Y-73422000D01*
X154770107Y-73422000D01*
X154616632Y-73268525D01*
X154373411Y-73106010D01*
X154103158Y-72994068D01*
X153816260Y-72937000D01*
X153523740Y-72937000D01*
X153236842Y-72994068D01*
X152966589Y-73106010D01*
X152723368Y-73268525D01*
X152516525Y-73475368D01*
X152400000Y-73649760D01*
X152283475Y-73475368D01*
X152076632Y-73268525D01*
X151833411Y-73106010D01*
X151563158Y-72994068D01*
X151276260Y-72937000D01*
X150983740Y-72937000D01*
X150696842Y-72994068D01*
X150426589Y-73106010D01*
X150183368Y-73268525D01*
X149976525Y-73475368D01*
X149860000Y-73649760D01*
X149743475Y-73475368D01*
X149536632Y-73268525D01*
X149293411Y-73106010D01*
X149023158Y-72994068D01*
X148736260Y-72937000D01*
X148443740Y-72937000D01*
X148156842Y-72994068D01*
X147886589Y-73106010D01*
X147643368Y-73268525D01*
X147511513Y-73400380D01*
X147489502Y-73327820D01*
X147430537Y-73217506D01*
X147351185Y-73120815D01*
X147254494Y-73041463D01*
X147144180Y-72982498D01*
X147024482Y-72946188D01*
X146900000Y-72933928D01*
X146335750Y-72937000D01*
X146177000Y-73095750D01*
X145923000Y-73095750D01*
X145764250Y-72937000D01*
X145200000Y-72933928D01*
X145075518Y-72946188D01*
X144955820Y-72982498D01*
X144845506Y-73041463D01*
X144748815Y-73120815D01*
X144669463Y-73217506D01*
X144610498Y-73327820D01*
X144574188Y-73447518D01*
X144561928Y-73572000D01*
X126685832Y-73572000D01*
X126547555Y-73309330D01*
X126520548Y-73268912D01*
X126030881Y-72908724D01*
X123509605Y-75430000D01*
X123150395Y-75430000D01*
X123136253Y-75415858D01*
X123315858Y-75236253D01*
X123330000Y-75250395D01*
X125851276Y-72729119D01*
X125491088Y-72239452D01*
X125215675Y-72090000D01*
X172441926Y-72090000D01*
X172209330Y-72212445D01*
G36*
X170465000Y-88038001D02*
G01*
X170465001Y-94923412D01*
X170454774Y-94948102D01*
X170415000Y-95148061D01*
X170415000Y-95351939D01*
X170454774Y-95551898D01*
X170465000Y-95576586D01*
X170465000Y-95900308D01*
X170394866Y-95957866D01*
X170209294Y-96183987D01*
X170180000Y-96238792D01*
X170150706Y-96183986D01*
X169965134Y-95957866D01*
X169739013Y-95772294D01*
X169481033Y-95634401D01*
X169201110Y-95549487D01*
X168910000Y-95520815D01*
X168618889Y-95549487D01*
X168338966Y-95634401D01*
X168080986Y-95772294D01*
X167854866Y-95957866D01*
X167669294Y-96183987D01*
X167640000Y-96238792D01*
X167610706Y-96183986D01*
X167425134Y-95957866D01*
X167199013Y-95772294D01*
X166941033Y-95634401D01*
X166661110Y-95549487D01*
X166370000Y-95520815D01*
X166078889Y-95549487D01*
X165798966Y-95634401D01*
X165540986Y-95772294D01*
X165314866Y-95957866D01*
X165129294Y-96183987D01*
X165100000Y-96238792D01*
X165070706Y-96183986D01*
X164885134Y-95957866D01*
X164659013Y-95772294D01*
X164401033Y-95634401D01*
X164121110Y-95549487D01*
X163830000Y-95520815D01*
X163538889Y-95549487D01*
X163258966Y-95634401D01*
X163000986Y-95772294D01*
X162774866Y-95957866D01*
X162589294Y-96183987D01*
X162560000Y-96238792D01*
X162530706Y-96183986D01*
X162345134Y-95957866D01*
X162119013Y-95772294D01*
X161861033Y-95634401D01*
X161581110Y-95549487D01*
X161290000Y-95520815D01*
X160998889Y-95549487D01*
X160718966Y-95634401D01*
X160460986Y-95772294D01*
X160234866Y-95957866D01*
X160049294Y-96183987D01*
X160020000Y-96238792D01*
X159990706Y-96183986D01*
X159805134Y-95957866D01*
X159579013Y-95772294D01*
X159321033Y-95634401D01*
X159041110Y-95549487D01*
X158750000Y-95520815D01*
X158458889Y-95549487D01*
X158178966Y-95634401D01*
X157920986Y-95772294D01*
X157694866Y-95957866D01*
X157509294Y-96183987D01*
X157480000Y-96238792D01*
X157450706Y-96183986D01*
X157265134Y-95957866D01*
X157039013Y-95772294D01*
X156872000Y-95683024D01*
X156872000Y-93884801D01*
X163869802Y-86887000D01*
X163931939Y-86887000D01*
X164131898Y-86847226D01*
X164320256Y-86769205D01*
X164489774Y-86655937D01*
X164633937Y-86511774D01*
X164747205Y-86342256D01*
X164825226Y-86153898D01*
X164865000Y-85953939D01*
X164865000Y-85750061D01*
X164825226Y-85550102D01*
X164747205Y-85361744D01*
X164633937Y-85192226D01*
X164492712Y-85051001D01*
X166623677Y-85051001D01*
X166660999Y-85054677D01*
X166698321Y-85051001D01*
X166698332Y-85051001D01*
X166809985Y-85040004D01*
X166953246Y-84996547D01*
X167085275Y-84925975D01*
X167201000Y-84831002D01*
X167224802Y-84801999D01*
X167226900Y-84799901D01*
X170465000Y-88038001D01*
G37*
X170465000Y-88038001D02*
X170465001Y-94923412D01*
X170454774Y-94948102D01*
X170415000Y-95148061D01*
X170415000Y-95351939D01*
X170454774Y-95551898D01*
X170465000Y-95576586D01*
X170465000Y-95900308D01*
X170394866Y-95957866D01*
X170209294Y-96183987D01*
X170180000Y-96238792D01*
X170150706Y-96183986D01*
X169965134Y-95957866D01*
X169739013Y-95772294D01*
X169481033Y-95634401D01*
X169201110Y-95549487D01*
X168910000Y-95520815D01*
X168618889Y-95549487D01*
X168338966Y-95634401D01*
X168080986Y-95772294D01*
X167854866Y-95957866D01*
X167669294Y-96183987D01*
X167640000Y-96238792D01*
X167610706Y-96183986D01*
X167425134Y-95957866D01*
X167199013Y-95772294D01*
X166941033Y-95634401D01*
X166661110Y-95549487D01*
X166370000Y-95520815D01*
X166078889Y-95549487D01*
X165798966Y-95634401D01*
X165540986Y-95772294D01*
X165314866Y-95957866D01*
X165129294Y-96183987D01*
X165100000Y-96238792D01*
X165070706Y-96183986D01*
X164885134Y-95957866D01*
X164659013Y-95772294D01*
X164401033Y-95634401D01*
X164121110Y-95549487D01*
X163830000Y-95520815D01*
X163538889Y-95549487D01*
X163258966Y-95634401D01*
X163000986Y-95772294D01*
X162774866Y-95957866D01*
X162589294Y-96183987D01*
X162560000Y-96238792D01*
X162530706Y-96183986D01*
X162345134Y-95957866D01*
X162119013Y-95772294D01*
X161861033Y-95634401D01*
X161581110Y-95549487D01*
X161290000Y-95520815D01*
X160998889Y-95549487D01*
X160718966Y-95634401D01*
X160460986Y-95772294D01*
X160234866Y-95957866D01*
X160049294Y-96183987D01*
X160020000Y-96238792D01*
X159990706Y-96183986D01*
X159805134Y-95957866D01*
X159579013Y-95772294D01*
X159321033Y-95634401D01*
X159041110Y-95549487D01*
X158750000Y-95520815D01*
X158458889Y-95549487D01*
X158178966Y-95634401D01*
X157920986Y-95772294D01*
X157694866Y-95957866D01*
X157509294Y-96183987D01*
X157480000Y-96238792D01*
X157450706Y-96183986D01*
X157265134Y-95957866D01*
X157039013Y-95772294D01*
X156872000Y-95683024D01*
X156872000Y-93884801D01*
X163869802Y-86887000D01*
X163931939Y-86887000D01*
X164131898Y-86847226D01*
X164320256Y-86769205D01*
X164489774Y-86655937D01*
X164633937Y-86511774D01*
X164747205Y-86342256D01*
X164825226Y-86153898D01*
X164865000Y-85953939D01*
X164865000Y-85750061D01*
X164825226Y-85550102D01*
X164747205Y-85361744D01*
X164633937Y-85192226D01*
X164492712Y-85051001D01*
X166623677Y-85051001D01*
X166660999Y-85054677D01*
X166698321Y-85051001D01*
X166698332Y-85051001D01*
X166809985Y-85040004D01*
X166953246Y-84996547D01*
X167085275Y-84925975D01*
X167201000Y-84831002D01*
X167224802Y-84801999D01*
X167226900Y-84799901D01*
X170465000Y-88038001D01*
G36*
X161552487Y-84802004D02*
G01*
X161576285Y-84831002D01*
X161605283Y-84854800D01*
X161692009Y-84925975D01*
X161824039Y-84996547D01*
X161967300Y-85040004D01*
X162078953Y-85051001D01*
X162078963Y-85051001D01*
X162116286Y-85054677D01*
X162153609Y-85051001D01*
X163167288Y-85051001D01*
X163026063Y-85192226D01*
X162912795Y-85361744D01*
X162834774Y-85550102D01*
X162795000Y-85750061D01*
X162795000Y-85812198D01*
X155600998Y-93006201D01*
X155572000Y-93029999D01*
X155548202Y-93058997D01*
X155548201Y-93058998D01*
X155477026Y-93145724D01*
X155406454Y-93277754D01*
X155362998Y-93421015D01*
X155348324Y-93570000D01*
X155352001Y-93607332D01*
X155352001Y-95796082D01*
X155154866Y-95957866D01*
X154969294Y-96183987D01*
X154940000Y-96238792D01*
X154910706Y-96183986D01*
X154725134Y-95957866D01*
X154499013Y-95772294D01*
X154332000Y-95683024D01*
X154332000Y-87715821D01*
X157639569Y-84408253D01*
X157751744Y-84483205D01*
X157940102Y-84561226D01*
X158140061Y-84601000D01*
X158343939Y-84601000D01*
X158543898Y-84561226D01*
X158732256Y-84483205D01*
X158901774Y-84369937D01*
X159045937Y-84225774D01*
X159159205Y-84056256D01*
X159237226Y-83867898D01*
X159277000Y-83667939D01*
X159277000Y-83464061D01*
X159237226Y-83264102D01*
X159216222Y-83213393D01*
X159321033Y-83181599D01*
X159579013Y-83043706D01*
X159697198Y-82946714D01*
X161552487Y-84802004D01*
G37*
X161552487Y-84802004D02*
X161576285Y-84831002D01*
X161605283Y-84854800D01*
X161692009Y-84925975D01*
X161824039Y-84996547D01*
X161967300Y-85040004D01*
X162078953Y-85051001D01*
X162078963Y-85051001D01*
X162116286Y-85054677D01*
X162153609Y-85051001D01*
X163167288Y-85051001D01*
X163026063Y-85192226D01*
X162912795Y-85361744D01*
X162834774Y-85550102D01*
X162795000Y-85750061D01*
X162795000Y-85812198D01*
X155600998Y-93006201D01*
X155572000Y-93029999D01*
X155548202Y-93058997D01*
X155548201Y-93058998D01*
X155477026Y-93145724D01*
X155406454Y-93277754D01*
X155362998Y-93421015D01*
X155348324Y-93570000D01*
X155352001Y-93607332D01*
X155352001Y-95796082D01*
X155154866Y-95957866D01*
X154969294Y-96183987D01*
X154940000Y-96238792D01*
X154910706Y-96183986D01*
X154725134Y-95957866D01*
X154499013Y-95772294D01*
X154332000Y-95683024D01*
X154332000Y-87715821D01*
X157639569Y-84408253D01*
X157751744Y-84483205D01*
X157940102Y-84561226D01*
X158140061Y-84601000D01*
X158343939Y-84601000D01*
X158543898Y-84561226D01*
X158732256Y-84483205D01*
X158901774Y-84369937D01*
X159045937Y-84225774D01*
X159159205Y-84056256D01*
X159237226Y-83867898D01*
X159277000Y-83667939D01*
X159277000Y-83464061D01*
X159237226Y-83264102D01*
X159216222Y-83213393D01*
X159321033Y-83181599D01*
X159579013Y-83043706D01*
X159697198Y-82946714D01*
X161552487Y-84802004D01*
G36*
X138870189Y-95648376D02*
G01*
X139033850Y-95698022D01*
X139184672Y-95778638D01*
X139316870Y-95887130D01*
X139425362Y-96019328D01*
X139505978Y-96170150D01*
X139555624Y-96333811D01*
X139572434Y-96504491D01*
X139506487Y-96721890D01*
X139485000Y-96940051D01*
X139485000Y-98385950D01*
X139506487Y-98604111D01*
X139591401Y-98884034D01*
X139729295Y-99142014D01*
X139743892Y-99159801D01*
X139756526Y-99183437D01*
X139770358Y-99204138D01*
X139894721Y-99355675D01*
X139912325Y-99373279D01*
X140063862Y-99497642D01*
X140084563Y-99511474D01*
X140098799Y-99519084D01*
X140140987Y-99553706D01*
X140398967Y-99691599D01*
X140678890Y-99776513D01*
X140970000Y-99805185D01*
X141261111Y-99776513D01*
X141529822Y-99695000D01*
X142950179Y-99695000D01*
X143218890Y-99776513D01*
X143510000Y-99805185D01*
X143801111Y-99776513D01*
X144069822Y-99695000D01*
X145490179Y-99695000D01*
X145758890Y-99776513D01*
X146050000Y-99805185D01*
X146341111Y-99776513D01*
X146609822Y-99695000D01*
X148030179Y-99695000D01*
X148298890Y-99776513D01*
X148590000Y-99805185D01*
X148881111Y-99776513D01*
X149149822Y-99695000D01*
X150570179Y-99695000D01*
X150838890Y-99776513D01*
X151130000Y-99805185D01*
X151421111Y-99776513D01*
X151689822Y-99695000D01*
X153110179Y-99695000D01*
X153378890Y-99776513D01*
X153670000Y-99805185D01*
X153961111Y-99776513D01*
X154229822Y-99695000D01*
X155650179Y-99695000D01*
X155918890Y-99776513D01*
X156210000Y-99805185D01*
X156501111Y-99776513D01*
X156769822Y-99695000D01*
X157997766Y-99695000D01*
X158174189Y-99712376D01*
X158337850Y-99762022D01*
X158488672Y-99842638D01*
X158620870Y-99951130D01*
X158729362Y-100083328D01*
X158809978Y-100234150D01*
X158859624Y-100397811D01*
X158877000Y-100574234D01*
X158877000Y-100593766D01*
X158859624Y-100770189D01*
X158809978Y-100933850D01*
X158729362Y-101084672D01*
X158620870Y-101216870D01*
X158488672Y-101325362D01*
X158337850Y-101405978D01*
X158174189Y-101455624D01*
X157997766Y-101473000D01*
X137912234Y-101473000D01*
X137735811Y-101455624D01*
X137572150Y-101405978D01*
X137421328Y-101325362D01*
X137289130Y-101216870D01*
X137180638Y-101084672D01*
X137100022Y-100933850D01*
X137050376Y-100770189D01*
X137033000Y-100593766D01*
X137033000Y-96510234D01*
X137050376Y-96333811D01*
X137100022Y-96170150D01*
X137180638Y-96019328D01*
X137289130Y-95887130D01*
X137421328Y-95778638D01*
X137572150Y-95698022D01*
X137735811Y-95648376D01*
X137912234Y-95631000D01*
X138693766Y-95631000D01*
X138870189Y-95648376D01*
G37*
X138870189Y-95648376D02*
X139033850Y-95698022D01*
X139184672Y-95778638D01*
X139316870Y-95887130D01*
X139425362Y-96019328D01*
X139505978Y-96170150D01*
X139555624Y-96333811D01*
X139572434Y-96504491D01*
X139506487Y-96721890D01*
X139485000Y-96940051D01*
X139485000Y-98385950D01*
X139506487Y-98604111D01*
X139591401Y-98884034D01*
X139729295Y-99142014D01*
X139743892Y-99159801D01*
X139756526Y-99183437D01*
X139770358Y-99204138D01*
X139894721Y-99355675D01*
X139912325Y-99373279D01*
X140063862Y-99497642D01*
X140084563Y-99511474D01*
X140098799Y-99519084D01*
X140140987Y-99553706D01*
X140398967Y-99691599D01*
X140678890Y-99776513D01*
X140970000Y-99805185D01*
X141261111Y-99776513D01*
X141529822Y-99695000D01*
X142950179Y-99695000D01*
X143218890Y-99776513D01*
X143510000Y-99805185D01*
X143801111Y-99776513D01*
X144069822Y-99695000D01*
X145490179Y-99695000D01*
X145758890Y-99776513D01*
X146050000Y-99805185D01*
X146341111Y-99776513D01*
X146609822Y-99695000D01*
X148030179Y-99695000D01*
X148298890Y-99776513D01*
X148590000Y-99805185D01*
X148881111Y-99776513D01*
X149149822Y-99695000D01*
X150570179Y-99695000D01*
X150838890Y-99776513D01*
X151130000Y-99805185D01*
X151421111Y-99776513D01*
X151689822Y-99695000D01*
X153110179Y-99695000D01*
X153378890Y-99776513D01*
X153670000Y-99805185D01*
X153961111Y-99776513D01*
X154229822Y-99695000D01*
X155650179Y-99695000D01*
X155918890Y-99776513D01*
X156210000Y-99805185D01*
X156501111Y-99776513D01*
X156769822Y-99695000D01*
X157997766Y-99695000D01*
X158174189Y-99712376D01*
X158337850Y-99762022D01*
X158488672Y-99842638D01*
X158620870Y-99951130D01*
X158729362Y-100083328D01*
X158809978Y-100234150D01*
X158859624Y-100397811D01*
X158877000Y-100574234D01*
X158877000Y-100593766D01*
X158859624Y-100770189D01*
X158809978Y-100933850D01*
X158729362Y-101084672D01*
X158620870Y-101216870D01*
X158488672Y-101325362D01*
X158337850Y-101405978D01*
X158174189Y-101455624D01*
X157997766Y-101473000D01*
X137912234Y-101473000D01*
X137735811Y-101455624D01*
X137572150Y-101405978D01*
X137421328Y-101325362D01*
X137289130Y-101216870D01*
X137180638Y-101084672D01*
X137100022Y-100933850D01*
X137050376Y-100770189D01*
X137033000Y-100593766D01*
X137033000Y-96510234D01*
X137050376Y-96333811D01*
X137100022Y-96170150D01*
X137180638Y-96019328D01*
X137289130Y-95887130D01*
X137421328Y-95778638D01*
X137572150Y-95698022D01*
X137735811Y-95648376D01*
X137912234Y-95631000D01*
X138693766Y-95631000D01*
X138870189Y-95648376D01*
M02*
