G04 #@! TF.GenerationSoftware,KiCad,Pcbnew,(5.1.6)-1*
G04 #@! TF.CreationDate,2021-01-22T14:13:30+00:00*
G04 #@! TF.ProjectId,NanoBLE_Compass,4e616e6f-424c-4455-9f43-6f6d70617373,rev?*
G04 #@! TF.SameCoordinates,Original*
G04 #@! TF.FileFunction,Soldermask,Top*
G04 #@! TF.FilePolarity,Negative*
%FSLAX46Y46*%
G04 Gerber Fmt 4.6, Leading zero omitted, Abs format (unit mm)*
G04 Created by KiCad (PCBNEW (5.1.6)-1) date 2021-01-22 14:13:30*
%MOMM*%
%LPD*%
G01*
G04 APERTURE LIST*
%ADD10R,2.600000X1.900000*%
%ADD11R,0.900000X2.800000*%
%ADD12C,6.500000*%
%ADD13R,1.400000X0.800000*%
%ADD14R,1.300000X0.500000*%
%ADD15R,1.000000X3.100000*%
%ADD16O,2.500000X1.300000*%
%ADD17O,2.200000X1.150000*%
%ADD18R,1.800000X1.800000*%
%ADD19O,1.800000X1.800000*%
%ADD20C,1.100000*%
%ADD21R,2.100000X2.100000*%
%ADD22R,1.160000X0.750000*%
%ADD23R,0.750000X1.160000*%
G04 APERTURE END LIST*
D10*
X150836000Y-93472000D03*
X154836000Y-93472000D03*
D11*
X143158000Y-97282000D03*
X145458000Y-97282000D03*
G36*
G01*
X126718750Y-89403000D02*
X127281250Y-89403000D01*
G75*
G02*
X127525000Y-89646750I0J-243750D01*
G01*
X127525000Y-90134250D01*
G75*
G02*
X127281250Y-90378000I-243750J0D01*
G01*
X126718750Y-90378000D01*
G75*
G02*
X126475000Y-90134250I0J243750D01*
G01*
X126475000Y-89646750D01*
G75*
G02*
X126718750Y-89403000I243750J0D01*
G01*
G37*
G36*
G01*
X126718750Y-90978000D02*
X127281250Y-90978000D01*
G75*
G02*
X127525000Y-91221750I0J-243750D01*
G01*
X127525000Y-91709250D01*
G75*
G02*
X127281250Y-91953000I-243750J0D01*
G01*
X126718750Y-91953000D01*
G75*
G02*
X126475000Y-91709250I0J243750D01*
G01*
X126475000Y-91221750D01*
G75*
G02*
X126718750Y-90978000I243750J0D01*
G01*
G37*
G36*
G01*
X137622000Y-91412750D02*
X137622000Y-91975250D01*
G75*
G02*
X137378250Y-92219000I-243750J0D01*
G01*
X136890750Y-92219000D01*
G75*
G02*
X136647000Y-91975250I0J243750D01*
G01*
X136647000Y-91412750D01*
G75*
G02*
X136890750Y-91169000I243750J0D01*
G01*
X137378250Y-91169000D01*
G75*
G02*
X137622000Y-91412750I0J-243750D01*
G01*
G37*
G36*
G01*
X139197000Y-91412750D02*
X139197000Y-91975250D01*
G75*
G02*
X138953250Y-92219000I-243750J0D01*
G01*
X138465750Y-92219000D01*
G75*
G02*
X138222000Y-91975250I0J243750D01*
G01*
X138222000Y-91412750D01*
G75*
G02*
X138465750Y-91169000I243750J0D01*
G01*
X138953250Y-91169000D01*
G75*
G02*
X139197000Y-91412750I0J-243750D01*
G01*
G37*
G36*
G01*
X166342750Y-80056000D02*
X166905250Y-80056000D01*
G75*
G02*
X167149000Y-80299750I0J-243750D01*
G01*
X167149000Y-80787250D01*
G75*
G02*
X166905250Y-81031000I-243750J0D01*
G01*
X166342750Y-81031000D01*
G75*
G02*
X166099000Y-80787250I0J243750D01*
G01*
X166099000Y-80299750D01*
G75*
G02*
X166342750Y-80056000I243750J0D01*
G01*
G37*
G36*
G01*
X166342750Y-78481000D02*
X166905250Y-78481000D01*
G75*
G02*
X167149000Y-78724750I0J-243750D01*
G01*
X167149000Y-79212250D01*
G75*
G02*
X166905250Y-79456000I-243750J0D01*
G01*
X166342750Y-79456000D01*
G75*
G02*
X166099000Y-79212250I0J243750D01*
G01*
X166099000Y-78724750D01*
G75*
G02*
X166342750Y-78481000I243750J0D01*
G01*
G37*
G36*
G01*
X160301250Y-81031000D02*
X159738750Y-81031000D01*
G75*
G02*
X159495000Y-80787250I0J243750D01*
G01*
X159495000Y-80299750D01*
G75*
G02*
X159738750Y-80056000I243750J0D01*
G01*
X160301250Y-80056000D01*
G75*
G02*
X160545000Y-80299750I0J-243750D01*
G01*
X160545000Y-80787250D01*
G75*
G02*
X160301250Y-81031000I-243750J0D01*
G01*
G37*
G36*
G01*
X160301250Y-79456000D02*
X159738750Y-79456000D01*
G75*
G02*
X159495000Y-79212250I0J243750D01*
G01*
X159495000Y-78724750D01*
G75*
G02*
X159738750Y-78481000I243750J0D01*
G01*
X160301250Y-78481000D01*
G75*
G02*
X160545000Y-78724750I0J-243750D01*
G01*
X160545000Y-79212250D01*
G75*
G02*
X160301250Y-79456000I-243750J0D01*
G01*
G37*
G36*
G01*
X132329000Y-74195250D02*
X132329000Y-73632750D01*
G75*
G02*
X132572750Y-73389000I243750J0D01*
G01*
X133060250Y-73389000D01*
G75*
G02*
X133304000Y-73632750I0J-243750D01*
G01*
X133304000Y-74195250D01*
G75*
G02*
X133060250Y-74439000I-243750J0D01*
G01*
X132572750Y-74439000D01*
G75*
G02*
X132329000Y-74195250I0J243750D01*
G01*
G37*
G36*
G01*
X133904000Y-74195250D02*
X133904000Y-73632750D01*
G75*
G02*
X134147750Y-73389000I243750J0D01*
G01*
X134635250Y-73389000D01*
G75*
G02*
X134879000Y-73632750I0J-243750D01*
G01*
X134879000Y-74195250D01*
G75*
G02*
X134635250Y-74439000I-243750J0D01*
G01*
X134147750Y-74439000D01*
G75*
G02*
X133904000Y-74195250I0J243750D01*
G01*
G37*
G36*
G01*
X140416000Y-73632750D02*
X140416000Y-74195250D01*
G75*
G02*
X140172250Y-74439000I-243750J0D01*
G01*
X139684750Y-74439000D01*
G75*
G02*
X139441000Y-74195250I0J243750D01*
G01*
X139441000Y-73632750D01*
G75*
G02*
X139684750Y-73389000I243750J0D01*
G01*
X140172250Y-73389000D01*
G75*
G02*
X140416000Y-73632750I0J-243750D01*
G01*
G37*
G36*
G01*
X141991000Y-73632750D02*
X141991000Y-74195250D01*
G75*
G02*
X141747250Y-74439000I-243750J0D01*
G01*
X141259750Y-74439000D01*
G75*
G02*
X141016000Y-74195250I0J243750D01*
G01*
X141016000Y-73632750D01*
G75*
G02*
X141259750Y-73389000I243750J0D01*
G01*
X141747250Y-73389000D01*
G75*
G02*
X141991000Y-73632750I0J-243750D01*
G01*
G37*
D12*
X123330000Y-75430000D03*
X123330000Y-103430000D03*
X174330000Y-103430000D03*
X174330000Y-75430000D03*
D13*
X134830000Y-85725000D03*
X134830000Y-84455000D03*
X134830000Y-86995000D03*
X134830000Y-88265000D03*
X129330000Y-85725000D03*
X129330000Y-84455000D03*
X129330000Y-86995000D03*
X129330000Y-88265000D03*
D14*
X122682000Y-89565000D03*
X122682000Y-88915000D03*
X122682000Y-88265000D03*
X122682000Y-90215000D03*
X122682000Y-90865000D03*
D15*
X121132000Y-89565000D03*
D16*
X121132000Y-86065000D03*
X121132000Y-93065000D03*
D17*
X123232000Y-87340000D03*
X123232000Y-91790000D03*
D18*
X137668000Y-103886000D03*
D19*
X135128000Y-103886000D03*
X132588000Y-103886000D03*
D18*
X146050000Y-74422000D03*
D19*
X148590000Y-74422000D03*
X151130000Y-74422000D03*
X153670000Y-74422000D03*
G36*
G01*
X138247500Y-85117250D02*
X138247500Y-84554750D01*
G75*
G02*
X138491250Y-84311000I243750J0D01*
G01*
X138978750Y-84311000D01*
G75*
G02*
X139222500Y-84554750I0J-243750D01*
G01*
X139222500Y-85117250D01*
G75*
G02*
X138978750Y-85361000I-243750J0D01*
G01*
X138491250Y-85361000D01*
G75*
G02*
X138247500Y-85117250I0J243750D01*
G01*
G37*
G36*
G01*
X136672500Y-85117250D02*
X136672500Y-84554750D01*
G75*
G02*
X136916250Y-84311000I243750J0D01*
G01*
X137403750Y-84311000D01*
G75*
G02*
X137647500Y-84554750I0J-243750D01*
G01*
X137647500Y-85117250D01*
G75*
G02*
X137403750Y-85361000I-243750J0D01*
G01*
X136916250Y-85361000D01*
G75*
G02*
X136672500Y-85117250I0J243750D01*
G01*
G37*
G36*
G01*
X136672500Y-87403250D02*
X136672500Y-86840750D01*
G75*
G02*
X136916250Y-86597000I243750J0D01*
G01*
X137403750Y-86597000D01*
G75*
G02*
X137647500Y-86840750I0J-243750D01*
G01*
X137647500Y-87403250D01*
G75*
G02*
X137403750Y-87647000I-243750J0D01*
G01*
X136916250Y-87647000D01*
G75*
G02*
X136672500Y-87403250I0J243750D01*
G01*
G37*
G36*
G01*
X138247500Y-87403250D02*
X138247500Y-86840750D01*
G75*
G02*
X138491250Y-86597000I243750J0D01*
G01*
X138978750Y-86597000D01*
G75*
G02*
X139222500Y-86840750I0J-243750D01*
G01*
X139222500Y-87403250D01*
G75*
G02*
X138978750Y-87647000I-243750J0D01*
G01*
X138491250Y-87647000D01*
G75*
G02*
X138247500Y-87403250I0J243750D01*
G01*
G37*
G36*
G01*
X126718750Y-86634500D02*
X127281250Y-86634500D01*
G75*
G02*
X127525000Y-86878250I0J-243750D01*
G01*
X127525000Y-87365750D01*
G75*
G02*
X127281250Y-87609500I-243750J0D01*
G01*
X126718750Y-87609500D01*
G75*
G02*
X126475000Y-87365750I0J243750D01*
G01*
X126475000Y-86878250D01*
G75*
G02*
X126718750Y-86634500I243750J0D01*
G01*
G37*
G36*
G01*
X126718750Y-85059500D02*
X127281250Y-85059500D01*
G75*
G02*
X127525000Y-85303250I0J-243750D01*
G01*
X127525000Y-85790750D01*
G75*
G02*
X127281250Y-86034500I-243750J0D01*
G01*
X126718750Y-86034500D01*
G75*
G02*
X126475000Y-85790750I0J243750D01*
G01*
X126475000Y-85303250D01*
G75*
G02*
X126718750Y-85059500I243750J0D01*
G01*
G37*
G36*
G01*
X136672500Y-89689250D02*
X136672500Y-89126750D01*
G75*
G02*
X136916250Y-88883000I243750J0D01*
G01*
X137403750Y-88883000D01*
G75*
G02*
X137647500Y-89126750I0J-243750D01*
G01*
X137647500Y-89689250D01*
G75*
G02*
X137403750Y-89933000I-243750J0D01*
G01*
X136916250Y-89933000D01*
G75*
G02*
X136672500Y-89689250I0J243750D01*
G01*
G37*
G36*
G01*
X138247500Y-89689250D02*
X138247500Y-89126750D01*
G75*
G02*
X138491250Y-88883000I243750J0D01*
G01*
X138978750Y-88883000D01*
G75*
G02*
X139222500Y-89126750I0J-243750D01*
G01*
X139222500Y-89689250D01*
G75*
G02*
X138978750Y-89933000I-243750J0D01*
G01*
X138491250Y-89933000D01*
G75*
G02*
X138247500Y-89689250I0J243750D01*
G01*
G37*
G36*
G01*
X131069000Y-91158750D02*
X131069000Y-91721250D01*
G75*
G02*
X130825250Y-91965000I-243750J0D01*
G01*
X130337750Y-91965000D01*
G75*
G02*
X130094000Y-91721250I0J243750D01*
G01*
X130094000Y-91158750D01*
G75*
G02*
X130337750Y-90915000I243750J0D01*
G01*
X130825250Y-90915000D01*
G75*
G02*
X131069000Y-91158750I0J-243750D01*
G01*
G37*
G36*
G01*
X129494000Y-91158750D02*
X129494000Y-91721250D01*
G75*
G02*
X129250250Y-91965000I-243750J0D01*
G01*
X128762750Y-91965000D01*
G75*
G02*
X128519000Y-91721250I0J243750D01*
G01*
X128519000Y-91158750D01*
G75*
G02*
X128762750Y-90915000I243750J0D01*
G01*
X129250250Y-90915000D01*
G75*
G02*
X129494000Y-91158750I0J-243750D01*
G01*
G37*
G36*
G01*
X152659000Y-96238750D02*
X152659000Y-96801250D01*
G75*
G02*
X152415250Y-97045000I-243750J0D01*
G01*
X151927750Y-97045000D01*
G75*
G02*
X151684000Y-96801250I0J243750D01*
G01*
X151684000Y-96238750D01*
G75*
G02*
X151927750Y-95995000I243750J0D01*
G01*
X152415250Y-95995000D01*
G75*
G02*
X152659000Y-96238750I0J-243750D01*
G01*
G37*
G36*
G01*
X151084000Y-96238750D02*
X151084000Y-96801250D01*
G75*
G02*
X150840250Y-97045000I-243750J0D01*
G01*
X150352750Y-97045000D01*
G75*
G02*
X150109000Y-96801250I0J243750D01*
G01*
X150109000Y-96238750D01*
G75*
G02*
X150352750Y-95995000I243750J0D01*
G01*
X150840250Y-95995000D01*
G75*
G02*
X151084000Y-96238750I0J-243750D01*
G01*
G37*
G36*
G01*
X151658500Y-99341250D02*
X151658500Y-98778750D01*
G75*
G02*
X151902250Y-98535000I243750J0D01*
G01*
X152389750Y-98535000D01*
G75*
G02*
X152633500Y-98778750I0J-243750D01*
G01*
X152633500Y-99341250D01*
G75*
G02*
X152389750Y-99585000I-243750J0D01*
G01*
X151902250Y-99585000D01*
G75*
G02*
X151658500Y-99341250I0J243750D01*
G01*
G37*
G36*
G01*
X150083500Y-99341250D02*
X150083500Y-98778750D01*
G75*
G02*
X150327250Y-98535000I243750J0D01*
G01*
X150814750Y-98535000D01*
G75*
G02*
X151058500Y-98778750I0J-243750D01*
G01*
X151058500Y-99341250D01*
G75*
G02*
X150814750Y-99585000I-243750J0D01*
G01*
X150327250Y-99585000D01*
G75*
G02*
X150083500Y-99341250I0J243750D01*
G01*
G37*
G36*
G01*
X168628750Y-80056000D02*
X169191250Y-80056000D01*
G75*
G02*
X169435000Y-80299750I0J-243750D01*
G01*
X169435000Y-80787250D01*
G75*
G02*
X169191250Y-81031000I-243750J0D01*
G01*
X168628750Y-81031000D01*
G75*
G02*
X168385000Y-80787250I0J243750D01*
G01*
X168385000Y-80299750D01*
G75*
G02*
X168628750Y-80056000I243750J0D01*
G01*
G37*
G36*
G01*
X168628750Y-78481000D02*
X169191250Y-78481000D01*
G75*
G02*
X169435000Y-78724750I0J-243750D01*
G01*
X169435000Y-79212250D01*
G75*
G02*
X169191250Y-79456000I-243750J0D01*
G01*
X168628750Y-79456000D01*
G75*
G02*
X168385000Y-79212250I0J243750D01*
G01*
X168385000Y-78724750D01*
G75*
G02*
X168628750Y-78481000I243750J0D01*
G01*
G37*
G36*
G01*
X157452750Y-78481000D02*
X158015250Y-78481000D01*
G75*
G02*
X158259000Y-78724750I0J-243750D01*
G01*
X158259000Y-79212250D01*
G75*
G02*
X158015250Y-79456000I-243750J0D01*
G01*
X157452750Y-79456000D01*
G75*
G02*
X157209000Y-79212250I0J243750D01*
G01*
X157209000Y-78724750D01*
G75*
G02*
X157452750Y-78481000I243750J0D01*
G01*
G37*
G36*
G01*
X157452750Y-80056000D02*
X158015250Y-80056000D01*
G75*
G02*
X158259000Y-80299750I0J-243750D01*
G01*
X158259000Y-80787250D01*
G75*
G02*
X158015250Y-81031000I-243750J0D01*
G01*
X157452750Y-81031000D01*
G75*
G02*
X157209000Y-80787250I0J243750D01*
G01*
X157209000Y-80299750D01*
G75*
G02*
X157452750Y-80056000I243750J0D01*
G01*
G37*
D20*
X137160000Y-73914000D03*
D21*
X121412000Y-82550000D03*
X121412000Y-96520000D03*
D20*
X161290000Y-104902000D03*
D21*
X167894000Y-74422000D03*
X158750000Y-74422000D03*
D20*
X164846000Y-104902000D03*
D22*
X132674000Y-91506000D03*
X132674000Y-92456000D03*
X132674000Y-93406000D03*
X134874000Y-93406000D03*
X134874000Y-91506000D03*
X134874000Y-92456000D03*
X151722000Y-103886000D03*
X151722000Y-102936000D03*
X151722000Y-104836000D03*
X149522000Y-104836000D03*
X149522000Y-103886000D03*
X149522000Y-102936000D03*
G36*
G01*
X162422000Y-82731000D02*
X162222000Y-82731000D01*
G75*
G02*
X162122000Y-82631000I0J100000D01*
G01*
X162122000Y-81281000D01*
G75*
G02*
X162222000Y-81181000I100000J0D01*
G01*
X162422000Y-81181000D01*
G75*
G02*
X162522000Y-81281000I0J-100000D01*
G01*
X162522000Y-82631000D01*
G75*
G02*
X162422000Y-82731000I-100000J0D01*
G01*
G37*
G36*
G01*
X162922000Y-82731000D02*
X162722000Y-82731000D01*
G75*
G02*
X162622000Y-82631000I0J100000D01*
G01*
X162622000Y-81281000D01*
G75*
G02*
X162722000Y-81181000I100000J0D01*
G01*
X162922000Y-81181000D01*
G75*
G02*
X163022000Y-81281000I0J-100000D01*
G01*
X163022000Y-82631000D01*
G75*
G02*
X162922000Y-82731000I-100000J0D01*
G01*
G37*
G36*
G01*
X163422000Y-82731000D02*
X163222000Y-82731000D01*
G75*
G02*
X163122000Y-82631000I0J100000D01*
G01*
X163122000Y-81281000D01*
G75*
G02*
X163222000Y-81181000I100000J0D01*
G01*
X163422000Y-81181000D01*
G75*
G02*
X163522000Y-81281000I0J-100000D01*
G01*
X163522000Y-82631000D01*
G75*
G02*
X163422000Y-82731000I-100000J0D01*
G01*
G37*
G36*
G01*
X163922000Y-82731000D02*
X163722000Y-82731000D01*
G75*
G02*
X163622000Y-82631000I0J100000D01*
G01*
X163622000Y-81281000D01*
G75*
G02*
X163722000Y-81181000I100000J0D01*
G01*
X163922000Y-81181000D01*
G75*
G02*
X164022000Y-81281000I0J-100000D01*
G01*
X164022000Y-82631000D01*
G75*
G02*
X163922000Y-82731000I-100000J0D01*
G01*
G37*
G36*
G01*
X164422000Y-82731000D02*
X164222000Y-82731000D01*
G75*
G02*
X164122000Y-82631000I0J100000D01*
G01*
X164122000Y-81281000D01*
G75*
G02*
X164222000Y-81181000I100000J0D01*
G01*
X164422000Y-81181000D01*
G75*
G02*
X164522000Y-81281000I0J-100000D01*
G01*
X164522000Y-82631000D01*
G75*
G02*
X164422000Y-82731000I-100000J0D01*
G01*
G37*
G36*
G01*
X164422000Y-78331000D02*
X164222000Y-78331000D01*
G75*
G02*
X164122000Y-78231000I0J100000D01*
G01*
X164122000Y-76881000D01*
G75*
G02*
X164222000Y-76781000I100000J0D01*
G01*
X164422000Y-76781000D01*
G75*
G02*
X164522000Y-76881000I0J-100000D01*
G01*
X164522000Y-78231000D01*
G75*
G02*
X164422000Y-78331000I-100000J0D01*
G01*
G37*
G36*
G01*
X163922000Y-78331000D02*
X163722000Y-78331000D01*
G75*
G02*
X163622000Y-78231000I0J100000D01*
G01*
X163622000Y-76881000D01*
G75*
G02*
X163722000Y-76781000I100000J0D01*
G01*
X163922000Y-76781000D01*
G75*
G02*
X164022000Y-76881000I0J-100000D01*
G01*
X164022000Y-78231000D01*
G75*
G02*
X163922000Y-78331000I-100000J0D01*
G01*
G37*
G36*
G01*
X163422000Y-78331000D02*
X163222000Y-78331000D01*
G75*
G02*
X163122000Y-78231000I0J100000D01*
G01*
X163122000Y-76881000D01*
G75*
G02*
X163222000Y-76781000I100000J0D01*
G01*
X163422000Y-76781000D01*
G75*
G02*
X163522000Y-76881000I0J-100000D01*
G01*
X163522000Y-78231000D01*
G75*
G02*
X163422000Y-78331000I-100000J0D01*
G01*
G37*
G36*
G01*
X162922000Y-78331000D02*
X162722000Y-78331000D01*
G75*
G02*
X162622000Y-78231000I0J100000D01*
G01*
X162622000Y-76881000D01*
G75*
G02*
X162722000Y-76781000I100000J0D01*
G01*
X162922000Y-76781000D01*
G75*
G02*
X163022000Y-76881000I0J-100000D01*
G01*
X163022000Y-78231000D01*
G75*
G02*
X162922000Y-78331000I-100000J0D01*
G01*
G37*
G36*
G01*
X162422000Y-78331000D02*
X162222000Y-78331000D01*
G75*
G02*
X162122000Y-78231000I0J100000D01*
G01*
X162122000Y-76881000D01*
G75*
G02*
X162222000Y-76781000I100000J0D01*
G01*
X162422000Y-76781000D01*
G75*
G02*
X162522000Y-76881000I0J-100000D01*
G01*
X162522000Y-78231000D01*
G75*
G02*
X162422000Y-78331000I-100000J0D01*
G01*
G37*
D23*
X128844000Y-97366000D03*
X129794000Y-97366000D03*
X130744000Y-97366000D03*
X130744000Y-95166000D03*
X128844000Y-95166000D03*
X129794000Y-95166000D03*
G36*
G01*
X143587500Y-104367250D02*
X143587500Y-103404750D01*
G75*
G02*
X143856250Y-103136000I268750J0D01*
G01*
X144393750Y-103136000D01*
G75*
G02*
X144662500Y-103404750I0J-268750D01*
G01*
X144662500Y-104367250D01*
G75*
G02*
X144393750Y-104636000I-268750J0D01*
G01*
X143856250Y-104636000D01*
G75*
G02*
X143587500Y-104367250I0J268750D01*
G01*
G37*
G36*
G01*
X145462500Y-104367250D02*
X145462500Y-103404750D01*
G75*
G02*
X145731250Y-103136000I268750J0D01*
G01*
X146268750Y-103136000D01*
G75*
G02*
X146537500Y-103404750I0J-268750D01*
G01*
X146537500Y-104367250D01*
G75*
G02*
X146268750Y-104636000I-268750J0D01*
G01*
X145731250Y-104636000D01*
G75*
G02*
X145462500Y-104367250I0J268750D01*
G01*
G37*
G36*
G01*
X155347750Y-102508000D02*
X156310250Y-102508000D01*
G75*
G02*
X156579000Y-102776750I0J-268750D01*
G01*
X156579000Y-103314250D01*
G75*
G02*
X156310250Y-103583000I-268750J0D01*
G01*
X155347750Y-103583000D01*
G75*
G02*
X155079000Y-103314250I0J268750D01*
G01*
X155079000Y-102776750D01*
G75*
G02*
X155347750Y-102508000I268750J0D01*
G01*
G37*
G36*
G01*
X155347750Y-100633000D02*
X156310250Y-100633000D01*
G75*
G02*
X156579000Y-100901750I0J-268750D01*
G01*
X156579000Y-101439250D01*
G75*
G02*
X156310250Y-101708000I-268750J0D01*
G01*
X155347750Y-101708000D01*
G75*
G02*
X155079000Y-101439250I0J268750D01*
G01*
X155079000Y-100901750D01*
G75*
G02*
X155347750Y-100633000I268750J0D01*
G01*
G37*
M02*
