M48
; DRILL file {KiCad (5.1.6)-1} date 01/22/21 13:56:39
; FORMAT={3:3/ absolute / metric / suppress leading zeros}
; #@! TF.CreationDate,2021-01-22T13:56:39+00:00
; #@! TF.GenerationSoftware,Kicad,Pcbnew,(5.1.6)-1
FMAT,2
METRIC,TZ
T1C0.400
T2C0.600
T3C0.650
T4C1.000
T5C3.200
%
G90
G05
T1
X120396Y-78994
X120396Y-100076
X123190Y-85090
X123190Y-93980
X124460Y-85090
X124460Y-93980
X126746Y-72390
X126746Y-106426
X127000Y-84074
X128143Y-87122
X128778Y-72390
X128778Y-106426
X129032Y-89916
X131826Y-90170
X132080Y-94996
X132461Y-83693
X134874Y-89662
X143000Y-84000
X143000Y-87000
X143000Y-90000
X143000Y-93000
X146000Y-84000
X146000Y-87000
X146000Y-90000
X146000Y-93000
X147701Y-103886
X149000Y-84000
X149000Y-87000
X149000Y-90000
X152000Y-84000
X152000Y-87000
X152000Y-90000
X153543Y-100203
X153543Y-101092
X154432Y-100203
X154432Y-101092
X155000Y-90000
X157353Y-100203
X157353Y-101092
X157734Y-77724
X158000Y-90000
X158000Y-93000
X158242Y-83566
X158242Y-100203
X158242Y-101092
X161000Y-93000
X163322Y-74422
X163830Y-85852
X164000Y-87000
X164000Y-90000
X166116Y-83566
X167000Y-87000
X167000Y-90000
X167000Y-93000
X167386Y-83566
X168910Y-72390
X168910Y-106426
X170000Y-90000
X170000Y-93000
X170942Y-72390
X171196Y-106426
X171450Y-95250
X177292Y-78994
X177292Y-81026
X177292Y-98044
X177292Y-100076
T3
X123232Y-87340
X123232Y-91790
T4
X132588Y-103886
X135128Y-103886
X137668Y-103886
X167894Y-74422
X121412Y-96520
X158750Y-74422
X121412Y-82550
X146050Y-74422
X148590Y-74422
X151130Y-74422
X153670Y-74422
T5
X174330Y-75430
X174330Y-103430
X123330Y-103430
X123330Y-75430
T2
G00X120732Y-86065
M15
G01X121532Y-86065
M16
G05
G00X120732Y-93065
M15
G01X121532Y-93065
M16
G05
T0
M30
