G04 #@! TF.GenerationSoftware,KiCad,Pcbnew,(5.1.6)-1*
G04 #@! TF.CreationDate,2021-01-22T14:13:29+00:00*
G04 #@! TF.ProjectId,NanoBLE_Compass,4e616e6f-424c-4455-9f43-6f6d70617373,rev?*
G04 #@! TF.SameCoordinates,Original*
G04 #@! TF.FileFunction,Legend,Top*
G04 #@! TF.FilePolarity,Positive*
%FSLAX46Y46*%
G04 Gerber Fmt 4.6, Leading zero omitted, Abs format (unit mm)*
G04 Created by KiCad (PCBNEW (5.1.6)-1) date 2021-01-22 14:13:29*
%MOMM*%
%LPD*%
G01*
G04 APERTURE LIST*
%ADD10C,0.150000*%
%ADD11C,0.120000*%
%ADD12C,0.100000*%
%ADD13C,0.127000*%
G04 APERTURE END LIST*
D10*
X137415461Y-101730301D02*
X136708355Y-101023194D01*
X137819522Y-101326240D01*
X137112416Y-100619133D01*
X137583820Y-100147729D02*
X137718507Y-100013042D01*
X137819522Y-99979370D01*
X137954209Y-99979370D01*
X138122568Y-100080385D01*
X138358270Y-100316087D01*
X138459286Y-100484446D01*
X138459286Y-100619133D01*
X138425614Y-100720148D01*
X138290927Y-100854835D01*
X138189912Y-100888507D01*
X138055225Y-100888507D01*
X137886866Y-100787492D01*
X137651164Y-100551790D01*
X137550148Y-100383431D01*
X137550148Y-100248744D01*
X137583820Y-100147729D01*
X134824954Y-101646122D02*
X134824954Y-101713465D01*
X134757610Y-101848152D01*
X134690267Y-101915496D01*
X134555580Y-101982839D01*
X134420893Y-101982839D01*
X134319877Y-101949167D01*
X134151519Y-101848152D01*
X134050503Y-101747137D01*
X133949488Y-101578778D01*
X133915816Y-101477763D01*
X133915816Y-101343076D01*
X133983160Y-101208389D01*
X134050503Y-101141045D01*
X134185190Y-101073702D01*
X134252534Y-101073702D01*
X134622923Y-100568625D02*
X134757610Y-100433938D01*
X134858625Y-100400267D01*
X134993312Y-100400267D01*
X135161671Y-100501282D01*
X135397374Y-100736984D01*
X135498389Y-100905343D01*
X135498389Y-101040030D01*
X135464717Y-101141045D01*
X135330030Y-101275732D01*
X135229015Y-101309404D01*
X135094328Y-101309404D01*
X134925969Y-101208389D01*
X134690267Y-100972687D01*
X134589251Y-100804328D01*
X134589251Y-100669641D01*
X134622923Y-100568625D01*
X135936122Y-100669641D02*
X135229015Y-99962534D01*
X135969793Y-100231908D01*
X135700419Y-99491129D01*
X136407526Y-100198236D01*
X132352297Y-101713465D02*
X131645190Y-101006358D01*
X132756358Y-101309404D01*
X132049251Y-100602297D01*
X133429793Y-100501282D02*
X133429793Y-100568625D01*
X133362450Y-100703312D01*
X133295106Y-100770656D01*
X133160419Y-100838000D01*
X133025732Y-100838000D01*
X132924717Y-100804328D01*
X132756358Y-100703312D01*
X132655343Y-100602297D01*
X132554328Y-100433938D01*
X132520656Y-100332923D01*
X132520656Y-100198236D01*
X132588000Y-100063549D01*
X132655343Y-99996206D01*
X132790030Y-99928862D01*
X132857374Y-99928862D01*
X135326666Y-71842380D02*
X135660000Y-72842380D01*
X135993333Y-71842380D01*
X136660000Y-72318571D02*
X136802857Y-72366190D01*
X136850476Y-72413809D01*
X136898095Y-72509047D01*
X136898095Y-72651904D01*
X136850476Y-72747142D01*
X136802857Y-72794761D01*
X136707619Y-72842380D01*
X136326666Y-72842380D01*
X136326666Y-71842380D01*
X136660000Y-71842380D01*
X136755238Y-71890000D01*
X136802857Y-71937619D01*
X136850476Y-72032857D01*
X136850476Y-72128095D01*
X136802857Y-72223333D01*
X136755238Y-72270952D01*
X136660000Y-72318571D01*
X136326666Y-72318571D01*
X137326666Y-71842380D02*
X137326666Y-72651904D01*
X137374285Y-72747142D01*
X137421904Y-72794761D01*
X137517142Y-72842380D01*
X137707619Y-72842380D01*
X137802857Y-72794761D01*
X137850476Y-72747142D01*
X137898095Y-72651904D01*
X137898095Y-71842380D01*
X138326666Y-72794761D02*
X138469523Y-72842380D01*
X138707619Y-72842380D01*
X138802857Y-72794761D01*
X138850476Y-72747142D01*
X138898095Y-72651904D01*
X138898095Y-72556666D01*
X138850476Y-72461428D01*
X138802857Y-72413809D01*
X138707619Y-72366190D01*
X138517142Y-72318571D01*
X138421904Y-72270952D01*
X138374285Y-72223333D01*
X138326666Y-72128095D01*
X138326666Y-72032857D01*
X138374285Y-71937619D01*
X138421904Y-71890000D01*
X138517142Y-71842380D01*
X138755238Y-71842380D01*
X138898095Y-71890000D01*
X161099523Y-102322380D02*
X160623333Y-102322380D01*
X160575714Y-102798571D01*
X160623333Y-102750952D01*
X160718571Y-102703333D01*
X160956666Y-102703333D01*
X161051904Y-102750952D01*
X161099523Y-102798571D01*
X161147142Y-102893809D01*
X161147142Y-103131904D01*
X161099523Y-103227142D01*
X161051904Y-103274761D01*
X160956666Y-103322380D01*
X160718571Y-103322380D01*
X160623333Y-103274761D01*
X160575714Y-103227142D01*
X161432857Y-102322380D02*
X161766190Y-103322380D01*
X162099523Y-102322380D01*
X164338095Y-102370000D02*
X164242857Y-102322380D01*
X164100000Y-102322380D01*
X163957142Y-102370000D01*
X163861904Y-102465238D01*
X163814285Y-102560476D01*
X163766666Y-102750952D01*
X163766666Y-102893809D01*
X163814285Y-103084285D01*
X163861904Y-103179523D01*
X163957142Y-103274761D01*
X164100000Y-103322380D01*
X164195238Y-103322380D01*
X164338095Y-103274761D01*
X164385714Y-103227142D01*
X164385714Y-102893809D01*
X164195238Y-102893809D01*
X164814285Y-103322380D02*
X164814285Y-102322380D01*
X165385714Y-103322380D01*
X165385714Y-102322380D01*
X165861904Y-103322380D02*
X165861904Y-102322380D01*
X166100000Y-102322380D01*
X166242857Y-102370000D01*
X166338095Y-102465238D01*
X166385714Y-102560476D01*
X166433333Y-102750952D01*
X166433333Y-102893809D01*
X166385714Y-103084285D01*
X166338095Y-103179523D01*
X166242857Y-103274761D01*
X166100000Y-103322380D01*
X165861904Y-103322380D01*
X131223238Y-106878380D02*
X131223238Y-105878380D01*
X131604190Y-105878380D01*
X131699428Y-105926000D01*
X131747047Y-105973619D01*
X131794666Y-106068857D01*
X131794666Y-106211714D01*
X131747047Y-106306952D01*
X131699428Y-106354571D01*
X131604190Y-106402190D01*
X131223238Y-106402190D01*
X132128000Y-105878380D02*
X132366095Y-106878380D01*
X132556571Y-106164095D01*
X132747047Y-106878380D01*
X132985142Y-105878380D01*
X133128000Y-106973619D02*
X133889904Y-106973619D01*
X134080380Y-106830761D02*
X134223238Y-106878380D01*
X134461333Y-106878380D01*
X134556571Y-106830761D01*
X134604190Y-106783142D01*
X134651809Y-106687904D01*
X134651809Y-106592666D01*
X134604190Y-106497428D01*
X134556571Y-106449809D01*
X134461333Y-106402190D01*
X134270857Y-106354571D01*
X134175619Y-106306952D01*
X134128000Y-106259333D01*
X134080380Y-106164095D01*
X134080380Y-106068857D01*
X134128000Y-105973619D01*
X134175619Y-105926000D01*
X134270857Y-105878380D01*
X134508952Y-105878380D01*
X134651809Y-105926000D01*
X134985142Y-105878380D02*
X135223238Y-106878380D01*
X135413714Y-106164095D01*
X135604190Y-106878380D01*
X135842285Y-105878380D01*
X136223238Y-106878380D02*
X136223238Y-105878380D01*
X136556571Y-105878380D02*
X137128000Y-105878380D01*
X136842285Y-106878380D02*
X136842285Y-105878380D01*
X138032761Y-106783142D02*
X137985142Y-106830761D01*
X137842285Y-106878380D01*
X137747047Y-106878380D01*
X137604190Y-106830761D01*
X137508952Y-106735523D01*
X137461333Y-106640285D01*
X137413714Y-106449809D01*
X137413714Y-106306952D01*
X137461333Y-106116476D01*
X137508952Y-106021238D01*
X137604190Y-105926000D01*
X137747047Y-105878380D01*
X137842285Y-105878380D01*
X137985142Y-105926000D01*
X138032761Y-105973619D01*
X138461333Y-106878380D02*
X138461333Y-105878380D01*
X138461333Y-106354571D02*
X139032761Y-106354571D01*
X139032761Y-106878380D02*
X139032761Y-105878380D01*
X120864380Y-98734571D02*
X121007238Y-98782190D01*
X121054857Y-98829809D01*
X121102476Y-98925047D01*
X121102476Y-99067904D01*
X121054857Y-99163142D01*
X121007238Y-99210761D01*
X120912000Y-99258380D01*
X120531047Y-99258380D01*
X120531047Y-98258380D01*
X120864380Y-98258380D01*
X120959619Y-98306000D01*
X121007238Y-98353619D01*
X121054857Y-98448857D01*
X121054857Y-98544095D01*
X121007238Y-98639333D01*
X120959619Y-98686952D01*
X120864380Y-98734571D01*
X120531047Y-98734571D01*
X121531047Y-98877428D02*
X122292952Y-98877428D01*
X120864380Y-80192571D02*
X121007238Y-80240190D01*
X121054857Y-80287809D01*
X121102476Y-80383047D01*
X121102476Y-80525904D01*
X121054857Y-80621142D01*
X121007238Y-80668761D01*
X120912000Y-80716380D01*
X120531047Y-80716380D01*
X120531047Y-79716380D01*
X120864380Y-79716380D01*
X120959619Y-79764000D01*
X121007238Y-79811619D01*
X121054857Y-79906857D01*
X121054857Y-80002095D01*
X121007238Y-80097333D01*
X120959619Y-80144952D01*
X120864380Y-80192571D01*
X120531047Y-80192571D01*
X121531047Y-80335428D02*
X122292952Y-80335428D01*
X121912000Y-80716380D02*
X121912000Y-79954476D01*
X167513047Y-72207428D02*
X168274952Y-72207428D01*
X167894000Y-72588380D02*
X167894000Y-71826476D01*
X158369047Y-72207428D02*
X159130952Y-72207428D01*
X161060095Y-72842380D02*
X161060095Y-71842380D01*
X161393428Y-72556666D01*
X161726761Y-71842380D01*
X161726761Y-72842380D01*
X162393428Y-71842380D02*
X162583904Y-71842380D01*
X162679142Y-71890000D01*
X162774380Y-71985238D01*
X162822000Y-72175714D01*
X162822000Y-72509047D01*
X162774380Y-72699523D01*
X162679142Y-72794761D01*
X162583904Y-72842380D01*
X162393428Y-72842380D01*
X162298190Y-72794761D01*
X162202952Y-72699523D01*
X162155333Y-72509047D01*
X162155333Y-72175714D01*
X162202952Y-71985238D01*
X162298190Y-71890000D01*
X162393428Y-71842380D01*
X163107714Y-71842380D02*
X163679142Y-71842380D01*
X163393428Y-72842380D02*
X163393428Y-71842380D01*
X164202952Y-71842380D02*
X164393428Y-71842380D01*
X164488666Y-71890000D01*
X164583904Y-71985238D01*
X164631523Y-72175714D01*
X164631523Y-72509047D01*
X164583904Y-72699523D01*
X164488666Y-72794761D01*
X164393428Y-72842380D01*
X164202952Y-72842380D01*
X164107714Y-72794761D01*
X164012476Y-72699523D01*
X163964857Y-72509047D01*
X163964857Y-72175714D01*
X164012476Y-71985238D01*
X164107714Y-71890000D01*
X164202952Y-71842380D01*
X165631523Y-72842380D02*
X165298190Y-72366190D01*
X165060095Y-72842380D02*
X165060095Y-71842380D01*
X165441047Y-71842380D01*
X165536285Y-71890000D01*
X165583904Y-71937619D01*
X165631523Y-72032857D01*
X165631523Y-72175714D01*
X165583904Y-72270952D01*
X165536285Y-72318571D01*
X165441047Y-72366190D01*
X165060095Y-72366190D01*
X145157698Y-77147194D02*
X145056683Y-77180866D01*
X144955668Y-77281881D01*
X144888324Y-77416568D01*
X144888324Y-77551255D01*
X144921996Y-77652270D01*
X145023011Y-77820629D01*
X145124026Y-77921644D01*
X145292385Y-78022660D01*
X145393400Y-78056331D01*
X145528087Y-78056331D01*
X145662774Y-77988988D01*
X145730118Y-77921644D01*
X145797461Y-77786957D01*
X145797461Y-77719614D01*
X145561759Y-77483912D01*
X145427072Y-77618599D01*
X146167851Y-77483912D02*
X145460744Y-76776805D01*
X146571912Y-77079851D01*
X145864805Y-76372744D01*
X146908629Y-76743133D02*
X146201522Y-76036026D01*
X146369881Y-75867668D01*
X146504568Y-75800324D01*
X146639255Y-75800324D01*
X146740270Y-75833996D01*
X146908629Y-75935011D01*
X147009644Y-76036026D01*
X147110660Y-76204385D01*
X147144331Y-76305400D01*
X147144331Y-76440087D01*
X147076988Y-76574774D01*
X146908629Y-76743133D01*
X147327309Y-77450240D02*
X147765042Y-77012507D01*
X147798713Y-77517583D01*
X147899729Y-77416568D01*
X148000744Y-77382896D01*
X148068087Y-77382896D01*
X148169103Y-77416568D01*
X148337461Y-77584927D01*
X148371133Y-77685942D01*
X148371133Y-77753286D01*
X148337461Y-77854301D01*
X148135431Y-78056331D01*
X148034416Y-78090003D01*
X147967072Y-78090003D01*
X147967072Y-76810477D02*
X148909881Y-77281881D01*
X148438477Y-76339072D01*
X148606835Y-76170713D02*
X149044568Y-75732981D01*
X149078240Y-76238057D01*
X149179255Y-76137042D01*
X149280270Y-76103370D01*
X149347614Y-76103370D01*
X149448629Y-76137042D01*
X149616988Y-76305400D01*
X149650660Y-76406416D01*
X149650660Y-76473759D01*
X149616988Y-76574774D01*
X149414957Y-76776805D01*
X149313942Y-76810477D01*
X149246599Y-76810477D01*
X153114416Y-78090003D02*
X153249103Y-78022660D01*
X153417461Y-77854301D01*
X153451133Y-77753286D01*
X153451133Y-77685942D01*
X153417461Y-77584927D01*
X153350118Y-77517583D01*
X153249103Y-77483912D01*
X153181759Y-77483912D01*
X153080744Y-77517583D01*
X152912385Y-77618599D01*
X152811370Y-77652270D01*
X152744026Y-77652270D01*
X152643011Y-77618599D01*
X152575668Y-77551255D01*
X152541996Y-77450240D01*
X152541996Y-77382896D01*
X152575668Y-77281881D01*
X152744026Y-77113522D01*
X152878713Y-77046179D01*
X154191912Y-76945164D02*
X154191912Y-77012507D01*
X154124568Y-77147194D01*
X154057225Y-77214538D01*
X153922538Y-77281881D01*
X153787851Y-77281881D01*
X153686835Y-77248209D01*
X153518477Y-77147194D01*
X153417461Y-77046179D01*
X153316446Y-76877820D01*
X153282774Y-76776805D01*
X153282774Y-76642118D01*
X153350118Y-76507431D01*
X153417461Y-76440087D01*
X153552148Y-76372744D01*
X153619492Y-76372744D01*
X154899018Y-76372744D02*
X154562301Y-76709461D01*
X153855194Y-76002355D01*
X150557580Y-78106839D02*
X150692267Y-78039496D01*
X150860625Y-77871137D01*
X150894297Y-77770122D01*
X150894297Y-77702778D01*
X150860625Y-77601763D01*
X150793282Y-77534419D01*
X150692267Y-77500748D01*
X150624923Y-77500748D01*
X150523908Y-77534419D01*
X150355549Y-77635435D01*
X150254534Y-77669106D01*
X150187190Y-77669106D01*
X150086175Y-77635435D01*
X150018832Y-77568091D01*
X149985160Y-77467076D01*
X149985160Y-77399732D01*
X150018832Y-77298717D01*
X150187190Y-77130358D01*
X150321877Y-77063015D01*
X151298358Y-77433404D02*
X150591251Y-76726297D01*
X150759610Y-76557938D01*
X150894297Y-76490595D01*
X151028984Y-76490595D01*
X151130000Y-76524267D01*
X151298358Y-76625282D01*
X151399374Y-76726297D01*
X151500389Y-76894656D01*
X151534061Y-76995671D01*
X151534061Y-77130358D01*
X151466717Y-77265045D01*
X151298358Y-77433404D01*
X151769763Y-76557938D02*
X152106480Y-76221221D01*
X151904450Y-76827312D02*
X151433045Y-75884503D01*
X152375854Y-76355908D01*
X137101427Y-79811648D02*
X137101427Y-79878992D01*
X137034084Y-80013679D01*
X136966740Y-80081022D01*
X136832053Y-80148366D01*
X136697366Y-80148366D01*
X136596351Y-80114694D01*
X136427992Y-80013679D01*
X136326977Y-79912663D01*
X136225962Y-79744305D01*
X136192290Y-79643289D01*
X136192290Y-79508602D01*
X136259633Y-79373915D01*
X136326977Y-79306572D01*
X136461664Y-79239228D01*
X136529007Y-79239228D01*
X137471816Y-79575946D02*
X136764710Y-78868839D01*
X137101427Y-79205557D02*
X137505488Y-78801496D01*
X137875877Y-79171885D02*
X137168771Y-78464778D01*
X137976893Y-78666809D02*
X138313610Y-78330091D01*
X138111580Y-78936183D02*
X137640175Y-77993374D01*
X138582984Y-78464778D01*
X139222748Y-77825015D02*
X138650328Y-77724000D01*
X138818687Y-78229076D02*
X138111580Y-77521969D01*
X138380954Y-77252595D01*
X138481969Y-77218923D01*
X138549312Y-77218923D01*
X138650328Y-77252595D01*
X138751343Y-77353610D01*
X138785015Y-77454625D01*
X138785015Y-77521969D01*
X138751343Y-77622984D01*
X138481969Y-77892358D01*
X139222748Y-76478145D02*
X139121732Y-76511816D01*
X139020717Y-76612832D01*
X138953374Y-76747519D01*
X138953374Y-76882206D01*
X138987045Y-76983221D01*
X139088061Y-77151580D01*
X139189076Y-77252595D01*
X139357435Y-77353610D01*
X139458450Y-77387282D01*
X139593137Y-77387282D01*
X139727824Y-77319938D01*
X139795167Y-77252595D01*
X139862511Y-77117908D01*
X139862511Y-77050564D01*
X139626809Y-76814862D01*
X139492122Y-76949549D01*
X139862511Y-76444473D02*
X140098213Y-76208771D01*
X140569618Y-76478145D02*
X140232900Y-76814862D01*
X139525793Y-76107755D01*
X139862511Y-75771038D01*
X140872663Y-76175099D02*
X140165557Y-75467992D01*
X140333915Y-75299633D01*
X140468602Y-75232290D01*
X140603289Y-75232290D01*
X140704305Y-75265962D01*
X140872663Y-75366977D01*
X140973679Y-75467992D01*
X141074694Y-75636351D01*
X141108366Y-75737366D01*
X141108366Y-75872053D01*
X141041022Y-76006740D01*
X140872663Y-76175099D01*
X129516561Y-80284514D02*
X129516561Y-80351858D01*
X129449217Y-80486545D01*
X129381874Y-80553888D01*
X129247187Y-80621232D01*
X129112500Y-80621232D01*
X129011485Y-80587560D01*
X128843126Y-80486545D01*
X128742111Y-80385530D01*
X128641095Y-80217171D01*
X128607424Y-80116156D01*
X128607424Y-79981469D01*
X128674767Y-79846782D01*
X128742111Y-79779438D01*
X128876798Y-79712095D01*
X128944141Y-79712095D01*
X129886950Y-80048812D02*
X129179843Y-79341705D01*
X129516561Y-79678423D02*
X129920622Y-79274362D01*
X130291011Y-79644751D02*
X129583904Y-78937644D01*
X130392026Y-79139675D02*
X130728744Y-78802957D01*
X130526713Y-79409049D02*
X130055309Y-78466240D01*
X130998118Y-78937644D01*
X131637881Y-78297881D02*
X131065461Y-78196866D01*
X131233820Y-78701942D02*
X130526713Y-77994835D01*
X130796087Y-77725461D01*
X130897103Y-77691790D01*
X130964446Y-77691790D01*
X131065461Y-77725461D01*
X131166477Y-77826477D01*
X131200148Y-77927492D01*
X131200148Y-77994835D01*
X131166477Y-78095851D01*
X130897103Y-78365225D01*
X131637881Y-76951011D02*
X131536866Y-76984683D01*
X131435851Y-77085698D01*
X131368507Y-77220385D01*
X131368507Y-77355072D01*
X131402179Y-77456087D01*
X131503194Y-77624446D01*
X131604209Y-77725461D01*
X131772568Y-77826477D01*
X131873583Y-77860148D01*
X132008270Y-77860148D01*
X132142957Y-77792805D01*
X132210301Y-77725461D01*
X132277644Y-77590774D01*
X132277644Y-77523431D01*
X132041942Y-77287729D01*
X131907255Y-77422416D01*
X132648034Y-77287729D02*
X131940927Y-76580622D01*
X132984751Y-76951011D02*
X132277644Y-76243904D01*
X133388812Y-76546950D01*
X132681705Y-75839843D01*
X133422484Y-75166408D02*
X133321469Y-75200080D01*
X133220453Y-75301095D01*
X133153110Y-75435782D01*
X133153110Y-75570469D01*
X133186782Y-75671485D01*
X133287797Y-75839843D01*
X133388812Y-75940859D01*
X133557171Y-76041874D01*
X133658186Y-76075546D01*
X133792873Y-76075546D01*
X133927560Y-76008202D01*
X133994904Y-75940859D01*
X134062247Y-75806172D01*
X134062247Y-75738828D01*
X133826545Y-75503126D01*
X133691858Y-75637813D01*
D11*
X156236000Y-95122000D02*
X156236000Y-91822000D01*
X156236000Y-91822000D02*
X150836000Y-91822000D01*
X156236000Y-95122000D02*
X150836000Y-95122000D01*
X126490000Y-90515221D02*
X126490000Y-90840779D01*
X127510000Y-90515221D02*
X127510000Y-90840779D01*
X138084779Y-92204000D02*
X137759221Y-92204000D01*
X138084779Y-91184000D02*
X137759221Y-91184000D01*
X167134000Y-79593221D02*
X167134000Y-79918779D01*
X166114000Y-79593221D02*
X166114000Y-79918779D01*
X160530000Y-79918779D02*
X160530000Y-79593221D01*
X159510000Y-79918779D02*
X159510000Y-79593221D01*
X132119000Y-74649000D02*
X134404000Y-74649000D01*
X132119000Y-73179000D02*
X132119000Y-74649000D01*
X134404000Y-73179000D02*
X132119000Y-73179000D01*
X139916000Y-74649000D02*
X142201000Y-74649000D01*
X142201000Y-74649000D02*
X142201000Y-73179000D01*
X142201000Y-73179000D02*
X139916000Y-73179000D01*
D12*
X130703606Y-84660000D02*
G75*
G03*
X130703606Y-84660000I-223606J0D01*
G01*
D13*
X134180000Y-84160000D02*
X129980000Y-84160000D01*
X134180000Y-88560000D02*
X134180000Y-84160000D01*
X129980000Y-88560000D02*
X134180000Y-88560000D01*
X129980000Y-84160000D02*
X129980000Y-88560000D01*
X124632000Y-88265000D02*
G75*
G03*
X124632000Y-88265000I-150000J0D01*
G01*
X118082000Y-93315000D02*
X118082000Y-85815000D01*
X119707000Y-93315000D02*
X118082000Y-93315000D01*
X123082000Y-93315000D02*
X122582000Y-93315000D01*
X123082000Y-92565000D02*
X123082000Y-93315000D01*
X123082000Y-85815000D02*
X123082000Y-86565000D01*
X122582000Y-85815000D02*
X123082000Y-85815000D01*
X118082000Y-85815000D02*
X119707000Y-85815000D01*
D11*
X138998000Y-103886000D02*
X138998000Y-105216000D01*
X138998000Y-105216000D02*
X137668000Y-105216000D01*
X136398000Y-105216000D02*
X131258000Y-105216000D01*
X131258000Y-102556000D02*
X131258000Y-105216000D01*
X136398000Y-102556000D02*
X131258000Y-102556000D01*
X136398000Y-102556000D02*
X136398000Y-105216000D01*
X144720000Y-74422000D02*
X144720000Y-73092000D01*
X144720000Y-73092000D02*
X146050000Y-73092000D01*
X147320000Y-73092000D02*
X155000000Y-73092000D01*
X155000000Y-75752000D02*
X155000000Y-73092000D01*
X147320000Y-75752000D02*
X155000000Y-75752000D01*
X147320000Y-75752000D02*
X147320000Y-73092000D01*
X137784721Y-84326000D02*
X138110279Y-84326000D01*
X137784721Y-85346000D02*
X138110279Y-85346000D01*
X137784721Y-87632000D02*
X138110279Y-87632000D01*
X137784721Y-86612000D02*
X138110279Y-86612000D01*
X127510000Y-86171721D02*
X127510000Y-86497279D01*
X126490000Y-86171721D02*
X126490000Y-86497279D01*
X137784721Y-89918000D02*
X138110279Y-89918000D01*
X137784721Y-88898000D02*
X138110279Y-88898000D01*
X129956779Y-90930000D02*
X129631221Y-90930000D01*
X129956779Y-91950000D02*
X129631221Y-91950000D01*
X151546779Y-96010000D02*
X151221221Y-96010000D01*
X151546779Y-97030000D02*
X151221221Y-97030000D01*
X151195721Y-98550000D02*
X151521279Y-98550000D01*
X151195721Y-99570000D02*
X151521279Y-99570000D01*
X169420000Y-79593221D02*
X169420000Y-79918779D01*
X168400000Y-79593221D02*
X168400000Y-79918779D01*
X157224000Y-79593221D02*
X157224000Y-79918779D01*
X158244000Y-79593221D02*
X158244000Y-79918779D01*
X137860000Y-73914000D02*
G75*
G03*
X137860000Y-73914000I-700000J0D01*
G01*
X120212000Y-81350000D02*
X122612000Y-81350000D01*
X122612000Y-81350000D02*
X122612000Y-83750000D01*
X122612000Y-83750000D02*
X120212000Y-83750000D01*
X120212000Y-83750000D02*
X120212000Y-81350000D01*
X120212000Y-97720000D02*
X120212000Y-95320000D01*
X122612000Y-97720000D02*
X120212000Y-97720000D01*
X122612000Y-95320000D02*
X122612000Y-97720000D01*
X120212000Y-95320000D02*
X122612000Y-95320000D01*
X161990000Y-104902000D02*
G75*
G03*
X161990000Y-104902000I-700000J0D01*
G01*
X166694000Y-73222000D02*
X169094000Y-73222000D01*
X169094000Y-73222000D02*
X169094000Y-75622000D01*
X169094000Y-75622000D02*
X166694000Y-75622000D01*
X166694000Y-75622000D02*
X166694000Y-73222000D01*
X157550000Y-75622000D02*
X157550000Y-73222000D01*
X159950000Y-75622000D02*
X157550000Y-75622000D01*
X159950000Y-73222000D02*
X159950000Y-75622000D01*
X157550000Y-73222000D02*
X159950000Y-73222000D01*
X165546000Y-104902000D02*
G75*
G03*
X165546000Y-104902000I-700000J0D01*
G01*
X134674000Y-90846000D02*
X132224000Y-90846000D01*
X132874000Y-94066000D02*
X134674000Y-94066000D01*
X149722000Y-105496000D02*
X151522000Y-105496000D01*
X151522000Y-102276000D02*
X149072000Y-102276000D01*
X161712000Y-79756000D02*
X161712000Y-82681000D01*
X161712000Y-79756000D02*
X161712000Y-78256000D01*
X164932000Y-79756000D02*
X164932000Y-81256000D01*
X164932000Y-79756000D02*
X164932000Y-78256000D01*
X128184000Y-95366000D02*
X128184000Y-97816000D01*
X131404000Y-97166000D02*
X131404000Y-95366000D01*
X144803922Y-104596000D02*
X145321078Y-104596000D01*
X144803922Y-103176000D02*
X145321078Y-103176000D01*
X156539000Y-101849422D02*
X156539000Y-102366578D01*
X155119000Y-101849422D02*
X155119000Y-102366578D01*
D10*
X156614904Y-94813380D02*
X156614904Y-93813380D01*
X156853000Y-93813380D01*
X156995857Y-93861000D01*
X157091095Y-93956238D01*
X157138714Y-94051476D01*
X157186333Y-94241952D01*
X157186333Y-94384809D01*
X157138714Y-94575285D01*
X157091095Y-94670523D01*
X156995857Y-94765761D01*
X156853000Y-94813380D01*
X156614904Y-94813380D01*
X157519666Y-93813380D02*
X158138714Y-93813380D01*
X157805380Y-94194333D01*
X157948238Y-94194333D01*
X158043476Y-94241952D01*
X158091095Y-94289571D01*
X158138714Y-94384809D01*
X158138714Y-94622904D01*
X158091095Y-94718142D01*
X158043476Y-94765761D01*
X157948238Y-94813380D01*
X157662523Y-94813380D01*
X157567285Y-94765761D01*
X157519666Y-94718142D01*
X144105333Y-94813380D02*
X143629142Y-94813380D01*
X143629142Y-93813380D01*
X144962476Y-94813380D02*
X144391047Y-94813380D01*
X144676761Y-94813380D02*
X144676761Y-93813380D01*
X144581523Y-93956238D01*
X144486285Y-94051476D01*
X144391047Y-94099095D01*
X126833333Y-93321142D02*
X126785714Y-93368761D01*
X126642857Y-93416380D01*
X126547619Y-93416380D01*
X126404761Y-93368761D01*
X126309523Y-93273523D01*
X126261904Y-93178285D01*
X126214285Y-92987809D01*
X126214285Y-92844952D01*
X126261904Y-92654476D01*
X126309523Y-92559238D01*
X126404761Y-92464000D01*
X126547619Y-92416380D01*
X126642857Y-92416380D01*
X126785714Y-92464000D01*
X126833333Y-92511619D01*
X127785714Y-93416380D02*
X127214285Y-93416380D01*
X127500000Y-93416380D02*
X127500000Y-92416380D01*
X127404761Y-92559238D01*
X127309523Y-92654476D01*
X127214285Y-92702095D01*
X140295333Y-92051142D02*
X140247714Y-92098761D01*
X140104857Y-92146380D01*
X140009619Y-92146380D01*
X139866761Y-92098761D01*
X139771523Y-92003523D01*
X139723904Y-91908285D01*
X139676285Y-91717809D01*
X139676285Y-91574952D01*
X139723904Y-91384476D01*
X139771523Y-91289238D01*
X139866761Y-91194000D01*
X140009619Y-91146380D01*
X140104857Y-91146380D01*
X140247714Y-91194000D01*
X140295333Y-91241619D01*
X140676285Y-91241619D02*
X140723904Y-91194000D01*
X140819142Y-91146380D01*
X141057238Y-91146380D01*
X141152476Y-91194000D01*
X141200095Y-91241619D01*
X141247714Y-91336857D01*
X141247714Y-91432095D01*
X141200095Y-91574952D01*
X140628666Y-92146380D01*
X141247714Y-92146380D01*
X166457333Y-77827142D02*
X166409714Y-77874761D01*
X166266857Y-77922380D01*
X166171619Y-77922380D01*
X166028761Y-77874761D01*
X165933523Y-77779523D01*
X165885904Y-77684285D01*
X165838285Y-77493809D01*
X165838285Y-77350952D01*
X165885904Y-77160476D01*
X165933523Y-77065238D01*
X166028761Y-76970000D01*
X166171619Y-76922380D01*
X166266857Y-76922380D01*
X166409714Y-76970000D01*
X166457333Y-77017619D01*
X167362095Y-76922380D02*
X166885904Y-76922380D01*
X166838285Y-77398571D01*
X166885904Y-77350952D01*
X166981142Y-77303333D01*
X167219238Y-77303333D01*
X167314476Y-77350952D01*
X167362095Y-77398571D01*
X167409714Y-77493809D01*
X167409714Y-77731904D01*
X167362095Y-77827142D01*
X167314476Y-77874761D01*
X167219238Y-77922380D01*
X166981142Y-77922380D01*
X166885904Y-77874761D01*
X166838285Y-77827142D01*
X159853333Y-77827142D02*
X159805714Y-77874761D01*
X159662857Y-77922380D01*
X159567619Y-77922380D01*
X159424761Y-77874761D01*
X159329523Y-77779523D01*
X159281904Y-77684285D01*
X159234285Y-77493809D01*
X159234285Y-77350952D01*
X159281904Y-77160476D01*
X159329523Y-77065238D01*
X159424761Y-76970000D01*
X159567619Y-76922380D01*
X159662857Y-76922380D01*
X159805714Y-76970000D01*
X159853333Y-77017619D01*
X160710476Y-76922380D02*
X160520000Y-76922380D01*
X160424761Y-76970000D01*
X160377142Y-77017619D01*
X160281904Y-77160476D01*
X160234285Y-77350952D01*
X160234285Y-77731904D01*
X160281904Y-77827142D01*
X160329523Y-77874761D01*
X160424761Y-77922380D01*
X160615238Y-77922380D01*
X160710476Y-77874761D01*
X160758095Y-77827142D01*
X160805714Y-77731904D01*
X160805714Y-77493809D01*
X160758095Y-77398571D01*
X160710476Y-77350952D01*
X160615238Y-77303333D01*
X160424761Y-77303333D01*
X160329523Y-77350952D01*
X160281904Y-77398571D01*
X160234285Y-77493809D01*
X130468363Y-83636608D02*
X130468363Y-82636325D01*
X131516278Y-83541343D02*
X131468646Y-83588976D01*
X131325748Y-83636608D01*
X131230483Y-83636608D01*
X131087586Y-83588976D01*
X130992321Y-83493711D01*
X130944688Y-83398446D01*
X130897055Y-83207916D01*
X130897055Y-83065018D01*
X130944688Y-82874488D01*
X130992321Y-82779223D01*
X131087586Y-82683958D01*
X131230483Y-82636325D01*
X131325748Y-82636325D01*
X131468646Y-82683958D01*
X131516278Y-82731591D01*
X132468929Y-83636608D02*
X131897338Y-83636608D01*
X132183134Y-83636608D02*
X132183134Y-82636325D01*
X132087869Y-82779223D01*
X131992604Y-82874488D01*
X131897338Y-82922121D01*
X139890380Y-104219333D02*
X140604666Y-104219333D01*
X140747523Y-104266952D01*
X140842761Y-104362190D01*
X140890380Y-104505047D01*
X140890380Y-104600285D01*
X139985619Y-103790761D02*
X139938000Y-103743142D01*
X139890380Y-103647904D01*
X139890380Y-103409809D01*
X139938000Y-103314571D01*
X139985619Y-103266952D01*
X140080857Y-103219333D01*
X140176095Y-103219333D01*
X140318952Y-103266952D01*
X140890380Y-103838380D01*
X140890380Y-103219333D01*
X140295333Y-85288380D02*
X139962000Y-84812190D01*
X139723904Y-85288380D02*
X139723904Y-84288380D01*
X140104857Y-84288380D01*
X140200095Y-84336000D01*
X140247714Y-84383619D01*
X140295333Y-84478857D01*
X140295333Y-84621714D01*
X140247714Y-84716952D01*
X140200095Y-84764571D01*
X140104857Y-84812190D01*
X139723904Y-84812190D01*
X141247714Y-85288380D02*
X140676285Y-85288380D01*
X140962000Y-85288380D02*
X140962000Y-84288380D01*
X140866761Y-84431238D01*
X140771523Y-84526476D01*
X140676285Y-84574095D01*
X140295333Y-87574380D02*
X139962000Y-87098190D01*
X139723904Y-87574380D02*
X139723904Y-86574380D01*
X140104857Y-86574380D01*
X140200095Y-86622000D01*
X140247714Y-86669619D01*
X140295333Y-86764857D01*
X140295333Y-86907714D01*
X140247714Y-87002952D01*
X140200095Y-87050571D01*
X140104857Y-87098190D01*
X139723904Y-87098190D01*
X140676285Y-86669619D02*
X140723904Y-86622000D01*
X140819142Y-86574380D01*
X141057238Y-86574380D01*
X141152476Y-86622000D01*
X141200095Y-86669619D01*
X141247714Y-86764857D01*
X141247714Y-86860095D01*
X141200095Y-87002952D01*
X140628666Y-87574380D01*
X141247714Y-87574380D01*
X126833333Y-84526380D02*
X126500000Y-84050190D01*
X126261904Y-84526380D02*
X126261904Y-83526380D01*
X126642857Y-83526380D01*
X126738095Y-83574000D01*
X126785714Y-83621619D01*
X126833333Y-83716857D01*
X126833333Y-83859714D01*
X126785714Y-83954952D01*
X126738095Y-84002571D01*
X126642857Y-84050190D01*
X126261904Y-84050190D01*
X127166666Y-83526380D02*
X127785714Y-83526380D01*
X127452380Y-83907333D01*
X127595238Y-83907333D01*
X127690476Y-83954952D01*
X127738095Y-84002571D01*
X127785714Y-84097809D01*
X127785714Y-84335904D01*
X127738095Y-84431142D01*
X127690476Y-84478761D01*
X127595238Y-84526380D01*
X127309523Y-84526380D01*
X127214285Y-84478761D01*
X127166666Y-84431142D01*
X140295333Y-89860380D02*
X139962000Y-89384190D01*
X139723904Y-89860380D02*
X139723904Y-88860380D01*
X140104857Y-88860380D01*
X140200095Y-88908000D01*
X140247714Y-88955619D01*
X140295333Y-89050857D01*
X140295333Y-89193714D01*
X140247714Y-89288952D01*
X140200095Y-89336571D01*
X140104857Y-89384190D01*
X139723904Y-89384190D01*
X141152476Y-89193714D02*
X141152476Y-89860380D01*
X140914380Y-88812761D02*
X140676285Y-89527047D01*
X141295333Y-89527047D01*
X129627333Y-90368380D02*
X129294000Y-89892190D01*
X129055904Y-90368380D02*
X129055904Y-89368380D01*
X129436857Y-89368380D01*
X129532095Y-89416000D01*
X129579714Y-89463619D01*
X129627333Y-89558857D01*
X129627333Y-89701714D01*
X129579714Y-89796952D01*
X129532095Y-89844571D01*
X129436857Y-89892190D01*
X129055904Y-89892190D01*
X130532095Y-89368380D02*
X130055904Y-89368380D01*
X130008285Y-89844571D01*
X130055904Y-89796952D01*
X130151142Y-89749333D01*
X130389238Y-89749333D01*
X130484476Y-89796952D01*
X130532095Y-89844571D01*
X130579714Y-89939809D01*
X130579714Y-90177904D01*
X130532095Y-90273142D01*
X130484476Y-90320761D01*
X130389238Y-90368380D01*
X130151142Y-90368380D01*
X130055904Y-90320761D01*
X130008285Y-90273142D01*
X153757333Y-96972380D02*
X153424000Y-96496190D01*
X153185904Y-96972380D02*
X153185904Y-95972380D01*
X153566857Y-95972380D01*
X153662095Y-96020000D01*
X153709714Y-96067619D01*
X153757333Y-96162857D01*
X153757333Y-96305714D01*
X153709714Y-96400952D01*
X153662095Y-96448571D01*
X153566857Y-96496190D01*
X153185904Y-96496190D01*
X154614476Y-95972380D02*
X154424000Y-95972380D01*
X154328761Y-96020000D01*
X154281142Y-96067619D01*
X154185904Y-96210476D01*
X154138285Y-96400952D01*
X154138285Y-96781904D01*
X154185904Y-96877142D01*
X154233523Y-96924761D01*
X154328761Y-96972380D01*
X154519238Y-96972380D01*
X154614476Y-96924761D01*
X154662095Y-96877142D01*
X154709714Y-96781904D01*
X154709714Y-96543809D01*
X154662095Y-96448571D01*
X154614476Y-96400952D01*
X154519238Y-96353333D01*
X154328761Y-96353333D01*
X154233523Y-96400952D01*
X154185904Y-96448571D01*
X154138285Y-96543809D01*
X153757333Y-99512380D02*
X153424000Y-99036190D01*
X153185904Y-99512380D02*
X153185904Y-98512380D01*
X153566857Y-98512380D01*
X153662095Y-98560000D01*
X153709714Y-98607619D01*
X153757333Y-98702857D01*
X153757333Y-98845714D01*
X153709714Y-98940952D01*
X153662095Y-98988571D01*
X153566857Y-99036190D01*
X153185904Y-99036190D01*
X154090666Y-98512380D02*
X154757333Y-98512380D01*
X154328761Y-99512380D01*
X168743333Y-77922380D02*
X168410000Y-77446190D01*
X168171904Y-77922380D02*
X168171904Y-76922380D01*
X168552857Y-76922380D01*
X168648095Y-76970000D01*
X168695714Y-77017619D01*
X168743333Y-77112857D01*
X168743333Y-77255714D01*
X168695714Y-77350952D01*
X168648095Y-77398571D01*
X168552857Y-77446190D01*
X168171904Y-77446190D01*
X169314761Y-77350952D02*
X169219523Y-77303333D01*
X169171904Y-77255714D01*
X169124285Y-77160476D01*
X169124285Y-77112857D01*
X169171904Y-77017619D01*
X169219523Y-76970000D01*
X169314761Y-76922380D01*
X169505238Y-76922380D01*
X169600476Y-76970000D01*
X169648095Y-77017619D01*
X169695714Y-77112857D01*
X169695714Y-77160476D01*
X169648095Y-77255714D01*
X169600476Y-77303333D01*
X169505238Y-77350952D01*
X169314761Y-77350952D01*
X169219523Y-77398571D01*
X169171904Y-77446190D01*
X169124285Y-77541428D01*
X169124285Y-77731904D01*
X169171904Y-77827142D01*
X169219523Y-77874761D01*
X169314761Y-77922380D01*
X169505238Y-77922380D01*
X169600476Y-77874761D01*
X169648095Y-77827142D01*
X169695714Y-77731904D01*
X169695714Y-77541428D01*
X169648095Y-77446190D01*
X169600476Y-77398571D01*
X169505238Y-77350952D01*
X155789333Y-79446380D02*
X155456000Y-78970190D01*
X155217904Y-79446380D02*
X155217904Y-78446380D01*
X155598857Y-78446380D01*
X155694095Y-78494000D01*
X155741714Y-78541619D01*
X155789333Y-78636857D01*
X155789333Y-78779714D01*
X155741714Y-78874952D01*
X155694095Y-78922571D01*
X155598857Y-78970190D01*
X155217904Y-78970190D01*
X156265523Y-79446380D02*
X156456000Y-79446380D01*
X156551238Y-79398761D01*
X156598857Y-79351142D01*
X156694095Y-79208285D01*
X156741714Y-79017809D01*
X156741714Y-78636857D01*
X156694095Y-78541619D01*
X156646476Y-78494000D01*
X156551238Y-78446380D01*
X156360761Y-78446380D01*
X156265523Y-78494000D01*
X156217904Y-78541619D01*
X156170285Y-78636857D01*
X156170285Y-78874952D01*
X156217904Y-78970190D01*
X156265523Y-79017809D01*
X156360761Y-79065428D01*
X156551238Y-79065428D01*
X156646476Y-79017809D01*
X156694095Y-78970190D01*
X156741714Y-78874952D01*
X133012095Y-89008380D02*
X133012095Y-89817904D01*
X133059714Y-89913142D01*
X133107333Y-89960761D01*
X133202571Y-90008380D01*
X133393047Y-90008380D01*
X133488285Y-89960761D01*
X133535904Y-89913142D01*
X133583523Y-89817904D01*
X133583523Y-89008380D01*
X134012095Y-89103619D02*
X134059714Y-89056000D01*
X134154952Y-89008380D01*
X134393047Y-89008380D01*
X134488285Y-89056000D01*
X134535904Y-89103619D01*
X134583523Y-89198857D01*
X134583523Y-89294095D01*
X134535904Y-89436952D01*
X133964476Y-90008380D01*
X134583523Y-90008380D01*
X149860095Y-100438380D02*
X149860095Y-101247904D01*
X149907714Y-101343142D01*
X149955333Y-101390761D01*
X150050571Y-101438380D01*
X150241047Y-101438380D01*
X150336285Y-101390761D01*
X150383904Y-101343142D01*
X150431523Y-101247904D01*
X150431523Y-100438380D01*
X150812476Y-100438380D02*
X151431523Y-100438380D01*
X151098190Y-100819333D01*
X151241047Y-100819333D01*
X151336285Y-100866952D01*
X151383904Y-100914571D01*
X151431523Y-101009809D01*
X151431523Y-101247904D01*
X151383904Y-101343142D01*
X151336285Y-101390761D01*
X151241047Y-101438380D01*
X150955333Y-101438380D01*
X150860095Y-101390761D01*
X150812476Y-101343142D01*
X162560095Y-75144380D02*
X162560095Y-75953904D01*
X162607714Y-76049142D01*
X162655333Y-76096761D01*
X162750571Y-76144380D01*
X162941047Y-76144380D01*
X163036285Y-76096761D01*
X163083904Y-76049142D01*
X163131523Y-75953904D01*
X163131523Y-75144380D01*
X164036285Y-75477714D02*
X164036285Y-76144380D01*
X163798190Y-75096761D02*
X163560095Y-75811047D01*
X164179142Y-75811047D01*
X127441619Y-96361238D02*
X127394000Y-96456476D01*
X127298761Y-96551714D01*
X127155904Y-96694571D01*
X127108285Y-96789809D01*
X127108285Y-96885047D01*
X127346380Y-96837428D02*
X127298761Y-96932666D01*
X127203523Y-97027904D01*
X127013047Y-97075523D01*
X126679714Y-97075523D01*
X126489238Y-97027904D01*
X126394000Y-96932666D01*
X126346380Y-96837428D01*
X126346380Y-96646952D01*
X126394000Y-96551714D01*
X126489238Y-96456476D01*
X126679714Y-96408857D01*
X127013047Y-96408857D01*
X127203523Y-96456476D01*
X127298761Y-96551714D01*
X127346380Y-96646952D01*
X127346380Y-96837428D01*
X127346380Y-95456476D02*
X127346380Y-96027904D01*
X127346380Y-95742190D02*
X126346380Y-95742190D01*
X126489238Y-95837428D01*
X126584476Y-95932666D01*
X126632095Y-96027904D01*
X144895833Y-102593142D02*
X144848214Y-102640761D01*
X144705357Y-102688380D01*
X144610119Y-102688380D01*
X144467261Y-102640761D01*
X144372023Y-102545523D01*
X144324404Y-102450285D01*
X144276785Y-102259809D01*
X144276785Y-102116952D01*
X144324404Y-101926476D01*
X144372023Y-101831238D01*
X144467261Y-101736000D01*
X144610119Y-101688380D01*
X144705357Y-101688380D01*
X144848214Y-101736000D01*
X144895833Y-101783619D01*
X145229166Y-101688380D02*
X145848214Y-101688380D01*
X145514880Y-102069333D01*
X145657738Y-102069333D01*
X145752976Y-102116952D01*
X145800595Y-102164571D01*
X145848214Y-102259809D01*
X145848214Y-102497904D01*
X145800595Y-102593142D01*
X145752976Y-102640761D01*
X145657738Y-102688380D01*
X145372023Y-102688380D01*
X145276785Y-102640761D01*
X145229166Y-102593142D01*
X155662333Y-104878142D02*
X155614714Y-104925761D01*
X155471857Y-104973380D01*
X155376619Y-104973380D01*
X155233761Y-104925761D01*
X155138523Y-104830523D01*
X155090904Y-104735285D01*
X155043285Y-104544809D01*
X155043285Y-104401952D01*
X155090904Y-104211476D01*
X155138523Y-104116238D01*
X155233761Y-104021000D01*
X155376619Y-103973380D01*
X155471857Y-103973380D01*
X155614714Y-104021000D01*
X155662333Y-104068619D01*
X156519476Y-104306714D02*
X156519476Y-104973380D01*
X156281380Y-103925761D02*
X156043285Y-104640047D01*
X156662333Y-104640047D01*
M02*
