G04 #@! TF.GenerationSoftware,KiCad,Pcbnew,(5.1.6)-1*
G04 #@! TF.CreationDate,2021-01-22T14:13:29+00:00*
G04 #@! TF.ProjectId,NanoBLE_Compass,4e616e6f-424c-4455-9f43-6f6d70617373,rev?*
G04 #@! TF.SameCoordinates,Original*
G04 #@! TF.FileFunction,Legend,Bot*
G04 #@! TF.FilePolarity,Positive*
%FSLAX46Y46*%
G04 Gerber Fmt 4.6, Leading zero omitted, Abs format (unit mm)*
G04 Created by KiCad (PCBNEW (5.1.6)-1) date 2021-01-22 14:13:29*
%MOMM*%
%LPD*%
G01*
G04 APERTURE LIST*
%ADD10C,0.150000*%
G04 APERTURE END LIST*
D10*
X173188380Y-84788952D02*
X173902666Y-84788952D01*
X174045523Y-84741333D01*
X174140761Y-84646095D01*
X174188380Y-84503238D01*
X174188380Y-84408000D01*
X174188380Y-85741333D02*
X174188380Y-85265142D01*
X173188380Y-85265142D01*
X174093142Y-86646095D02*
X174140761Y-86598476D01*
X174188380Y-86455619D01*
X174188380Y-86360380D01*
X174140761Y-86217523D01*
X174045523Y-86122285D01*
X173950285Y-86074666D01*
X173759809Y-86027047D01*
X173616952Y-86027047D01*
X173426476Y-86074666D01*
X173331238Y-86122285D01*
X173236000Y-86217523D01*
X173188380Y-86360380D01*
X173188380Y-86455619D01*
X173236000Y-86598476D01*
X173283619Y-86646095D01*
X173188380Y-87360380D02*
X173902666Y-87360380D01*
X174045523Y-87312761D01*
X174140761Y-87217523D01*
X174188380Y-87074666D01*
X174188380Y-86979428D01*
X174188380Y-88312761D02*
X174188380Y-87836571D01*
X173188380Y-87836571D01*
X174093142Y-89217523D02*
X174140761Y-89169904D01*
X174188380Y-89027047D01*
X174188380Y-88931809D01*
X174140761Y-88788952D01*
X174045523Y-88693714D01*
X173950285Y-88646095D01*
X173759809Y-88598476D01*
X173616952Y-88598476D01*
X173426476Y-88646095D01*
X173331238Y-88693714D01*
X173236000Y-88788952D01*
X173188380Y-88931809D01*
X173188380Y-89027047D01*
X173236000Y-89169904D01*
X173283619Y-89217523D01*
X173188380Y-89931809D02*
X173902666Y-89931809D01*
X174045523Y-89884190D01*
X174140761Y-89788952D01*
X174188380Y-89646095D01*
X174188380Y-89550857D01*
X174188380Y-90884190D02*
X174188380Y-90408000D01*
X173188380Y-90408000D01*
X174093142Y-91788952D02*
X174140761Y-91741333D01*
X174188380Y-91598476D01*
X174188380Y-91503238D01*
X174140761Y-91360380D01*
X174045523Y-91265142D01*
X173950285Y-91217523D01*
X173759809Y-91169904D01*
X173616952Y-91169904D01*
X173426476Y-91217523D01*
X173331238Y-91265142D01*
X173236000Y-91360380D01*
X173188380Y-91503238D01*
X173188380Y-91598476D01*
X173236000Y-91741333D01*
X173283619Y-91788952D01*
X173188380Y-92503238D02*
X173902666Y-92503238D01*
X174045523Y-92455619D01*
X174140761Y-92360380D01*
X174188380Y-92217523D01*
X174188380Y-92122285D01*
X174188380Y-93455619D02*
X174188380Y-92979428D01*
X173188380Y-92979428D01*
X174093142Y-94360380D02*
X174140761Y-94312761D01*
X174188380Y-94169904D01*
X174188380Y-94074666D01*
X174140761Y-93931809D01*
X174045523Y-93836571D01*
X173950285Y-93788952D01*
X173759809Y-93741333D01*
X173616952Y-93741333D01*
X173426476Y-93788952D01*
X173331238Y-93836571D01*
X173236000Y-93931809D01*
X173188380Y-94074666D01*
X173188380Y-94169904D01*
X173236000Y-94312761D01*
X173283619Y-94360380D01*
M02*
