G04 #@! TF.GenerationSoftware,KiCad,Pcbnew,(5.1.6)-1*
G04 #@! TF.CreationDate,2021-01-22T14:13:30+00:00*
G04 #@! TF.ProjectId,NanoBLE_Compass,4e616e6f-424c-4455-9f43-6f6d70617373,rev?*
G04 #@! TF.SameCoordinates,Original*
G04 #@! TF.FileFunction,Profile,NP*
%FSLAX46Y46*%
G04 Gerber Fmt 4.6, Leading zero omitted, Abs format (unit mm)*
G04 Created by KiCad (PCBNEW (5.1.6)-1) date 2021-01-22 14:13:30*
%MOMM*%
%LPD*%
G01*
G04 APERTURE LIST*
G04 #@! TA.AperFunction,Profile*
%ADD10C,0.050000*%
G04 #@! TD*
G04 #@! TA.AperFunction,Profile*
%ADD11C,0.001000*%
G04 #@! TD*
G04 APERTURE END LIST*
D10*
X174330000Y-71430000D02*
X123330000Y-71430000D01*
X178330000Y-103430000D02*
X178330000Y-75430000D01*
X123330000Y-107430000D02*
X174330000Y-107430000D01*
X119330000Y-75430000D02*
X119330000Y-103430000D01*
X174330000Y-71430000D02*
G75*
G02*
X178330000Y-75430000I0J-4000000D01*
G01*
X178330000Y-103430000D02*
G75*
G02*
X174330000Y-107430000I-4000000J0D01*
G01*
X123330000Y-107430000D02*
G75*
G02*
X119330000Y-103430000I0J4000000D01*
G01*
X119330000Y-75430000D02*
G75*
G02*
X123330000Y-71430000I4000000J0D01*
G01*
D11*
X123306500Y-87665500D02*
X123232000Y-87665500D01*
X123157500Y-87014500D02*
X123232000Y-87014500D01*
X123232000Y-87665000D02*
X123157000Y-87665000D01*
X123232000Y-87015000D02*
X123307000Y-87015000D01*
X123306500Y-92115500D02*
X123232000Y-92115500D01*
X123157500Y-91464500D02*
X123232000Y-91464500D01*
X123232000Y-92115000D02*
X123157000Y-92115000D01*
X123232000Y-91465000D02*
X123307000Y-91465000D01*
X123307000Y-91465000D02*
G75*
G02*
X123632000Y-91790000I0J-325000D01*
G01*
X123157000Y-92115000D02*
G75*
G02*
X122832000Y-91790000I0J325000D01*
G01*
X122832000Y-91790000D02*
G75*
G02*
X123157500Y-91464500I325500J0D01*
G01*
X123632000Y-91790000D02*
G75*
G02*
X123306500Y-92115500I-325500J0D01*
G01*
X123307000Y-87015000D02*
G75*
G02*
X123632000Y-87340000I0J-325000D01*
G01*
X123157000Y-87665000D02*
G75*
G02*
X122832000Y-87340000I0J325000D01*
G01*
X122832000Y-87340000D02*
G75*
G02*
X123157500Y-87014500I325500J0D01*
G01*
X123632000Y-87340000D02*
G75*
G02*
X123306500Y-87665500I-325500J0D01*
G01*
M02*
